<?xml version="1.0" encoding="UTF-8" standalone="no"?>
<!DOCTYPE svg PUBLIC "-//W3C//DTD SVG 1.1//EN"
 "http://www.w3.org/Graphics/SVG/1.1/DTD/svg11.dtd">
<!-- Generated by graphviz version 2.50.0 (0)
 -->
<!-- Title: src/cliente.c Pages: 1 -->
<svg width="470pt" height="252pt"
 viewBox="0.00 0.00 470.05 252.00" xmlns="http://www.w3.org/2000/svg" xmlns:xlink="http://www.w3.org/1999/xlink">
<g id="graph0" class="graph" transform="scale(1 1) rotate(0) translate(4 248)">
<title>src/cliente.c</title>
<!-- Node1 -->
<g id="node1" class="node">
<title>Node1</title>
<g id="a_node1"><a xlink:title=" ">
<polygon fill="#bfbfbf" stroke="black" points="147.05,-224.5 147.05,-243.5 222.05,-243.5 222.05,-224.5 147.05,-224.5"/>
<text text-anchor="middle" x="184.55" y="-231.5" font-family="Helvetica,sans-Serif" font-size="10.00">src/cliente.c</text>
</a>
</g>
</g>
<!-- Node2 -->
<g id="node2" class="node">
<title>Node2</title>
<g id="a_node2"><a xlink:href="idoso_8h.html" target="_top" xlink:title=" ">
<polygon fill="none" stroke="black" points="25.55,-112.5 25.55,-131.5 77.55,-131.5 77.55,-112.5 25.55,-112.5"/>
<text text-anchor="middle" x="51.55" y="-119.5" font-family="Helvetica,sans-Serif" font-size="10.00">idoso.h</text>
</a>
</g>
</g>
<!-- Node1&#45;&gt;Node2 -->
<g id="edge1" class="edge">
<title>Node1&#45;&gt;Node2</title>
<path fill="none" stroke="midnightblue" d="M146.7,-228.96C99.2,-223.01 21.85,-210.15 4.55,-188 -8.7,-171.02 11.22,-150.83 29.07,-137.51"/>
<polygon fill="midnightblue" stroke="midnightblue" points="31.35,-140.18 37.51,-131.56 27.32,-134.46 31.35,-140.18"/>
</g>
<!-- Node4 -->
<g id="node4" class="node">
<title>Node4</title>
<g id="a_node4"><a xlink:href="cuidador_8h.html" target="_top" xlink:title=" ">
<polygon fill="none" stroke="black" points="82.05,-56.5 82.05,-75.5 149.05,-75.5 149.05,-56.5 82.05,-56.5"/>
<text text-anchor="middle" x="115.55" y="-63.5" font-family="Helvetica,sans-Serif" font-size="10.00">cuidador.h</text>
</a>
</g>
</g>
<!-- Node1&#45;&gt;Node4 -->
<g id="edge5" class="edge">
<title>Node1&#45;&gt;Node4</title>
<path fill="none" stroke="midnightblue" d="M179.6,-224.32C169.95,-207.13 148.35,-167.36 134.55,-132 128.54,-116.6 123.4,-98.5 119.99,-85.32"/>
<polygon fill="midnightblue" stroke="midnightblue" points="123.37,-84.42 117.55,-75.57 116.58,-86.12 123.37,-84.42"/>
</g>
<!-- Node5 -->
<g id="node5" class="node">
<title>Node5</title>
<g id="a_node5"><a xlink:href="lista_idoso_8h.html" target="_top" xlink:title=" ">
<polygon fill="none" stroke="black" points="14.05,-168.5 14.05,-187.5 87.05,-187.5 87.05,-168.5 14.05,-168.5"/>
<text text-anchor="middle" x="50.55" y="-175.5" font-family="Helvetica,sans-Serif" font-size="10.00">listaIdoso.h</text>
</a>
</g>
</g>
<!-- Node1&#45;&gt;Node5 -->
<g id="edge6" class="edge">
<title>Node1&#45;&gt;Node5</title>
<path fill="none" stroke="midnightblue" d="M163.32,-224.44C141.17,-215.52 106.24,-201.44 81.12,-191.32"/>
<polygon fill="midnightblue" stroke="midnightblue" points="82.27,-188.01 71.69,-187.52 79.65,-194.5 82.27,-188.01"/>
</g>
<!-- Node6 -->
<g id="node6" class="node">
<title>Node6</title>
<g id="a_node6"><a xlink:href="lista_cuidador_8h.html" target="_top" xlink:title=" ">
<polygon fill="none" stroke="black" points="144.05,-112.5 144.05,-131.5 233.05,-131.5 233.05,-112.5 144.05,-112.5"/>
<text text-anchor="middle" x="188.55" y="-119.5" font-family="Helvetica,sans-Serif" font-size="10.00">listaCuidador.h</text>
</a>
</g>
</g>
<!-- Node1&#45;&gt;Node6 -->
<g id="edge8" class="edge">
<title>Node1&#45;&gt;Node6</title>
<path fill="none" stroke="midnightblue" d="M180.92,-224.18C176.24,-211.69 169.08,-188.13 172.55,-168 174.12,-158.91 177.35,-149.22 180.5,-141.17"/>
<polygon fill="midnightblue" stroke="midnightblue" points="183.82,-142.3 184.44,-131.72 177.36,-139.6 183.82,-142.3"/>
</g>
<!-- Node7 -->
<g id="node7" class="node">
<title>Node7</title>
<g id="a_node7"><a xlink:href="pathman_8h.html" target="_top" xlink:title=" ">
<polygon fill="none" stroke="black" points="182.05,-168.5 182.05,-187.5 251.05,-187.5 251.05,-168.5 182.05,-168.5"/>
<text text-anchor="middle" x="216.55" y="-175.5" font-family="Helvetica,sans-Serif" font-size="10.00">pathman.h</text>
</a>
</g>
</g>
<!-- Node1&#45;&gt;Node7 -->
<g id="edge10" class="edge">
<title>Node1&#45;&gt;Node7</title>
<path fill="none" stroke="midnightblue" d="M189.84,-224.08C194.27,-216.61 200.72,-205.72 206.17,-196.52"/>
<polygon fill="midnightblue" stroke="midnightblue" points="209.28,-198.14 211.37,-187.75 203.26,-194.57 209.28,-198.14"/>
</g>
<!-- Node8 -->
<g id="node8" class="node">
<title>Node8</title>
<g id="a_node8"><a xlink:title=" ">
<polygon fill="none" stroke="#bfbfbf" points="269.55,-168.5 269.55,-187.5 319.55,-187.5 319.55,-168.5 269.55,-168.5"/>
<text text-anchor="middle" x="294.55" y="-175.5" font-family="Helvetica,sans-Serif" font-size="10.00">stdio.h</text>
</a>
</g>
</g>
<!-- Node1&#45;&gt;Node8 -->
<g id="edge11" class="edge">
<title>Node1&#45;&gt;Node8</title>
<path fill="none" stroke="midnightblue" d="M202.23,-224.32C219.95,-215.62 247.46,-202.12 267.84,-192.11"/>
<polygon fill="midnightblue" stroke="midnightblue" points="269.49,-195.2 276.93,-187.65 266.41,-188.92 269.49,-195.2"/>
</g>
<!-- Node9 -->
<g id="node9" class="node">
<title>Node9</title>
<g id="a_node9"><a xlink:title=" ">
<polygon fill="none" stroke="#bfbfbf" points="338.05,-168.5 338.05,-187.5 391.05,-187.5 391.05,-168.5 338.05,-168.5"/>
<text text-anchor="middle" x="364.55" y="-175.5" font-family="Helvetica,sans-Serif" font-size="10.00">stdlib.h</text>
</a>
</g>
</g>
<!-- Node1&#45;&gt;Node9 -->
<g id="edge12" class="edge">
<title>Node1&#45;&gt;Node9</title>
<path fill="none" stroke="midnightblue" d="M213.08,-224.44C244.16,-215.12 293.99,-200.17 327.94,-189.99"/>
<polygon fill="midnightblue" stroke="midnightblue" points="329.35,-193.21 337.93,-186.99 327.34,-186.51 329.35,-193.21"/>
</g>
<!-- Node10 -->
<g id="node10" class="node">
<title>Node10</title>
<g id="a_node10"><a xlink:title=" ">
<polygon fill="none" stroke="#bfbfbf" points="409.05,-168.5 409.05,-187.5 462.05,-187.5 462.05,-168.5 409.05,-168.5"/>
<text text-anchor="middle" x="435.55" y="-175.5" font-family="Helvetica,sans-Serif" font-size="10.00">string.h</text>
</a>
</g>
</g>
<!-- Node1&#45;&gt;Node10 -->
<g id="edge13" class="edge">
<title>Node1&#45;&gt;Node10</title>
<path fill="none" stroke="midnightblue" d="M222.13,-225.72C263.29,-217.63 331.48,-203.86 398.89,-188.31"/>
<polygon fill="midnightblue" stroke="midnightblue" points="399.88,-191.68 408.83,-186.01 398.3,-184.86 399.88,-191.68"/>
</g>
<!-- Node3 -->
<g id="node3" class="node">
<title>Node3</title>
<g id="a_node3"><a xlink:href="geoloc_8h.html" target="_top" xlink:title=" ">
<polygon fill="none" stroke="black" points="54.55,-0.5 54.55,-19.5 112.55,-19.5 112.55,-0.5 54.55,-0.5"/>
<text text-anchor="middle" x="83.55" y="-7.5" font-family="Helvetica,sans-Serif" font-size="10.00">geoloc.h</text>
</a>
</g>
</g>
<!-- Node2&#45;&gt;Node3 -->
<g id="edge2" class="edge">
<title>Node2&#45;&gt;Node3</title>
<path fill="none" stroke="midnightblue" d="M54.07,-112.37C59.25,-94.54 71.25,-53.3 78.24,-29.27"/>
<polygon fill="midnightblue" stroke="midnightblue" points="81.62,-30.17 81.06,-19.59 74.9,-28.22 81.62,-30.17"/>
</g>
<!-- Node2&#45;&gt;Node4 -->
<g id="edge3" class="edge">
<title>Node2&#45;&gt;Node4</title>
<path fill="none" stroke="midnightblue" d="M61.84,-112.32C71.39,-104.26 85.83,-92.08 97.34,-82.37"/>
<polygon fill="midnightblue" stroke="midnightblue" points="99.7,-84.96 105.08,-75.83 95.18,-79.61 99.7,-84.96"/>
</g>
<!-- Node4&#45;&gt;Node3 -->
<g id="edge4" class="edge">
<title>Node4&#45;&gt;Node3</title>
<path fill="none" stroke="midnightblue" d="M110.27,-56.08C105.84,-48.61 99.39,-37.72 93.94,-28.52"/>
<polygon fill="midnightblue" stroke="midnightblue" points="96.85,-26.57 88.74,-19.75 90.83,-30.14 96.85,-26.57"/>
</g>
<!-- Node5&#45;&gt;Node2 -->
<g id="edge7" class="edge">
<title>Node5&#45;&gt;Node2</title>
<path fill="none" stroke="midnightblue" d="M50.72,-168.08C50.85,-161.01 51.04,-150.86 51.2,-141.99"/>
<polygon fill="midnightblue" stroke="midnightblue" points="54.71,-141.81 51.39,-131.75 47.71,-141.68 54.71,-141.81"/>
</g>
<!-- Node6&#45;&gt;Node4 -->
<g id="edge9" class="edge">
<title>Node6&#45;&gt;Node4</title>
<path fill="none" stroke="midnightblue" d="M176.83,-112.32C165.72,-104.11 148.81,-91.6 135.57,-81.81"/>
<polygon fill="midnightblue" stroke="midnightblue" points="137.62,-78.97 127.5,-75.83 133.45,-84.59 137.62,-78.97"/>
</g>
</g>
</svg>
