<?xml version="1.0" encoding="UTF-8" standalone="no"?>
<!DOCTYPE svg PUBLIC "-//W3C//DTD SVG 1.1//EN"
 "http://www.w3.org/Graphics/SVG/1.1/DTD/svg11.dtd">
<!-- Generated by graphviz version 2.50.0 (0)
 -->
<!-- Title: main Pages: 1 -->
<svg width="498pt" height="947pt"
 viewBox="0.00 0.00 498.00 946.71" xmlns="http://www.w3.org/2000/svg" xmlns:xlink="http://www.w3.org/1999/xlink">
<g id="graph0" class="graph" transform="scale(1 1) rotate(0) translate(4 942.71)">
<title>main</title>
<!-- Node1 -->
<g id="node1" class="node">
<title>Node1</title>
<g id="a_node1"><a xlink:title=" ">
<polygon fill="#bfbfbf" stroke="black" points="0,-399.5 0,-418.5 41,-418.5 41,-399.5 0,-399.5"/>
<text text-anchor="middle" x="20.5" y="-406.5" font-family="Helvetica,sans-Serif" font-size="10.00">main</text>
</a>
</g>
</g>
<!-- Node2 -->
<g id="node2" class="node">
<title>Node2</title>
<g id="a_node2"><a xlink:href="pathman_8h.html#a8ac57bc6fde707215bb75ce25309489b" target="_top" xlink:title="adiciona uma string no final do caminho, com um divisor no meio se o path terminar com um divisor,...">
<polygon fill="none" stroke="black" points="267,-912.5 267,-931.5 311,-931.5 311,-912.5 267,-912.5"/>
<text text-anchor="middle" x="289" y="-919.5" font-family="Helvetica,sans-Serif" font-size="10.00">adpth</text>
</a>
</g>
</g>
<!-- Node1&#45;&gt;Node2 -->
<g id="edge1" class="edge">
<title>Node1&#45;&gt;Node2</title>
<path fill="none" stroke="midnightblue" d="M21.86,-418.54C24.43,-484.19 40.91,-867.7 77,-903 124.69,-949.65 210.72,-939.73 256.82,-929.99"/>
<polygon fill="midnightblue" stroke="midnightblue" points="257.84,-933.35 266.83,-927.74 256.31,-926.52 257.84,-933.35"/>
</g>
<!-- Node4 -->
<g id="node4" class="node">
<title>Node4</title>
<g id="a_node4"><a xlink:href="cuidador_8h.html#a676000430da09bc26e44294be49ce6a7" target="_top" xlink:title="Faz a leitura de uma nova linha do arquivo referente ao cuidador, atualizando seu local no dado tempo...">
<polygon fill="none" stroke="black" points="85,-618.5 85,-637.5 185,-637.5 185,-618.5 85,-618.5"/>
<text text-anchor="middle" x="135" y="-625.5" font-family="Helvetica,sans-Serif" font-size="10.00">AtualizaCuidador</text>
</a>
</g>
</g>
<!-- Node1&#45;&gt;Node4 -->
<g id="edge3" class="edge">
<title>Node1&#45;&gt;Node4</title>
<path fill="none" stroke="midnightblue" d="M21.72,-418.51C22.89,-448.54 30.28,-542.65 77,-599 81.92,-604.94 88.37,-609.78 95.15,-613.7"/>
<polygon fill="midnightblue" stroke="midnightblue" points="93.99,-617.04 104.49,-618.47 97.18,-610.81 93.99,-617.04"/>
</g>
<!-- Node7 -->
<g id="node7" class="node">
<title>Node7</title>
<g id="a_node7"><a xlink:href="idoso_8h.html#a9f1d51ea97ea9f557a840325ef5fb737" target="_top" xlink:title="Faz a leitura de uma nova linha do arquivo referente ao Idoso, atualizando seus dados no dado tempo.">
<polygon fill="none" stroke="black" points="93.5,-570.5 93.5,-589.5 176.5,-589.5 176.5,-570.5 93.5,-570.5"/>
<text text-anchor="middle" x="135" y="-577.5" font-family="Helvetica,sans-Serif" font-size="10.00">AtualizaIdoso</text>
</a>
</g>
</g>
<!-- Node1&#45;&gt;Node7 -->
<g id="edge6" class="edge">
<title>Node1&#45;&gt;Node7</title>
<path fill="none" stroke="midnightblue" d="M24.97,-418.75C32.53,-439.21 51.83,-487.69 77,-523 87.82,-538.19 102.82,-553.01 114.72,-563.73"/>
<polygon fill="midnightblue" stroke="midnightblue" points="112.55,-566.48 122.37,-570.45 117.17,-561.22 112.55,-566.48"/>
</g>
<!-- Node12 -->
<g id="node12" class="node">
<title>Node12</title>
<g id="a_node12"><a xlink:href="lista_cuidador_8h.html#a61dc6d98fd31091c9282d2cc26eb8ba3" target="_top" xlink:title="Busca na lista o cuidador que possui o nome informado e faz o retorno do mesmo, retornando nulo caso ...">
<polygon fill="none" stroke="black" points="92.5,-494.5 92.5,-513.5 177.5,-513.5 177.5,-494.5 92.5,-494.5"/>
<text text-anchor="middle" x="135" y="-501.5" font-family="Helvetica,sans-Serif" font-size="10.00">BuscaListaCui</text>
</a>
</g>
</g>
<!-- Node1&#45;&gt;Node12 -->
<g id="edge12" class="edge">
<title>Node1&#45;&gt;Node12</title>
<path fill="none" stroke="midnightblue" d="M26.05,-418.66C34.09,-434.73 52.33,-466.98 77,-485 79.65,-486.94 82.52,-488.69 85.5,-490.26"/>
<polygon fill="midnightblue" stroke="midnightblue" points="84.16,-493.5 94.71,-494.5 87.08,-487.14 84.16,-493.5"/>
</g>
<!-- Node14 -->
<g id="node14" class="node">
<title>Node14</title>
<g id="a_node14"><a xlink:href="lista_idoso_8h.html#ae54bcb97b257f8edff6646cf71e1946d" target="_top" xlink:title="Busca na lista o Idoso que possui o nome informado e faz o retorno do mesmo, retornando nulo caso a l...">
<polygon fill="none" stroke="black" points="87.5,-418.5 87.5,-437.5 182.5,-437.5 182.5,-418.5 87.5,-418.5"/>
<text text-anchor="middle" x="135" y="-425.5" font-family="Helvetica,sans-Serif" font-size="10.00">BuscaListaIdoso</text>
</a>
</g>
</g>
<!-- Node1&#45;&gt;Node14 -->
<g id="edge14" class="edge">
<title>Node1&#45;&gt;Node14</title>
<path fill="none" stroke="midnightblue" d="M41.1,-412.31C51.23,-414.02 64.17,-416.21 77.16,-418.4"/>
<polygon fill="midnightblue" stroke="midnightblue" points="76.61,-421.86 87.05,-420.07 77.78,-414.95 76.61,-421.86"/>
</g>
<!-- Node16 -->
<g id="node16" class="node">
<title>Node16</title>
<g id="a_node16"><a xlink:href="pathman_8h.html#a18886c8669c2a9541f75720f21bdb84c" target="_top" xlink:title="Extend path: adiciona uma string no final do caminho.">
<polygon fill="none" stroke="black" points="267,-874.5 267,-893.5 311,-893.5 311,-874.5 267,-874.5"/>
<text text-anchor="middle" x="289" y="-881.5" font-family="Helvetica,sans-Serif" font-size="10.00">expth</text>
</a>
</g>
</g>
<!-- Node1&#45;&gt;Node16 -->
<g id="edge16" class="edge">
<title>Node1&#45;&gt;Node16</title>
<path fill="none" stroke="midnightblue" d="M21.39,-418.73C20.93,-475.48 21.4,-763.54 77,-827 88.98,-840.67 201.28,-865.82 256.98,-877.6"/>
<polygon fill="midnightblue" stroke="midnightblue" points="256.49,-881.07 267,-879.7 257.93,-874.22 256.49,-881.07"/>
</g>
<!-- Node17 -->
<g id="node17" class="node">
<title>Node17</title>
<g id="a_node17"><a xlink:href="cuidador_8h.html#aeb8e274de45a5c99428ad3740eef86b8" target="_top" xlink:title="Faz a alocacao de memoria e inicializacao de uma variavel do tipo cuidador.">
<polygon fill="none" stroke="black" points="92,-874.5 92,-893.5 178,-893.5 178,-874.5 92,-874.5"/>
<text text-anchor="middle" x="135" y="-881.5" font-family="Helvetica,sans-Serif" font-size="10.00">IniciaCuidador</text>
</a>
</g>
</g>
<!-- Node1&#45;&gt;Node17 -->
<g id="edge17" class="edge">
<title>Node1&#45;&gt;Node17</title>
<path fill="none" stroke="midnightblue" d="M21.41,-418.6C21.07,-477.25 21.93,-787.16 77,-860 79.77,-863.66 83.21,-866.77 87.01,-869.41"/>
<polygon fill="midnightblue" stroke="midnightblue" points="85.39,-872.52 95.8,-874.47 88.88,-866.45 85.39,-872.52"/>
</g>
<!-- Node19 -->
<g id="node19" class="node">
<title>Node19</title>
<g id="a_node19"><a xlink:href="idoso_8h.html#a3f54e9cc6f8cd2c53e2c3a09aefc32db" target="_top" xlink:title="Faz a alocacao de memoria e inicializacao de uma variavel do tipo Idoso.">
<polygon fill="none" stroke="black" points="100.5,-798.5 100.5,-817.5 169.5,-817.5 169.5,-798.5 100.5,-798.5"/>
<text text-anchor="middle" x="135" y="-805.5" font-family="Helvetica,sans-Serif" font-size="10.00">IniciaIdoso</text>
</a>
</g>
</g>
<!-- Node1&#45;&gt;Node19 -->
<g id="edge21" class="edge">
<title>Node1&#45;&gt;Node19</title>
<path fill="none" stroke="midnightblue" d="M21.13,-418.71C19.95,-460.39 19.22,-627.39 77,-746 85.72,-763.9 101.29,-780.3 113.96,-791.73"/>
<polygon fill="midnightblue" stroke="midnightblue" points="111.91,-794.59 121.76,-798.49 116.49,-789.3 111.91,-794.59"/>
</g>
<!-- Node20 -->
<g id="node20" class="node">
<title>Node20</title>
<g id="a_node20"><a xlink:href="lista_cuidador_8h.html#ac9664361693d2ac6ad17afb02d0af621" target="_top" xlink:title="Aloca e inicia uma lista de cuidadores com uma sentinela vazia.">
<polygon fill="none" stroke="black" points="248,-760.5 248,-779.5 330,-779.5 330,-760.5 248,-760.5"/>
<text text-anchor="middle" x="289" y="-767.5" font-family="Helvetica,sans-Serif" font-size="10.00">IniciaListaCui</text>
</a>
</g>
</g>
<!-- Node1&#45;&gt;Node20 -->
<g id="edge28" class="edge">
<title>Node1&#45;&gt;Node20</title>
<path fill="none" stroke="midnightblue" d="M22.13,-418.62C25.26,-463.36 40.37,-650.71 77,-694 117.15,-741.45 189.28,-759.28 237.89,-765.97"/>
<polygon fill="midnightblue" stroke="midnightblue" points="237.52,-769.45 247.88,-767.24 238.4,-762.51 237.52,-769.45"/>
</g>
<!-- Node21 -->
<g id="node21" class="node">
<title>Node21</title>
<g id="a_node21"><a xlink:href="lista_idoso_8h.html#a8db6232f56c31eabd4870f5c010710b6" target="_top" xlink:title="Aloca e inicia uma lista de Idosos com uma sentinela vazia.">
<polygon fill="none" stroke="black" points="243,-722.5 243,-741.5 335,-741.5 335,-722.5 243,-722.5"/>
<text text-anchor="middle" x="289" y="-729.5" font-family="Helvetica,sans-Serif" font-size="10.00">IniciaListaIdoso</text>
</a>
</g>
</g>
<!-- Node1&#45;&gt;Node21 -->
<g id="edge29" class="edge">
<title>Node1&#45;&gt;Node21</title>
<path fill="none" stroke="midnightblue" d="M22.58,-418.57C27.25,-458.41 46.84,-610.83 77,-647 115.96,-693.72 184.44,-714.99 232.79,-724.52"/>
<polygon fill="midnightblue" stroke="midnightblue" points="232.32,-728 242.79,-726.38 233.6,-721.11 232.32,-728"/>
</g>
<!-- Node23 -->
<g id="node23" class="node">
<title>Node23</title>
<g id="a_node23"><a xlink:href="lista_idoso_8h.html#a426b6b2ccb10e43ecff84f9a744c1c5c" target="_top" xlink:title="Cria o um laco de amizade, inserindo o amigo na lista de amigos um do outro Como amizades sao recipro...">
<polygon fill="none" stroke="black" points="90.5,-380.5 90.5,-399.5 179.5,-399.5 179.5,-380.5 90.5,-380.5"/>
<text text-anchor="middle" x="135" y="-387.5" font-family="Helvetica,sans-Serif" font-size="10.00">InsereAmizade</text>
</a>
</g>
</g>
<!-- Node1&#45;&gt;Node23 -->
<g id="edge30" class="edge">
<title>Node1&#45;&gt;Node23</title>
<path fill="none" stroke="midnightblue" d="M41.1,-405.69C52.04,-403.84 66.26,-401.44 80.27,-399.07"/>
<polygon fill="midnightblue" stroke="midnightblue" points="81.11,-402.48 90.38,-397.37 79.94,-395.58 81.11,-402.48"/>
</g>
<!-- Node26 -->
<g id="node26" class="node">
<title>Node26</title>
<g id="a_node26"><a xlink:href="lista_idoso_8h.html#aefc27e3a6b457254cdd0bb849ef2fbb8" target="_top" xlink:title="Insere o Idoso ao final da lista de idosos acessada.">
<polygon fill="none" stroke="black" points="389.5,-247.5 389.5,-266.5 485.5,-266.5 485.5,-247.5 389.5,-247.5"/>
<text text-anchor="middle" x="437.5" y="-254.5" font-family="Helvetica,sans-Serif" font-size="10.00">InsereListaIdoso</text>
</a>
</g>
</g>
<!-- Node1&#45;&gt;Node26 -->
<g id="edge38" class="edge">
<title>Node1&#45;&gt;Node26</title>
<path fill="none" stroke="midnightblue" d="M33.7,-399.26C44.58,-390.93 61.18,-379.04 77,-371 125.75,-346.23 152.11,-366.31 193,-330 220.05,-305.98 198.28,-276.1 229,-257 279.38,-225.67 350.8,-234.65 395.35,-245.04"/>
<polygon fill="midnightblue" stroke="midnightblue" points="394.7,-248.48 405.25,-247.48 396.38,-241.69 394.7,-248.48"/>
</g>
<!-- Node27 -->
<g id="node27" class="node">
<title>Node27</title>
<g id="a_node27"><a xlink:href="idoso_8h.html#aab10cd3a90c4c144a89041f24c9b148f" target="_top" xlink:title="Insere um novo cuidador a lista de cuidadores que o Idoso acessado pode requisitar.">
<polygon fill="none" stroke="black" points="77,-266.5 77,-285.5 193,-285.5 193,-266.5 77,-266.5"/>
<text text-anchor="middle" x="135" y="-273.5" font-family="Helvetica,sans-Serif" font-size="10.00">InsereCuidadorIdoso</text>
</a>
</g>
</g>
<!-- Node1&#45;&gt;Node27 -->
<g id="edge35" class="edge">
<title>Node1&#45;&gt;Node27</title>
<path fill="none" stroke="midnightblue" d="M23.93,-399.48C29.68,-378.68 46.06,-328.78 77,-300 81.13,-296.16 85.96,-292.89 91.03,-290.11"/>
<polygon fill="midnightblue" stroke="midnightblue" points="92.84,-293.12 100.33,-285.63 89.8,-286.82 92.84,-293.12"/>
</g>
<!-- Node28 -->
<g id="node28" class="node">
<title>Node28</title>
<g id="a_node28"><a xlink:href="lista_cuidador_8h.html#a8c1178c4c579b1d1950f0caa01f5ce41" target="_top" xlink:title="Insere o cuidador ao final da lista de cuidadores acessada.">
<polygon fill="none" stroke="black" points="246,-190.5 246,-209.5 332,-209.5 332,-190.5 246,-190.5"/>
<text text-anchor="middle" x="289" y="-197.5" font-family="Helvetica,sans-Serif" font-size="10.00">InsereListaCui</text>
</a>
</g>
</g>
<!-- Node1&#45;&gt;Node28 -->
<g id="edge37" class="edge">
<title>Node1&#45;&gt;Node28</title>
<path fill="none" stroke="midnightblue" d="M26.69,-399.34C35.26,-384.23 53.76,-354.99 77,-338 121.39,-305.56 151.96,-331.6 193,-295 219.41,-271.45 202.97,-247.96 229,-224 233.33,-220.02 238.4,-216.66 243.73,-213.83"/>
<polygon fill="midnightblue" stroke="midnightblue" points="245.27,-216.97 252.84,-209.55 242.3,-210.63 245.27,-216.97"/>
</g>
<!-- Node29 -->
<g id="node29" class="node">
<title>Node29</title>
<g id="a_node29"><a xlink:href="lista_cuidador_8h.html#af74176e22e075d1e490381dea9d5f83b" target="_top" xlink:title="Faz a iteracao da lista executando a funcao passada como parametro em cada elemento.">
<polygon fill="none" stroke="black" points="96,-228.5 96,-247.5 174,-247.5 174,-228.5 96,-228.5"/>
<text text-anchor="middle" x="135" y="-235.5" font-family="Helvetica,sans-Serif" font-size="10.00">IteraListaCui</text>
</a>
</g>
</g>
<!-- Node1&#45;&gt;Node29 -->
<g id="edge39" class="edge">
<title>Node1&#45;&gt;Node29</title>
<path fill="none" stroke="midnightblue" d="M22.2,-399.27C24.65,-372.62 35.1,-297.73 77,-257 79.86,-254.22 83.14,-251.84 86.66,-249.81"/>
<polygon fill="midnightblue" stroke="midnightblue" points="88.24,-252.93 95.75,-245.46 85.22,-246.62 88.24,-252.93"/>
</g>
<!-- Node30 -->
<g id="node30" class="node">
<title>Node30</title>
<g id="a_node30"><a xlink:href="lista_idoso_8h.html#ab57e33e1935c754283861a88e9586c76" target="_top" xlink:title="Faz a iteracao da lista executando a funcao passada como parametro em cada elemento.">
<polygon fill="none" stroke="black" points="90.5,-190.5 90.5,-209.5 179.5,-209.5 179.5,-190.5 90.5,-190.5"/>
<text text-anchor="middle" x="135" y="-197.5" font-family="Helvetica,sans-Serif" font-size="10.00">IteraListaIdoso</text>
</a>
</g>
</g>
<!-- Node1&#45;&gt;Node30 -->
<g id="edge40" class="edge">
<title>Node1&#45;&gt;Node30</title>
<path fill="none" stroke="midnightblue" d="M21.37,-399.18C21.52,-368.24 26.22,-271.72 77,-219 78.41,-217.53 79.94,-216.18 81.55,-214.93"/>
<polygon fill="midnightblue" stroke="midnightblue" points="83.62,-217.77 90.27,-209.52 79.93,-211.83 83.62,-217.77"/>
</g>
<!-- Node31 -->
<g id="node31" class="node">
<title>Node31</title>
<g id="a_node31"><a xlink:href="cuidador_8h.html#a6e4af23e054337b68d5037edeefa9c85" target="_top" xlink:title="Libera a memoria alocada para tal cuidador.">
<polygon fill="none" stroke="black" points="90,-152.5 90,-171.5 180,-171.5 180,-152.5 90,-152.5"/>
<text text-anchor="middle" x="135" y="-159.5" font-family="Helvetica,sans-Serif" font-size="10.00">LiberaCuidador</text>
</a>
</g>
</g>
<!-- Node1&#45;&gt;Node31 -->
<g id="edge41" class="edge">
<title>Node1&#45;&gt;Node31</title>
<path fill="none" stroke="midnightblue" d="M22.62,-399.24C27.3,-359.98 46.52,-214.12 77,-181 78.35,-179.53 79.82,-178.18 81.38,-176.93"/>
<polygon fill="midnightblue" stroke="midnightblue" points="83.29,-179.86 89.82,-171.51 79.51,-173.97 83.29,-179.86"/>
</g>
<!-- Node33 -->
<g id="node33" class="node">
<title>Node33</title>
<g id="a_node33"><a xlink:href="idoso_8h.html#a9f1fc433114612ab21373e245aa47712" target="_top" xlink:title="Libera a memoria alocada para a variavel de tipo Idoso.">
<polygon fill="none" stroke="black" points="98.5,-114.5 98.5,-133.5 171.5,-133.5 171.5,-114.5 98.5,-114.5"/>
<text text-anchor="middle" x="135" y="-121.5" font-family="Helvetica,sans-Serif" font-size="10.00">LiberaIdoso</text>
</a>
</g>
</g>
<!-- Node1&#45;&gt;Node33 -->
<g id="edge43" class="edge">
<title>Node1&#45;&gt;Node33</title>
<path fill="none" stroke="midnightblue" d="M22.24,-399.42C25.73,-356.52 41.87,-182.46 77,-143 80.34,-139.25 84.43,-136.24 88.88,-133.83"/>
<polygon fill="midnightblue" stroke="midnightblue" points="90.64,-136.88 98.38,-129.65 87.82,-130.47 90.64,-136.88"/>
</g>
<!-- Node34 -->
<g id="node34" class="node">
<title>Node34</title>
<g id="a_node34"><a xlink:href="lista_cuidador_8h.html#a86284060d805e7118ba0094834ff85db" target="_top" xlink:title="Libera a memoria alocada pela lista e suas celulas.">
<polygon fill="none" stroke="black" points="246,-105.5 246,-124.5 332,-124.5 332,-105.5 246,-105.5"/>
<text text-anchor="middle" x="289" y="-112.5" font-family="Helvetica,sans-Serif" font-size="10.00">LiberaListaCui</text>
</a>
</g>
</g>
<!-- Node1&#45;&gt;Node34 -->
<g id="edge47" class="edge">
<title>Node1&#45;&gt;Node34</title>
<path fill="none" stroke="midnightblue" d="M21.68,-399.37C22.8,-351.94 30.34,-143.91 77,-105 127.67,-62.75 211.32,-84.82 256.58,-101.67"/>
<polygon fill="midnightblue" stroke="midnightblue" points="255.57,-105.03 266.16,-105.38 258.09,-98.5 255.57,-105.03"/>
</g>
<!-- Node35 -->
<g id="node35" class="node">
<title>Node35</title>
<g id="a_node35"><a xlink:href="lista_idoso_8h.html#a6372ab13748fb8d78259a424fd21d986" target="_top" xlink:title="Libera a memoria alocada pela lista e suas celulas.">
<polygon fill="none" stroke="black" points="241,-48.5 241,-67.5 337,-67.5 337,-48.5 241,-48.5"/>
<text text-anchor="middle" x="289" y="-55.5" font-family="Helvetica,sans-Serif" font-size="10.00">LiberaListaIdoso</text>
</a>
</g>
</g>
<!-- Node1&#45;&gt;Node35 -->
<g id="edge48" class="edge">
<title>Node1&#45;&gt;Node35</title>
<path fill="none" stroke="midnightblue" d="M21.6,-399.25C22.31,-349.25 28.25,-122.19 77,-77 119.47,-37.63 189.51,-39.5 237.15,-46.78"/>
<polygon fill="midnightblue" stroke="midnightblue" points="236.81,-50.27 247.25,-48.45 237.96,-43.36 236.81,-50.27"/>
</g>
<!-- Node36 -->
<g id="node36" class="node">
<title>Node36</title>
<g id="a_node36"><a xlink:href="idoso_8h.html#a88452684585a131cdad194e145456e67" target="_top" xlink:title="Dadas as informacoes atualizadas do idoso, essa funcao eh responsavel por processar as informacoes ob...">
<polygon fill="none" stroke="black" points="92,-456.5 92,-475.5 178,-475.5 178,-456.5 92,-456.5"/>
<text text-anchor="middle" x="135" y="-463.5" font-family="Helvetica,sans-Serif" font-size="10.00">ProcessaIdoso</text>
</a>
</g>
</g>
<!-- Node1&#45;&gt;Node36 -->
<g id="edge49" class="edge">
<title>Node1&#45;&gt;Node36</title>
<path fill="none" stroke="midnightblue" d="M33.67,-418.81C44.52,-427.19 61.1,-439.1 77,-447 81.33,-449.15 85.95,-451.14 90.63,-452.97"/>
<polygon fill="midnightblue" stroke="midnightblue" points="89.62,-456.33 100.22,-456.47 92.03,-449.75 89.62,-456.33"/>
</g>
<!-- Node44 -->
<g id="node44" class="node">
<title>Node44</title>
<g id="a_node44"><a xlink:href="pathman_8h.html#a759e228c839cbdff1102432a69ad7e9e" target="_top" xlink:title="Trim path: remove caracteres do fim até o primeiro divisor (incluso), se o path terminar com o diviso...">
<polygon fill="none" stroke="black" points="115,-0.5 115,-19.5 155,-19.5 155,-0.5 115,-0.5"/>
<text text-anchor="middle" x="135" y="-7.5" font-family="Helvetica,sans-Serif" font-size="10.00">trpth</text>
</a>
</g>
</g>
<!-- Node1&#45;&gt;Node44 -->
<g id="edge60" class="edge">
<title>Node1&#45;&gt;Node44</title>
<path fill="none" stroke="midnightblue" d="M21.68,-399.35C22.85,-346.63 30.82,-93.55 77,-34 83.93,-25.06 94.81,-19.42 105.21,-15.87"/>
<polygon fill="midnightblue" stroke="midnightblue" points="106.26,-19.21 114.9,-13.07 104.32,-12.48 106.26,-19.21"/>
</g>
<!-- Node3 -->
<g id="node3" class="node">
<title>Node3</title>
<g id="a_node3"><a xlink:href="pathman_8c.html#a18886c8669c2a9541f75720f21bdb84c" target="_top" xlink:title="Extend path: adiciona uma string no final do caminho.">
<polygon fill="none" stroke="black" points="415.5,-912.5 415.5,-931.5 459.5,-931.5 459.5,-912.5 415.5,-912.5"/>
<text text-anchor="middle" x="437.5" y="-919.5" font-family="Helvetica,sans-Serif" font-size="10.00">expth</text>
</a>
</g>
</g>
<!-- Node2&#45;&gt;Node3 -->
<g id="edge2" class="edge">
<title>Node2&#45;&gt;Node3</title>
<path fill="none" stroke="midnightblue" d="M311.3,-922C335.93,-922 376.7,-922 405,-922"/>
<polygon fill="midnightblue" stroke="midnightblue" points="405.17,-925.5 415.17,-922 405.17,-918.5 405.17,-925.5"/>
</g>
<!-- Node5 -->
<g id="node5" class="node">
<title>Node5</title>
<g id="a_node5"><a xlink:href="cuidador_8c.html#a8eb550092858dafae62ebcc83fa99921" target="_top" xlink:title="Define o Local (de tipo Geoloc) do objeto Cuidador.">
<polygon fill="none" stroke="black" points="238.5,-684.5 238.5,-703.5 339.5,-703.5 339.5,-684.5 238.5,-684.5"/>
<text text-anchor="middle" x="289" y="-691.5" font-family="Helvetica,sans-Serif" font-size="10.00">SetLocalCuidador</text>
</a>
</g>
</g>
<!-- Node4&#45;&gt;Node5 -->
<g id="edge4" class="edge">
<title>Node4&#45;&gt;Node5</title>
<path fill="none" stroke="midnightblue" d="M153.1,-637.67C171.48,-647.81 201.72,-663.8 229,-675 234.23,-677.15 239.79,-679.21 245.33,-681.14"/>
<polygon fill="midnightblue" stroke="midnightblue" points="244.62,-684.59 255.21,-684.45 246.84,-677.95 244.62,-684.59"/>
</g>
<!-- Node6 -->
<g id="node6" class="node">
<title>Node6</title>
<g id="a_node6"><a xlink:href="geoloc_8h.html#ad15a017b73ab2909652b15b346373bb7" target="_top" xlink:title="Define a geolocalizacao dada para os valores de latitude e longitude passados.">
<polygon fill="none" stroke="black" points="397.5,-627.5 397.5,-646.5 477.5,-646.5 477.5,-627.5 397.5,-627.5"/>
<text text-anchor="middle" x="437.5" y="-634.5" font-family="Helvetica,sans-Serif" font-size="10.00">MudaPosGeo</text>
</a>
</g>
</g>
<!-- Node5&#45;&gt;Node6 -->
<g id="edge5" class="edge">
<title>Node5&#45;&gt;Node6</title>
<path fill="none" stroke="midnightblue" d="M321.74,-684.41C330.62,-681.56 340.24,-678.3 349,-675 368.43,-667.67 389.82,-658.41 406.59,-650.86"/>
<polygon fill="midnightblue" stroke="midnightblue" points="408.22,-653.96 415.87,-646.64 405.32,-647.59 408.22,-653.96"/>
</g>
<!-- Node8 -->
<g id="node8" class="node">
<title>Node8</title>
<g id="a_node8"><a xlink:href="idoso_8c.html#abcba8ce4d83ae423bb11438deb58b55e" target="_top" xlink:title="Incrementa o contador de febres baixas seguidas do Idoso.">
<polygon fill="none" stroke="black" points="244.5,-608.5 244.5,-627.5 333.5,-627.5 333.5,-608.5 244.5,-608.5"/>
<text text-anchor="middle" x="289" y="-615.5" font-family="Helvetica,sans-Serif" font-size="10.00">IncFebresIdoso</text>
</a>
</g>
</g>
<!-- Node7&#45;&gt;Node8 -->
<g id="edge7" class="edge">
<title>Node7&#45;&gt;Node8</title>
<path fill="none" stroke="midnightblue" d="M174.36,-589.59C194.32,-594.58 218.93,-600.73 240.13,-606.03"/>
<polygon fill="midnightblue" stroke="midnightblue" points="239.37,-609.45 249.92,-608.48 241.07,-602.66 239.37,-609.45"/>
</g>
<!-- Node9 -->
<g id="node9" class="node">
<title>Node9</title>
<g id="a_node9"><a xlink:href="idoso_8c.html#a074ec0beda9207173bb20248369d008e" target="_top" xlink:title="Zera o contador de febres baixas do Idoso.">
<polygon fill="none" stroke="black" points="237.5,-646.5 237.5,-665.5 340.5,-665.5 340.5,-646.5 237.5,-646.5"/>
<text text-anchor="middle" x="289" y="-653.5" font-family="Helvetica,sans-Serif" font-size="10.00">ResetFebresIdoso</text>
</a>
</g>
</g>
<!-- Node7&#45;&gt;Node9 -->
<g id="edge8" class="edge">
<title>Node7&#45;&gt;Node9</title>
<path fill="none" stroke="midnightblue" d="M157.1,-589.55C168.08,-594.81 181.57,-601.74 193,-609 210.11,-619.87 211.08,-627.53 229,-637 233.18,-639.21 237.66,-641.22 242.22,-643.04"/>
<polygon fill="midnightblue" stroke="midnightblue" points="241.02,-646.32 251.61,-646.49 243.44,-639.75 241.02,-646.32"/>
</g>
<!-- Node10 -->
<g id="node10" class="node">
<title>Node10</title>
<g id="a_node10"><a xlink:href="idoso_8c.html#a05c6062c3c814bfd4b9b219ccd09caa0" target="_top" xlink:title="Define uma nova Condicao ao Idoso.">
<polygon fill="none" stroke="black" points="237,-532.5 237,-551.5 341,-551.5 341,-532.5 237,-532.5"/>
<text text-anchor="middle" x="289" y="-539.5" font-family="Helvetica,sans-Serif" font-size="10.00">SetCondicaoIdoso</text>
</a>
</g>
</g>
<!-- Node7&#45;&gt;Node10 -->
<g id="edge9" class="edge">
<title>Node7&#45;&gt;Node10</title>
<path fill="none" stroke="midnightblue" d="M174.36,-570.41C194.32,-565.42 218.93,-559.27 240.13,-553.97"/>
<polygon fill="midnightblue" stroke="midnightblue" points="241.07,-557.34 249.92,-551.52 239.37,-550.55 241.07,-557.34"/>
</g>
<!-- Node11 -->
<g id="node11" class="node">
<title>Node11</title>
<g id="a_node11"><a xlink:href="idoso_8c.html#a73c41422fa6d8127dff69b6b02894fc1" target="_top" xlink:title="Define o Local do Idoso para as novas coordenadas.">
<polygon fill="none" stroke="black" points="247,-570.5 247,-589.5 331,-589.5 331,-570.5 247,-570.5"/>
<text text-anchor="middle" x="289" y="-577.5" font-family="Helvetica,sans-Serif" font-size="10.00">SetLocalIdoso</text>
</a>
</g>
</g>
<!-- Node7&#45;&gt;Node11 -->
<g id="edge10" class="edge">
<title>Node7&#45;&gt;Node11</title>
<path fill="none" stroke="midnightblue" d="M176.73,-580C195.14,-580 217.1,-580 236.63,-580"/>
<polygon fill="midnightblue" stroke="midnightblue" points="236.89,-583.5 246.89,-580 236.89,-576.5 236.89,-583.5"/>
</g>
<!-- Node11&#45;&gt;Node6 -->
<g id="edge11" class="edge">
<title>Node11&#45;&gt;Node6</title>
<path fill="none" stroke="midnightblue" d="M321.74,-589.59C330.62,-592.44 340.24,-595.7 349,-599 368.43,-606.33 389.82,-615.59 406.59,-623.14"/>
<polygon fill="midnightblue" stroke="midnightblue" points="405.32,-626.41 415.87,-627.36 408.22,-620.04 405.32,-626.41"/>
</g>
<!-- Node13 -->
<g id="node13" class="node">
<title>Node13</title>
<g id="a_node13"><a xlink:href="cuidador_8h.html#a2e1114aca6ce014765fcba5722825b2b" target="_top" xlink:title="Retorna o Nome do objeto Cuidador.">
<polygon fill="none" stroke="black" points="235.5,-494.5 235.5,-513.5 342.5,-513.5 342.5,-494.5 235.5,-494.5"/>
<text text-anchor="middle" x="289" y="-501.5" font-family="Helvetica,sans-Serif" font-size="10.00">GetNomeCuidador</text>
</a>
</g>
</g>
<!-- Node12&#45;&gt;Node13 -->
<g id="edge13" class="edge">
<title>Node12&#45;&gt;Node13</title>
<path fill="none" stroke="midnightblue" d="M177.53,-504C192.17,-504 208.97,-504 224.98,-504"/>
<polygon fill="midnightblue" stroke="midnightblue" points="225.36,-507.5 235.36,-504 225.36,-500.5 225.36,-507.5"/>
</g>
<!-- Node15 -->
<g id="node15" class="node">
<title>Node15</title>
<g id="a_node15"><a xlink:href="idoso_8h.html#ad410fb3330c4e9336dc048bb5c684b58" target="_top" xlink:title="Retorna o Nome do objeto Idoso.">
<polygon fill="none" stroke="black" points="393,-304.5 393,-323.5 482,-323.5 482,-304.5 393,-304.5"/>
<text text-anchor="middle" x="437.5" y="-311.5" font-family="Helvetica,sans-Serif" font-size="10.00">GetNomeIdoso</text>
</a>
</g>
</g>
<!-- Node14&#45;&gt;Node15 -->
<g id="edge15" class="edge">
<title>Node14&#45;&gt;Node15</title>
<path fill="none" stroke="midnightblue" d="M173.39,-418.47C180.19,-415.94 187.02,-412.81 193,-409 212.62,-396.5 209.05,-382.97 229,-371 254.81,-355.52 330.32,-336.95 382.75,-325.31"/>
<polygon fill="midnightblue" stroke="midnightblue" points="383.57,-328.71 392.58,-323.15 382.06,-321.87 383.57,-328.71"/>
</g>
<!-- Node17&#45;&gt;Node2 -->
<g id="edge18" class="edge">
<title>Node17&#45;&gt;Node2</title>
<path fill="none" stroke="midnightblue" d="M174.36,-893.59C199.94,-899.99 233.15,-908.29 257.05,-914.26"/>
<polygon fill="midnightblue" stroke="midnightblue" points="256.44,-917.72 266.99,-916.75 258.14,-910.93 256.44,-917.72"/>
</g>
<!-- Node17&#45;&gt;Node16 -->
<g id="edge19" class="edge">
<title>Node17&#45;&gt;Node16</title>
<path fill="none" stroke="midnightblue" d="M178.34,-884C203.21,-884 234.11,-884 256.77,-884"/>
<polygon fill="midnightblue" stroke="midnightblue" points="256.86,-887.5 266.86,-884 256.86,-880.5 256.86,-887.5"/>
</g>
<!-- Node18 -->
<g id="node18" class="node">
<title>Node18</title>
<g id="a_node18"><a xlink:href="geoloc_8h.html#afbcdcb86de07f57b99d242367e2a4a05" target="_top" xlink:title="Faz a alocacao de memoria e inicializacao de uma variavel do tipo Geoloc, responsavel por armazenas e...">
<polygon fill="none" stroke="black" points="258,-836.5 258,-855.5 320,-855.5 320,-836.5 258,-836.5"/>
<text text-anchor="middle" x="289" y="-843.5" font-family="Helvetica,sans-Serif" font-size="10.00">IniciaGeo</text>
</a>
</g>
</g>
<!-- Node17&#45;&gt;Node18 -->
<g id="edge20" class="edge">
<title>Node17&#45;&gt;Node18</title>
<path fill="none" stroke="midnightblue" d="M174.36,-874.41C196.88,-868.78 225.3,-861.67 248.09,-855.98"/>
<polygon fill="midnightblue" stroke="midnightblue" points="248.95,-859.37 257.8,-853.55 247.25,-852.58 248.95,-859.37"/>
</g>
<!-- Node19&#45;&gt;Node2 -->
<g id="edge22" class="edge">
<title>Node19&#45;&gt;Node2</title>
<path fill="none" stroke="midnightblue" d="M145.76,-817.6C157.18,-828.87 176.6,-848.15 193,-865 209.23,-881.67 209.31,-890.6 229,-903 237.49,-908.35 247.63,-912.32 257.08,-915.21"/>
<polygon fill="midnightblue" stroke="midnightblue" points="256.39,-918.65 266.96,-917.94 258.25,-911.9 256.39,-918.65"/>
</g>
<!-- Node19&#45;&gt;Node16 -->
<g id="edge23" class="edge">
<title>Node19&#45;&gt;Node16</title>
<path fill="none" stroke="midnightblue" d="M163.92,-817.53C173.5,-821.37 184.05,-826.26 193,-832 211.27,-843.72 210.24,-854.09 229,-865 237.61,-870.01 247.7,-873.88 257.08,-876.78"/>
<polygon fill="midnightblue" stroke="midnightblue" points="256.3,-880.19 266.88,-879.55 258.21,-873.46 256.3,-880.19"/>
</g>
<!-- Node19&#45;&gt;Node18 -->
<g id="edge24" class="edge">
<title>Node19&#45;&gt;Node18</title>
<path fill="none" stroke="midnightblue" d="M169.73,-816.43C192.85,-822.21 223.6,-829.9 247.96,-835.99"/>
<polygon fill="midnightblue" stroke="midnightblue" points="247.41,-839.46 257.96,-838.49 249.11,-832.67 247.41,-839.46"/>
</g>
<!-- Node19&#45;&gt;Node20 -->
<g id="edge25" class="edge">
<title>Node19&#45;&gt;Node20</title>
<path fill="none" stroke="midnightblue" d="M169.73,-799.57C190.38,-794.4 217.13,-787.72 239.96,-782.01"/>
<polygon fill="midnightblue" stroke="midnightblue" points="240.96,-785.37 249.81,-779.55 239.26,-778.58 240.96,-785.37"/>
</g>
<!-- Node19&#45;&gt;Node21 -->
<g id="edge26" class="edge">
<title>Node19&#45;&gt;Node21</title>
<path fill="none" stroke="midnightblue" d="M149.3,-798.44C166.86,-786.15 199.06,-764.76 229,-751 233.71,-748.84 238.73,-746.82 243.78,-744.96"/>
<polygon fill="midnightblue" stroke="midnightblue" points="245.17,-748.18 253.47,-741.6 242.87,-741.57 245.17,-748.18"/>
</g>
<!-- Node22 -->
<g id="node22" class="node">
<title>Node22</title>
<g id="a_node22"><a xlink:href="idoso_8c.html#ab7bfad24a236d31876f699b460e00f4d" target="_top" xlink:title="Define o Nome do objeto Idoso.">
<polygon fill="none" stroke="black" points="245,-798.5 245,-817.5 333,-817.5 333,-798.5 245,-798.5"/>
<text text-anchor="middle" x="289" y="-805.5" font-family="Helvetica,sans-Serif" font-size="10.00">SetNomeIdoso</text>
</a>
</g>
</g>
<!-- Node19&#45;&gt;Node22 -->
<g id="edge27" class="edge">
<title>Node19&#45;&gt;Node22</title>
<path fill="none" stroke="midnightblue" d="M169.73,-808C188.84,-808 213.16,-808 234.78,-808"/>
<polygon fill="midnightblue" stroke="midnightblue" points="234.81,-811.5 244.81,-808 234.81,-804.5 234.81,-811.5"/>
</g>
<!-- Node24 -->
<g id="node24" class="node">
<title>Node24</title>
<g id="a_node24"><a xlink:href="lista_idoso_8c.html#ae54bcb97b257f8edff6646cf71e1946d" target="_top" xlink:title="Busca na lista o Idoso que possui o nome informado e faz o retorno do mesmo, retornando nulo caso a l...">
<polygon fill="none" stroke="black" points="241.5,-304.5 241.5,-323.5 336.5,-323.5 336.5,-304.5 241.5,-304.5"/>
<text text-anchor="middle" x="289" y="-311.5" font-family="Helvetica,sans-Serif" font-size="10.00">BuscaListaIdoso</text>
</a>
</g>
</g>
<!-- Node23&#45;&gt;Node24 -->
<g id="edge31" class="edge">
<title>Node23&#45;&gt;Node24</title>
<path fill="none" stroke="midnightblue" d="M162.8,-380.4C172.58,-376.47 183.55,-371.53 193,-366 210.49,-355.76 211.45,-348.14 229,-338 235.65,-334.16 243.03,-330.64 250.26,-327.54"/>
<polygon fill="midnightblue" stroke="midnightblue" points="252,-330.61 259.94,-323.6 249.36,-324.13 252,-330.61"/>
</g>
<!-- Node25 -->
<g id="node25" class="node">
<title>Node25</title>
<g id="a_node25"><a xlink:href="idoso_8h.html#adead1c28f1b19683b8958019426a8aa2" target="_top" xlink:title="Insere um novo idoso a lista de amizades do Idoso acessado.">
<polygon fill="none" stroke="black" points="237,-266.5 237,-285.5 341,-285.5 341,-266.5 237,-266.5"/>
<text text-anchor="middle" x="289" y="-273.5" font-family="Helvetica,sans-Serif" font-size="10.00">InsereAmigoIdoso</text>
</a>
</g>
</g>
<!-- Node23&#45;&gt;Node25 -->
<g id="edge33" class="edge">
<title>Node23&#45;&gt;Node25</title>
<path fill="none" stroke="midnightblue" d="M169.68,-380.38C178,-376.85 186.4,-372.15 193,-366 218.89,-341.88 202.09,-317.97 229,-295 231.01,-293.29 233.17,-291.73 235.44,-290.31"/>
<polygon fill="midnightblue" stroke="midnightblue" points="237.39,-293.24 244.63,-285.51 234.14,-287.04 237.39,-293.24"/>
</g>
<!-- Node24&#45;&gt;Node15 -->
<g id="edge32" class="edge">
<title>Node24&#45;&gt;Node15</title>
<path fill="none" stroke="midnightblue" d="M336.76,-314C351.32,-314 367.49,-314 382.5,-314"/>
<polygon fill="midnightblue" stroke="midnightblue" points="382.68,-317.5 392.68,-314 382.68,-310.5 382.68,-317.5"/>
</g>
<!-- Node25&#45;&gt;Node26 -->
<g id="edge34" class="edge">
<title>Node25&#45;&gt;Node26</title>
<path fill="none" stroke="midnightblue" d="M341.24,-269.35C353.61,-267.75 366.9,-266.03 379.52,-264.39"/>
<polygon fill="midnightblue" stroke="midnightblue" points="379.99,-267.86 389.46,-263.1 379.09,-260.92 379.99,-267.86"/>
</g>
<!-- Node27&#45;&gt;Node28 -->
<g id="edge36" class="edge">
<title>Node27&#45;&gt;Node28</title>
<path fill="none" stroke="midnightblue" d="M172.28,-266.46C179.39,-263.89 186.62,-260.76 193,-257 211.71,-245.99 210.66,-235.61 229,-224 235.3,-220.02 242.36,-216.47 249.36,-213.4"/>
<polygon fill="midnightblue" stroke="midnightblue" points="250.87,-216.56 258.78,-209.52 248.2,-210.09 250.87,-216.56"/>
</g>
<!-- Node32 -->
<g id="node32" class="node">
<title>Node32</title>
<g id="a_node32"><a xlink:href="geoloc_8h.html#a1e2732e2aee467321c0e4df4f748aa65" target="_top" xlink:title="Libera a memoria alocada para a variavel de tipo Geoloc.">
<polygon fill="none" stroke="black" points="256,-152.5 256,-171.5 322,-171.5 322,-152.5 256,-152.5"/>
<text text-anchor="middle" x="289" y="-159.5" font-family="Helvetica,sans-Serif" font-size="10.00">LiberaGeo</text>
</a>
</g>
</g>
<!-- Node31&#45;&gt;Node32 -->
<g id="edge42" class="edge">
<title>Node31&#45;&gt;Node32</title>
<path fill="none" stroke="midnightblue" d="M180.37,-162C200.97,-162 225.33,-162 245.67,-162"/>
<polygon fill="midnightblue" stroke="midnightblue" points="245.9,-165.5 255.9,-162 245.9,-158.5 245.9,-165.5"/>
</g>
<!-- Node33&#45;&gt;Node32 -->
<g id="edge44" class="edge">
<title>Node33&#45;&gt;Node32</title>
<path fill="none" stroke="midnightblue" d="M171.64,-132.91C193.88,-138.47 222.62,-145.66 245.97,-151.49"/>
<polygon fill="midnightblue" stroke="midnightblue" points="245.4,-154.96 255.95,-153.99 247.1,-148.17 245.4,-154.96"/>
</g>
<!-- Node33&#45;&gt;Node34 -->
<g id="edge45" class="edge">
<title>Node33&#45;&gt;Node34</title>
<path fill="none" stroke="midnightblue" d="M171.64,-121.89C190.72,-120.76 214.57,-119.35 235.71,-118.1"/>
<polygon fill="midnightblue" stroke="midnightblue" points="236.06,-121.58 245.84,-117.5 235.65,-114.59 236.06,-121.58"/>
</g>
<!-- Node33&#45;&gt;Node35 -->
<g id="edge46" class="edge">
<title>Node33&#45;&gt;Node35</title>
<path fill="none" stroke="midnightblue" d="M158.1,-114.4C183.99,-103.16 227.08,-84.45 256.47,-71.69"/>
<polygon fill="midnightblue" stroke="midnightblue" points="258.09,-74.8 265.87,-67.61 255.3,-68.38 258.09,-74.8"/>
</g>
<!-- Node36&#45;&gt;Node10 -->
<g id="edge59" class="edge">
<title>Node36&#45;&gt;Node10</title>
<path fill="none" stroke="midnightblue" d="M173.39,-475.53C180.19,-478.06 187.02,-481.19 193,-485 212.62,-497.5 209.31,-510.6 229,-523 232.19,-525.01 235.62,-526.83 239.15,-528.46"/>
<polygon fill="midnightblue" stroke="midnightblue" points="238.1,-531.81 248.67,-532.39 240.76,-525.34 238.1,-531.81"/>
</g>
<!-- Node36&#45;&gt;Node13 -->
<g id="edge50" class="edge">
<title>Node36&#45;&gt;Node13</title>
<path fill="none" stroke="midnightblue" d="M174.36,-475.59C194.32,-480.58 218.93,-486.73 240.13,-492.03"/>
<polygon fill="midnightblue" stroke="midnightblue" points="239.37,-495.45 249.92,-494.48 241.07,-488.66 239.37,-495.45"/>
</g>
<!-- Node37 -->
<g id="node37" class="node">
<title>Node37</title>
<g id="a_node37"><a xlink:href="idoso_8c.html#ad410fb3330c4e9336dc048bb5c684b58" target="_top" xlink:title="Retorna o Nome do objeto Idoso.">
<polygon fill="none" stroke="black" points="244.5,-456.5 244.5,-475.5 333.5,-475.5 333.5,-456.5 244.5,-456.5"/>
<text text-anchor="middle" x="289" y="-463.5" font-family="Helvetica,sans-Serif" font-size="10.00">GetNomeIdoso</text>
</a>
</g>
</g>
<!-- Node36&#45;&gt;Node37 -->
<g id="edge51" class="edge">
<title>Node36&#45;&gt;Node37</title>
<path fill="none" stroke="midnightblue" d="M178.34,-466C195.6,-466 215.77,-466 234.07,-466"/>
<polygon fill="midnightblue" stroke="midnightblue" points="234.3,-469.5 244.3,-466 234.3,-462.5 234.3,-469.5"/>
</g>
<!-- Node38 -->
<g id="node38" class="node">
<title>Node38</title>
<g id="a_node38"><a xlink:href="lista_cuidador_8h.html#a199e3cfc61052c71a6afad55ba8d4e4c" target="_top" xlink:title="Retorna o cuidador mais proximo do ponto de referencia entre os presentes na lista.">
<polygon fill="none" stroke="black" points="229,-380.5 229,-399.5 349,-399.5 349,-380.5 229,-380.5"/>
<text text-anchor="middle" x="289" y="-387.5" font-family="Helvetica,sans-Serif" font-size="10.00">RetornaCuidadorProx</text>
</a>
</g>
</g>
<!-- Node36&#45;&gt;Node38 -->
<g id="edge52" class="edge">
<title>Node36&#45;&gt;Node38</title>
<path fill="none" stroke="midnightblue" d="M173.39,-456.47C180.19,-453.94 187.02,-450.81 193,-447 212.62,-434.5 209.31,-421.4 229,-409 232.19,-406.99 235.62,-405.17 239.15,-403.54"/>
<polygon fill="midnightblue" stroke="midnightblue" points="240.76,-406.66 248.67,-399.61 238.1,-400.19 240.76,-406.66"/>
</g>
<!-- Node41 -->
<g id="node41" class="node">
<title>Node41</title>
<g id="a_node41"><a xlink:href="lista_idoso_8h.html#afa97c09900abce26facf342d0a824599" target="_top" xlink:title="Retorna o Idoso mais proximo do ponto de referencia entre os presentes na lista.">
<polygon fill="none" stroke="black" points="237.5,-418.5 237.5,-437.5 340.5,-437.5 340.5,-418.5 237.5,-418.5"/>
<text text-anchor="middle" x="289" y="-425.5" font-family="Helvetica,sans-Serif" font-size="10.00">RetornaIdosoProx</text>
</a>
</g>
</g>
<!-- Node36&#45;&gt;Node41 -->
<g id="edge55" class="edge">
<title>Node36&#45;&gt;Node41</title>
<path fill="none" stroke="midnightblue" d="M174.36,-456.41C194.32,-451.42 218.93,-445.27 240.13,-439.97"/>
<polygon fill="midnightblue" stroke="midnightblue" points="241.07,-443.34 249.92,-437.52 239.37,-436.55 241.07,-443.34"/>
</g>
<!-- Node39 -->
<g id="node39" class="node">
<title>Node39</title>
<g id="a_node39"><a xlink:href="geoloc_8h.html#a58b31cb21ffe9fe839d9c2e0f69772a8" target="_top" xlink:title="Calcula a distancia entre duas localizacoes Retornando um double resultante do calculo.">
<polygon fill="none" stroke="black" points="399,-380.5 399,-399.5 476,-399.5 476,-380.5 399,-380.5"/>
<text text-anchor="middle" x="437.5" y="-387.5" font-family="Helvetica,sans-Serif" font-size="10.00">CalcDistGeo</text>
</a>
</g>
</g>
<!-- Node38&#45;&gt;Node39 -->
<g id="edge53" class="edge">
<title>Node38&#45;&gt;Node39</title>
<path fill="none" stroke="midnightblue" d="M349.16,-390C362.19,-390 375.84,-390 388.37,-390"/>
<polygon fill="midnightblue" stroke="midnightblue" points="388.6,-393.5 398.6,-390 388.6,-386.5 388.6,-393.5"/>
</g>
<!-- Node40 -->
<g id="node40" class="node">
<title>Node40</title>
<g id="a_node40"><a xlink:href="cuidador_8h.html#a0b02209f82186c9bd84ca27c3c01b58e" target="_top" xlink:title="Retorna o Local (de tipo Geoloc) do objeto Cuidador.">
<polygon fill="none" stroke="black" points="386,-342.5 386,-361.5 489,-361.5 489,-342.5 386,-342.5"/>
<text text-anchor="middle" x="437.5" y="-349.5" font-family="Helvetica,sans-Serif" font-size="10.00">GetLocalCuidador</text>
</a>
</g>
</g>
<!-- Node38&#45;&gt;Node40 -->
<g id="edge54" class="edge">
<title>Node38&#45;&gt;Node40</title>
<path fill="none" stroke="midnightblue" d="M326.97,-380.41C346.13,-375.44 369.71,-369.32 390.09,-364.04"/>
<polygon fill="midnightblue" stroke="midnightblue" points="391,-367.42 399.8,-361.52 389.24,-360.64 391,-367.42"/>
</g>
<!-- Node41&#45;&gt;Node39 -->
<g id="edge56" class="edge">
<title>Node41&#45;&gt;Node39</title>
<path fill="none" stroke="midnightblue" d="M326.97,-418.41C346.13,-413.44 369.71,-407.32 390.09,-402.04"/>
<polygon fill="midnightblue" stroke="midnightblue" points="391,-405.42 399.8,-399.52 389.24,-398.64 391,-405.42"/>
</g>
<!-- Node42 -->
<g id="node42" class="node">
<title>Node42</title>
<g id="a_node42"><a xlink:href="idoso_8h.html#a137d0f97f095286e4d25790507a52e61" target="_top" xlink:title="Retorna a condicao atual do idoso, respeitando a seguinte tabela &#45;2 = Bem morto &#45;1 = A informar,...">
<polygon fill="none" stroke="black" points="385,-456.5 385,-475.5 490,-475.5 490,-456.5 385,-456.5"/>
<text text-anchor="middle" x="437.5" y="-463.5" font-family="Helvetica,sans-Serif" font-size="10.00">GetCondicaoIdoso</text>
</a>
</g>
</g>
<!-- Node41&#45;&gt;Node42 -->
<g id="edge57" class="edge">
<title>Node41&#45;&gt;Node42</title>
<path fill="none" stroke="midnightblue" d="M326.97,-437.59C346.13,-442.56 369.71,-448.68 390.09,-453.96"/>
<polygon fill="midnightblue" stroke="midnightblue" points="389.24,-457.36 399.8,-456.48 391,-450.58 389.24,-457.36"/>
</g>
<!-- Node43 -->
<g id="node43" class="node">
<title>Node43</title>
<g id="a_node43"><a xlink:href="idoso_8h.html#a408d4574b54a20f17a044f55cd887fa6" target="_top" xlink:title="Retorna o Local do Idoso (Como Geoloc)">
<polygon fill="none" stroke="black" points="394.5,-418.5 394.5,-437.5 480.5,-437.5 480.5,-418.5 394.5,-418.5"/>
<text text-anchor="middle" x="437.5" y="-425.5" font-family="Helvetica,sans-Serif" font-size="10.00">GetLocalIdoso</text>
</a>
</g>
</g>
<!-- Node41&#45;&gt;Node43 -->
<g id="edge58" class="edge">
<title>Node41&#45;&gt;Node43</title>
<path fill="none" stroke="midnightblue" d="M340.83,-428C354.93,-428 370.25,-428 384.42,-428"/>
<polygon fill="midnightblue" stroke="midnightblue" points="384.5,-431.5 394.5,-428 384.5,-424.5 384.5,-431.5"/>
</g>
</g>
</svg>
