<?xml version="1.0" encoding="UTF-8" standalone="no"?>
<!DOCTYPE svg PUBLIC "-//W3C//DTD SVG 1.1//EN"
 "http://www.w3.org/Graphics/SVG/1.1/DTD/svg11.dtd">
<!-- Generated by graphviz version 2.50.0 (0)
 -->
<!-- Title: GetNomeCuidador Pages: 1 -->
<svg width="314pt" height="104pt"
 viewBox="0.00 0.00 314.00 104.00" xmlns="http://www.w3.org/2000/svg" xmlns:xlink="http://www.w3.org/1999/xlink">
<g id="graph0" class="graph" transform="scale(1 1) rotate(0) translate(4 100)">
<title>GetNomeCuidador</title>
<!-- Node1 -->
<g id="node1" class="node">
<title>Node1</title>
<g id="a_node1"><a xlink:title="Retorna o Nome do objeto Cuidador.">
<polygon fill="#bfbfbf" stroke="black" points="199,-38.5 199,-57.5 306,-57.5 306,-38.5 199,-38.5"/>
<text text-anchor="middle" x="252.5" y="-45.5" font-family="Helvetica,sans-Serif" font-size="10.00">GetNomeCuidador</text>
</a>
</g>
</g>
<!-- Node2 -->
<g id="node2" class="node">
<title>Node2</title>
<g id="a_node2"><a xlink:href="lista_cuidador_8h.html#a61dc6d98fd31091c9282d2cc26eb8ba3" target="_top" xlink:title="Busca na lista o cuidador que possui o nome informado e faz o retorno do mesmo, retornando nulo caso ...">
<polygon fill="none" stroke="black" points="77.5,-76.5 77.5,-95.5 162.5,-95.5 162.5,-76.5 77.5,-76.5"/>
<text text-anchor="middle" x="120" y="-83.5" font-family="Helvetica,sans-Serif" font-size="10.00">BuscaListaCui</text>
</a>
</g>
</g>
<!-- Node1&#45;&gt;Node2 -->
<g id="edge1" class="edge">
<title>Node1&#45;&gt;Node2</title>
<path fill="none" stroke="midnightblue" d="M208.95,-60.39C191.08,-65.59 170.61,-71.55 153.92,-76.41"/>
<polygon fill="midnightblue" stroke="midnightblue" points="209.95,-63.75 218.57,-57.59 207.99,-57.02 209.95,-63.75"/>
</g>
<!-- Node4 -->
<g id="node4" class="node">
<title>Node4</title>
<g id="a_node4"><a xlink:href="idoso_8h.html#a88452684585a131cdad194e145456e67" target="_top" xlink:title="Dadas as informacoes atualizadas do idoso, essa funcao eh responsavel por processar as informacoes ob...">
<polygon fill="none" stroke="black" points="77,-38.5 77,-57.5 163,-57.5 163,-38.5 77,-38.5"/>
<text text-anchor="middle" x="120" y="-45.5" font-family="Helvetica,sans-Serif" font-size="10.00">ProcessaIdoso</text>
</a>
</g>
</g>
<!-- Node1&#45;&gt;Node4 -->
<g id="edge3" class="edge">
<title>Node1&#45;&gt;Node4</title>
<path fill="none" stroke="midnightblue" d="M188.67,-48C179.99,-48 171.25,-48 163.07,-48"/>
<polygon fill="midnightblue" stroke="midnightblue" points="188.8,-51.5 198.8,-48 188.8,-44.5 188.8,-51.5"/>
</g>
<!-- Node5 -->
<g id="node5" class="node">
<title>Node5</title>
<g id="a_node5"><a xlink:href="lista_cuidador_8h.html#a905bee6c8eaa9c06af483d76dbbb01df" target="_top" xlink:title="Retira da lista o cuidador que possui o nome informado, caso nao tenha um cuidador com mesmo nome,...">
<polygon fill="none" stroke="black" points="77.5,-0.5 77.5,-19.5 162.5,-19.5 162.5,-0.5 77.5,-0.5"/>
<text text-anchor="middle" x="120" y="-7.5" font-family="Helvetica,sans-Serif" font-size="10.00">RetiraListaCui</text>
</a>
</g>
</g>
<!-- Node1&#45;&gt;Node5 -->
<g id="edge5" class="edge">
<title>Node1&#45;&gt;Node5</title>
<path fill="none" stroke="midnightblue" d="M208.95,-35.61C191.08,-30.41 170.61,-24.45 153.92,-19.59"/>
<polygon fill="midnightblue" stroke="midnightblue" points="207.99,-38.98 218.57,-38.41 209.95,-32.25 207.99,-38.98"/>
</g>
<!-- Node3 -->
<g id="node3" class="node">
<title>Node3</title>
<g id="a_node3"><a xlink:href="cliente_8c.html#a0ddf1224851353fc92bfbff6f499fa97" target="_top" xlink:title=" ">
<polygon fill="none" stroke="black" points="0,-57.5 0,-76.5 41,-76.5 41,-57.5 0,-57.5"/>
<text text-anchor="middle" x="20.5" y="-64.5" font-family="Helvetica,sans-Serif" font-size="10.00">main</text>
</a>
</g>
</g>
<!-- Node2&#45;&gt;Node3 -->
<g id="edge2" class="edge">
<title>Node2&#45;&gt;Node3</title>
<path fill="none" stroke="midnightblue" d="M67.53,-75.97C58.08,-74.13 48.77,-72.31 41.02,-70.8"/>
<polygon fill="midnightblue" stroke="midnightblue" points="66.88,-79.41 77.37,-77.89 68.22,-72.54 66.88,-79.41"/>
</g>
<!-- Node4&#45;&gt;Node3 -->
<g id="edge4" class="edge">
<title>Node4&#45;&gt;Node3</title>
<path fill="none" stroke="midnightblue" d="M66.82,-58.17C57.62,-59.96 48.58,-61.72 41.03,-63.19"/>
<polygon fill="midnightblue" stroke="midnightblue" points="67.66,-61.57 76.8,-56.22 66.32,-54.7 67.66,-61.57"/>
</g>
</g>
</svg>
