<?xml version="1.0" encoding="UTF-8" standalone="no"?>
<!DOCTYPE svg PUBLIC "-//W3C//DTD SVG 1.1//EN"
 "http://www.w3.org/Graphics/SVG/1.1/DTD/svg11.dtd">
<!-- Generated by graphviz version 2.50.0 (0)
 -->
<!-- Title: src/cuidador.c Pages: 1 -->
<svg width="412pt" height="140pt"
 viewBox="0.00 0.00 412.00 140.00" xmlns="http://www.w3.org/2000/svg" xmlns:xlink="http://www.w3.org/1999/xlink">
<g id="graph0" class="graph" transform="scale(1 1) rotate(0) translate(4 136)">
<title>src/cuidador.c</title>
<!-- Node1 -->
<g id="node1" class="node">
<title>Node1</title>
<g id="a_node1"><a xlink:title=" ">
<polygon fill="#bfbfbf" stroke="black" points="156,-112.5 156,-131.5 239,-131.5 239,-112.5 156,-112.5"/>
<text text-anchor="middle" x="197.5" y="-119.5" font-family="Helvetica,sans-Serif" font-size="10.00">src/cuidador.c</text>
</a>
</g>
</g>
<!-- Node2 -->
<g id="node2" class="node">
<title>Node2</title>
<g id="a_node2"><a xlink:href="cuidador_8h.html" target="_top" xlink:title=" ">
<polygon fill="none" stroke="black" points="0,-56.5 0,-75.5 67,-75.5 67,-56.5 0,-56.5"/>
<text text-anchor="middle" x="33.5" y="-63.5" font-family="Helvetica,sans-Serif" font-size="10.00">cuidador.h</text>
</a>
</g>
</g>
<!-- Node1&#45;&gt;Node2 -->
<g id="edge1" class="edge">
<title>Node1&#45;&gt;Node2</title>
<path fill="none" stroke="midnightblue" d="M171.51,-112.44C143.8,-103.32 99.75,-88.81 68.88,-78.65"/>
<polygon fill="midnightblue" stroke="midnightblue" points="69.96,-75.32 59.36,-75.52 67.77,-81.97 69.96,-75.32"/>
</g>
<!-- Node3 -->
<g id="node3" class="node">
<title>Node3</title>
<g id="a_node3"><a xlink:href="geoloc_8h.html" target="_top" xlink:title=" ">
<polygon fill="none" stroke="black" points="35.5,-0.5 35.5,-19.5 93.5,-19.5 93.5,-0.5 35.5,-0.5"/>
<text text-anchor="middle" x="64.5" y="-7.5" font-family="Helvetica,sans-Serif" font-size="10.00">geoloc.h</text>
</a>
</g>
</g>
<!-- Node1&#45;&gt;Node3 -->
<g id="edge3" class="edge">
<title>Node1&#45;&gt;Node3</title>
<path fill="none" stroke="midnightblue" d="M176.52,-112.35C159.03,-104.5 134.07,-91.76 115.5,-76 99.33,-62.28 84.82,-42.72 75.45,-28.65"/>
<polygon fill="midnightblue" stroke="midnightblue" points="78.19,-26.43 69.83,-19.92 72.3,-30.22 78.19,-26.43"/>
</g>
<!-- Node4 -->
<g id="node4" class="node">
<title>Node4</title>
<g id="a_node4"><a xlink:href="pathman_8h.html" target="_top" xlink:title=" ">
<polygon fill="none" stroke="black" points="124,-56.5 124,-75.5 193,-75.5 193,-56.5 124,-56.5"/>
<text text-anchor="middle" x="158.5" y="-63.5" font-family="Helvetica,sans-Serif" font-size="10.00">pathman.h</text>
</a>
</g>
</g>
<!-- Node1&#45;&gt;Node4 -->
<g id="edge4" class="edge">
<title>Node1&#45;&gt;Node4</title>
<path fill="none" stroke="midnightblue" d="M191.06,-112.08C185.55,-104.46 177.47,-93.26 170.74,-83.94"/>
<polygon fill="midnightblue" stroke="midnightblue" points="173.51,-81.81 164.82,-75.75 167.84,-85.91 173.51,-81.81"/>
</g>
<!-- Node5 -->
<g id="node5" class="node">
<title>Node5</title>
<g id="a_node5"><a xlink:title=" ">
<polygon fill="none" stroke="#bfbfbf" points="211.5,-56.5 211.5,-75.5 261.5,-75.5 261.5,-56.5 211.5,-56.5"/>
<text text-anchor="middle" x="236.5" y="-63.5" font-family="Helvetica,sans-Serif" font-size="10.00">stdio.h</text>
</a>
</g>
</g>
<!-- Node1&#45;&gt;Node5 -->
<g id="edge5" class="edge">
<title>Node1&#45;&gt;Node5</title>
<path fill="none" stroke="midnightblue" d="M203.94,-112.08C209.45,-104.46 217.53,-93.26 224.26,-83.94"/>
<polygon fill="midnightblue" stroke="midnightblue" points="227.16,-85.91 230.18,-75.75 221.49,-81.81 227.16,-85.91"/>
</g>
<!-- Node6 -->
<g id="node6" class="node">
<title>Node6</title>
<g id="a_node6"><a xlink:title=" ">
<polygon fill="none" stroke="#bfbfbf" points="280,-56.5 280,-75.5 333,-75.5 333,-56.5 280,-56.5"/>
<text text-anchor="middle" x="306.5" y="-63.5" font-family="Helvetica,sans-Serif" font-size="10.00">stdlib.h</text>
</a>
</g>
</g>
<!-- Node1&#45;&gt;Node6 -->
<g id="edge6" class="edge">
<title>Node1&#45;&gt;Node6</title>
<path fill="none" stroke="midnightblue" d="M215.01,-112.32C232.57,-103.62 259.83,-90.12 280.03,-80.11"/>
<polygon fill="midnightblue" stroke="midnightblue" points="281.62,-83.23 289.03,-75.65 278.52,-76.96 281.62,-83.23"/>
</g>
<!-- Node7 -->
<g id="node7" class="node">
<title>Node7</title>
<g id="a_node7"><a xlink:title=" ">
<polygon fill="none" stroke="#bfbfbf" points="351,-56.5 351,-75.5 404,-75.5 404,-56.5 351,-56.5"/>
<text text-anchor="middle" x="377.5" y="-63.5" font-family="Helvetica,sans-Serif" font-size="10.00">string.h</text>
</a>
</g>
</g>
<!-- Node1&#45;&gt;Node7 -->
<g id="edge7" class="edge">
<title>Node1&#45;&gt;Node7</title>
<path fill="none" stroke="midnightblue" d="M226.02,-112.44C257.11,-103.12 306.93,-88.17 340.88,-77.99"/>
<polygon fill="midnightblue" stroke="midnightblue" points="342.3,-81.21 350.87,-74.99 340.29,-74.51 342.3,-81.21"/>
</g>
<!-- Node2&#45;&gt;Node3 -->
<g id="edge2" class="edge">
<title>Node2&#45;&gt;Node3</title>
<path fill="none" stroke="midnightblue" d="M38.62,-56.08C42.91,-48.61 49.16,-37.72 54.44,-28.52"/>
<polygon fill="midnightblue" stroke="midnightblue" points="57.53,-30.17 59.48,-19.75 51.46,-26.68 57.53,-30.17"/>
</g>
</g>
</svg>
