<?xml version="1.0" encoding="UTF-8" standalone="no"?>
<!DOCTYPE svg PUBLIC "-//W3C//DTD SVG 1.1//EN"
 "http://www.w3.org/Graphics/SVG/1.1/DTD/svg11.dtd">
<!-- Generated by graphviz version 2.50.0 (0)
 -->
<!-- Title: headers/cuidador.h Pages: 1 -->
<svg width="565pt" height="196pt"
 viewBox="0.00 0.00 565.00 196.00" xmlns="http://www.w3.org/2000/svg" xmlns:xlink="http://www.w3.org/1999/xlink">
<g id="graph0" class="graph" transform="scale(1 1) rotate(0) translate(4 192)">
<title>headers/cuidador.h</title>
<!-- Node1 -->
<g id="node1" class="node">
<title>Node1</title>
<g id="a_node1"><a xlink:title=" ">
<polygon fill="#bfbfbf" stroke="black" points="272,-168.5 272,-187.5 381,-187.5 381,-168.5 272,-168.5"/>
<text text-anchor="middle" x="326.5" y="-175.5" font-family="Helvetica,sans-Serif" font-size="10.00">headers/cuidador.h</text>
</a>
</g>
</g>
<!-- Node2 -->
<g id="node2" class="node">
<title>Node2</title>
<g id="a_node2"><a xlink:href="idoso_8h.html" target="_top" xlink:title=" ">
<polygon fill="none" stroke="black" points="279.5,-112.5 279.5,-131.5 373.5,-131.5 373.5,-112.5 279.5,-112.5"/>
<text text-anchor="middle" x="326.5" y="-119.5" font-family="Helvetica,sans-Serif" font-size="10.00">headers/idoso.h</text>
</a>
</g>
</g>
<!-- Node1&#45;&gt;Node2 -->
<g id="edge1" class="edge">
<title>Node1&#45;&gt;Node2</title>
<path fill="none" stroke="midnightblue" d="M326.5,-157.8C326.5,-148.91 326.5,-138.78 326.5,-131.75"/>
<polygon fill="midnightblue" stroke="midnightblue" points="323,-158.08 326.5,-168.08 330,-158.08 323,-158.08"/>
</g>
<!-- Node4 -->
<g id="node4" class="node">
<title>Node4</title>
<g id="a_node4"><a xlink:href="cliente_8c.html" target="_top" xlink:title=" ">
<polygon fill="none" stroke="black" points="149,-0.5 149,-19.5 224,-19.5 224,-0.5 149,-0.5"/>
<text text-anchor="middle" x="186.5" y="-7.5" font-family="Helvetica,sans-Serif" font-size="10.00">src/cliente.c</text>
</a>
</g>
</g>
<!-- Node1&#45;&gt;Node4 -->
<g id="edge13" class="edge">
<title>Node1&#45;&gt;Node4</title>
<path fill="none" stroke="midnightblue" d="M299.66,-163.52C269.91,-147.1 222.9,-116.47 198.5,-76 187.71,-58.12 186.2,-32.81 186.22,-19.67"/>
<polygon fill="midnightblue" stroke="midnightblue" points="298.2,-166.71 308.66,-168.35 301.5,-160.54 298.2,-166.71"/>
</g>
<!-- Node5 -->
<g id="node5" class="node">
<title>Node5</title>
<g id="a_node5"><a xlink:href="idoso_8c.html" target="_top" xlink:title=" ">
<polygon fill="none" stroke="black" points="366.5,-0.5 366.5,-19.5 434.5,-19.5 434.5,-0.5 366.5,-0.5"/>
<text text-anchor="middle" x="400.5" y="-7.5" font-family="Helvetica,sans-Serif" font-size="10.00">src/idoso.c</text>
</a>
</g>
</g>
<!-- Node1&#45;&gt;Node5 -->
<g id="edge15" class="edge">
<title>Node1&#45;&gt;Node5</title>
<path fill="none" stroke="midnightblue" d="M351.51,-162.91C362.8,-155.25 375.2,-144.72 382.5,-132 403.95,-94.6 402.7,-40.43 401.26,-19.6"/>
<polygon fill="midnightblue" stroke="midnightblue" points="349.39,-160.12 342.83,-168.44 353.14,-166.03 349.39,-160.12"/>
</g>
<!-- Node7 -->
<g id="node7" class="node">
<title>Node7</title>
<g id="a_node7"><a xlink:href="lista_cuidador_8h.html" target="_top" xlink:title=" ">
<polygon fill="none" stroke="black" points="0,-56.5 0,-75.5 131,-75.5 131,-56.5 0,-56.5"/>
<text text-anchor="middle" x="65.5" y="-63.5" font-family="Helvetica,sans-Serif" font-size="10.00">headers/listaCuidador.h</text>
</a>
</g>
</g>
<!-- Node1&#45;&gt;Node7 -->
<g id="edge9" class="edge">
<title>Node1&#45;&gt;Node7</title>
<path fill="none" stroke="midnightblue" d="M261.39,-167.93C225.82,-161.26 181.76,-150.1 145.5,-132 115.72,-117.13 86.98,-89.56 73.49,-75.59"/>
<polygon fill="midnightblue" stroke="midnightblue" points="261.2,-171.46 271.66,-169.78 262.44,-164.57 261.2,-171.46"/>
</g>
<!-- Node9 -->
<g id="node9" class="node">
<title>Node9</title>
<g id="a_node9"><a xlink:href="cuidador_8c.html" target="_top" xlink:title=" ">
<polygon fill="none" stroke="black" points="474,-112.5 474,-131.5 557,-131.5 557,-112.5 474,-112.5"/>
<text text-anchor="middle" x="515.5" y="-119.5" font-family="Helvetica,sans-Serif" font-size="10.00">src/cuidador.c</text>
</a>
</g>
</g>
<!-- Node1&#45;&gt;Node9 -->
<g id="edge14" class="edge">
<title>Node1&#45;&gt;Node9</title>
<path fill="none" stroke="midnightblue" d="M366.51,-165.57C402.17,-155.38 453.54,-140.7 485.69,-131.52"/>
<polygon fill="midnightblue" stroke="midnightblue" points="365.1,-162.33 356.45,-168.44 367.02,-169.06 365.1,-162.33"/>
</g>
<!-- Node3 -->
<g id="node3" class="node">
<title>Node3</title>
<g id="a_node3"><a xlink:href="lista_idoso_8h.html" target="_top" xlink:title=" ">
<polygon fill="none" stroke="black" points="226,-56.5 226,-75.5 341,-75.5 341,-56.5 226,-56.5"/>
<text text-anchor="middle" x="283.5" y="-63.5" font-family="Helvetica,sans-Serif" font-size="10.00">headers/listaIdoso.h</text>
</a>
</g>
</g>
<!-- Node2&#45;&gt;Node3 -->
<g id="edge2" class="edge">
<title>Node2&#45;&gt;Node3</title>
<path fill="none" stroke="midnightblue" d="M313.08,-104.14C305.59,-94.74 296.56,-83.4 290.47,-75.75"/>
<polygon fill="midnightblue" stroke="midnightblue" points="310.43,-106.44 319.4,-112.08 315.91,-102.08 310.43,-106.44"/>
</g>
<!-- Node2&#45;&gt;Node4 -->
<g id="edge6" class="edge">
<title>Node2&#45;&gt;Node4</title>
<path fill="none" stroke="midnightblue" d="M278.23,-109.48C257.53,-102.56 234.3,-91.93 217.5,-76 200.8,-60.17 192.09,-33.52 188.52,-19.78"/>
<polygon fill="midnightblue" stroke="midnightblue" points="277.25,-112.84 287.84,-112.49 279.34,-106.16 277.25,-112.84"/>
</g>
<!-- Node2&#45;&gt;Node5 -->
<g id="edge7" class="edge">
<title>Node2&#45;&gt;Node5</title>
<path fill="none" stroke="midnightblue" d="M342.15,-104.73C349.67,-96.47 358.54,-86.08 365.5,-76 378.6,-57.01 390.58,-32.59 396.54,-19.76"/>
<polygon fill="midnightblue" stroke="midnightblue" points="339.46,-102.48 335.19,-112.18 344.57,-107.25 339.46,-102.48"/>
</g>
<!-- Node6 -->
<g id="node6" class="node">
<title>Node6</title>
<g id="a_node6"><a xlink:href="lista_idoso_8c.html" target="_top" xlink:title=" ">
<polygon fill="none" stroke="black" points="246,-0.5 246,-19.5 335,-19.5 335,-0.5 246,-0.5"/>
<text text-anchor="middle" x="290.5" y="-7.5" font-family="Helvetica,sans-Serif" font-size="10.00">src/listaIdoso.c</text>
</a>
</g>
</g>
<!-- Node2&#45;&gt;Node6 -->
<g id="edge8" class="edge">
<title>Node2&#45;&gt;Node6</title>
<path fill="none" stroke="midnightblue" d="M340.29,-104.08C349.41,-90.71 358.37,-71.74 350.5,-56 342.06,-39.11 323.93,-26.92 309.8,-19.52"/>
<polygon fill="midnightblue" stroke="midnightblue" points="337.31,-102.22 334.15,-112.34 342.93,-106.4 337.31,-102.22"/>
</g>
<!-- Node3&#45;&gt;Node4 -->
<g id="edge3" class="edge">
<title>Node3&#45;&gt;Node4</title>
<path fill="none" stroke="midnightblue" d="M259.16,-51.45C241.26,-41.48 217.45,-28.23 202.05,-19.65"/>
<polygon fill="midnightblue" stroke="midnightblue" points="257.48,-54.52 267.92,-56.32 260.88,-48.4 257.48,-54.52"/>
</g>
<!-- Node3&#45;&gt;Node5 -->
<g id="edge4" class="edge">
<title>Node3&#45;&gt;Node5</title>
<path fill="none" stroke="midnightblue" d="M311.16,-52.23C333.05,-42.13 363,-28.31 382.05,-19.52"/>
<polygon fill="midnightblue" stroke="midnightblue" points="309.65,-49.08 302.04,-56.44 312.59,-55.43 309.65,-49.08"/>
</g>
<!-- Node3&#45;&gt;Node6 -->
<g id="edge5" class="edge">
<title>Node3&#45;&gt;Node6</title>
<path fill="none" stroke="midnightblue" d="M285.95,-46.1C287.11,-37.14 288.44,-26.86 289.37,-19.75"/>
<polygon fill="midnightblue" stroke="midnightblue" points="282.47,-45.72 284.66,-56.08 289.41,-46.62 282.47,-45.72"/>
</g>
<!-- Node7&#45;&gt;Node4 -->
<g id="edge10" class="edge">
<title>Node7&#45;&gt;Node4</title>
<path fill="none" stroke="midnightblue" d="M93.81,-52.37C116.47,-42.26 147.63,-28.35 167.42,-19.52"/>
<polygon fill="midnightblue" stroke="midnightblue" points="92.38,-49.17 84.67,-56.44 95.23,-55.56 92.38,-49.17"/>
</g>
<!-- Node7&#45;&gt;Node5 -->
<g id="edge11" class="edge">
<title>Node7&#45;&gt;Node5</title>
<path fill="none" stroke="midnightblue" d="M128.66,-54.82C199.02,-43.48 310.22,-25.55 366.08,-16.55"/>
<polygon fill="midnightblue" stroke="midnightblue" points="127.9,-51.4 118.58,-56.44 129.01,-58.31 127.9,-51.4"/>
</g>
<!-- Node8 -->
<g id="node8" class="node">
<title>Node8</title>
<g id="a_node8"><a xlink:href="lista_cuidador_8c.html" target="_top" xlink:title=" ">
<polygon fill="none" stroke="black" points="12.5,-0.5 12.5,-19.5 118.5,-19.5 118.5,-0.5 12.5,-0.5"/>
<text text-anchor="middle" x="65.5" y="-7.5" font-family="Helvetica,sans-Serif" font-size="10.00">src/listaCuidador.c</text>
</a>
</g>
</g>
<!-- Node7&#45;&gt;Node8 -->
<g id="edge12" class="edge">
<title>Node7&#45;&gt;Node8</title>
<path fill="none" stroke="midnightblue" d="M65.5,-45.8C65.5,-36.91 65.5,-26.78 65.5,-19.75"/>
<polygon fill="midnightblue" stroke="midnightblue" points="62,-46.08 65.5,-56.08 69,-46.08 62,-46.08"/>
</g>
</g>
</svg>
