<?xml version="1.0" encoding="UTF-8" standalone="no"?>
<!DOCTYPE svg PUBLIC "-//W3C//DTD SVG 1.1//EN"
 "http://www.w3.org/Graphics/SVG/1.1/DTD/svg11.dtd">
<!-- Generated by graphviz version 2.50.0 (0)
 -->
<!-- Title: GetLocalCuidador Pages: 1 -->
<svg width="466pt" height="28pt"
 viewBox="0.00 0.00 466.00 28.00" xmlns="http://www.w3.org/2000/svg" xmlns:xlink="http://www.w3.org/1999/xlink">
<g id="graph0" class="graph" transform="scale(1 1) rotate(0) translate(4 24)">
<title>GetLocalCuidador</title>
<!-- Node1 -->
<g id="node1" class="node">
<title>Node1</title>
<g id="a_node1"><a xlink:title="Retorna o Local (de tipo Geoloc) do objeto Cuidador.">
<polygon fill="#bfbfbf" stroke="black" points="355,-0.5 355,-19.5 458,-19.5 458,-0.5 355,-0.5"/>
<text text-anchor="middle" x="406.5" y="-7.5" font-family="Helvetica,sans-Serif" font-size="10.00">GetLocalCuidador</text>
</a>
</g>
</g>
<!-- Node2 -->
<g id="node2" class="node">
<title>Node2</title>
<g id="a_node2"><a xlink:href="lista_cuidador_8h.html#a199e3cfc61052c71a6afad55ba8d4e4c" target="_top" xlink:title="Retorna o cuidador mais proximo do ponto de referencia entre os presentes na lista.">
<polygon fill="none" stroke="black" points="199,-0.5 199,-19.5 319,-19.5 319,-0.5 199,-0.5"/>
<text text-anchor="middle" x="259" y="-7.5" font-family="Helvetica,sans-Serif" font-size="10.00">RetornaCuidadorProx</text>
</a>
</g>
</g>
<!-- Node1&#45;&gt;Node2 -->
<g id="edge1" class="edge">
<title>Node1&#45;&gt;Node2</title>
<path fill="none" stroke="midnightblue" d="M344.49,-10C336.08,-10 327.46,-10 319.09,-10"/>
<polygon fill="midnightblue" stroke="midnightblue" points="344.61,-13.5 354.61,-10 344.61,-6.5 344.61,-13.5"/>
</g>
<!-- Node3 -->
<g id="node3" class="node">
<title>Node3</title>
<g id="a_node3"><a xlink:href="idoso_8h.html#a88452684585a131cdad194e145456e67" target="_top" xlink:title="Dadas as informacoes atualizadas do idoso, essa funcao eh responsavel por processar as informacoes ob...">
<polygon fill="none" stroke="black" points="77,-0.5 77,-19.5 163,-19.5 163,-0.5 77,-0.5"/>
<text text-anchor="middle" x="120" y="-7.5" font-family="Helvetica,sans-Serif" font-size="10.00">ProcessaIdoso</text>
</a>
</g>
</g>
<!-- Node2&#45;&gt;Node3 -->
<g id="edge2" class="edge">
<title>Node2&#45;&gt;Node3</title>
<path fill="none" stroke="midnightblue" d="M188.52,-10C179.82,-10 171.15,-10 163.05,-10"/>
<polygon fill="midnightblue" stroke="midnightblue" points="188.71,-13.5 198.71,-10 188.71,-6.5 188.71,-13.5"/>
</g>
<!-- Node4 -->
<g id="node4" class="node">
<title>Node4</title>
<g id="a_node4"><a xlink:href="cliente_8c.html#a0ddf1224851353fc92bfbff6f499fa97" target="_top" xlink:title=" ">
<polygon fill="none" stroke="black" points="0,-0.5 0,-19.5 41,-19.5 41,-0.5 0,-0.5"/>
<text text-anchor="middle" x="20.5" y="-7.5" font-family="Helvetica,sans-Serif" font-size="10.00">main</text>
</a>
</g>
</g>
<!-- Node3&#45;&gt;Node4 -->
<g id="edge3" class="edge">
<title>Node3&#45;&gt;Node4</title>
<path fill="none" stroke="midnightblue" d="M66.52,-10C57.42,-10 48.5,-10 41.03,-10"/>
<polygon fill="midnightblue" stroke="midnightblue" points="66.8,-13.5 76.8,-10 66.8,-6.5 66.8,-13.5"/>
</g>
</g>
</svg>
