<?xml version="1.0" encoding="UTF-8" standalone="no"?>
<!DOCTYPE svg PUBLIC "-//W3C//DTD SVG 1.1//EN"
 "http://www.w3.org/Graphics/SVG/1.1/DTD/svg11.dtd">
<!-- Generated by graphviz version 2.50.0 (0)
 -->
<!-- Title: CalcDistGeo Pages: 1 -->
<svg width="440pt" height="66pt"
 viewBox="0.00 0.00 440.00 66.00" xmlns="http://www.w3.org/2000/svg" xmlns:xlink="http://www.w3.org/1999/xlink">
<g id="graph0" class="graph" transform="scale(1 1) rotate(0) translate(4 62)">
<title>CalcDistGeo</title>
<!-- Node1 -->
<g id="node1" class="node">
<title>Node1</title>
<g id="a_node1"><a xlink:title="Calcula a distancia entre duas localizacoes Retornando um double resultante do calculo.">
<polygon fill="#bfbfbf" stroke="black" points="355,-19.5 355,-38.5 432,-38.5 432,-19.5 355,-19.5"/>
<text text-anchor="middle" x="393.5" y="-26.5" font-family="Helvetica,sans-Serif" font-size="10.00">CalcDistGeo</text>
</a>
</g>
</g>
<!-- Node2 -->
<g id="node2" class="node">
<title>Node2</title>
<g id="a_node2"><a xlink:href="lista_cuidador_8h.html#a199e3cfc61052c71a6afad55ba8d4e4c" target="_top" xlink:title="Retorna o cuidador mais proximo do ponto de referencia entre os presentes na lista.">
<polygon fill="none" stroke="black" points="199,-38.5 199,-57.5 319,-57.5 319,-38.5 199,-38.5"/>
<text text-anchor="middle" x="259" y="-45.5" font-family="Helvetica,sans-Serif" font-size="10.00">RetornaCuidadorProx</text>
</a>
</g>
</g>
<!-- Node1&#45;&gt;Node2 -->
<g id="edge1" class="edge">
<title>Node1&#45;&gt;Node2</title>
<path fill="none" stroke="midnightblue" d="M344.9,-35.83C336.51,-37.03 327.68,-38.3 319.01,-39.54"/>
<polygon fill="midnightblue" stroke="midnightblue" points="345.48,-39.28 354.89,-34.39 344.49,-32.35 345.48,-39.28"/>
</g>
<!-- Node5 -->
<g id="node5" class="node">
<title>Node5</title>
<g id="a_node5"><a xlink:href="lista_idoso_8h.html#afa97c09900abce26facf342d0a824599" target="_top" xlink:title="Retorna o Idoso mais proximo do ponto de referencia entre os presentes na lista.">
<polygon fill="none" stroke="black" points="207.5,-0.5 207.5,-19.5 310.5,-19.5 310.5,-0.5 207.5,-0.5"/>
<text text-anchor="middle" x="259" y="-7.5" font-family="Helvetica,sans-Serif" font-size="10.00">RetornaIdosoProx</text>
</a>
</g>
</g>
<!-- Node1&#45;&gt;Node5 -->
<g id="edge4" class="edge">
<title>Node1&#45;&gt;Node5</title>
<path fill="none" stroke="midnightblue" d="M344.91,-22.18C333.76,-20.58 321.85,-18.87 310.58,-17.25"/>
<polygon fill="midnightblue" stroke="midnightblue" points="344.49,-25.65 354.89,-23.61 345.48,-18.72 344.49,-25.65"/>
</g>
<!-- Node3 -->
<g id="node3" class="node">
<title>Node3</title>
<g id="a_node3"><a xlink:href="idoso_8h.html#a88452684585a131cdad194e145456e67" target="_top" xlink:title="Dadas as informacoes atualizadas do idoso, essa funcao eh responsavel por processar as informacoes ob...">
<polygon fill="none" stroke="black" points="77,-19.5 77,-38.5 163,-38.5 163,-19.5 77,-19.5"/>
<text text-anchor="middle" x="120" y="-26.5" font-family="Helvetica,sans-Serif" font-size="10.00">ProcessaIdoso</text>
</a>
</g>
</g>
<!-- Node2&#45;&gt;Node3 -->
<g id="edge2" class="edge">
<title>Node2&#45;&gt;Node3</title>
<path fill="none" stroke="midnightblue" d="M188.52,-38.36C179.82,-37.16 171.15,-35.95 163.05,-34.83"/>
<polygon fill="midnightblue" stroke="midnightblue" points="188.32,-41.87 198.71,-39.78 189.28,-34.94 188.32,-41.87"/>
</g>
<!-- Node4 -->
<g id="node4" class="node">
<title>Node4</title>
<g id="a_node4"><a xlink:href="cliente_8c.html#a0ddf1224851353fc92bfbff6f499fa97" target="_top" xlink:title=" ">
<polygon fill="none" stroke="black" points="0,-19.5 0,-38.5 41,-38.5 41,-19.5 0,-19.5"/>
<text text-anchor="middle" x="20.5" y="-26.5" font-family="Helvetica,sans-Serif" font-size="10.00">main</text>
</a>
</g>
</g>
<!-- Node3&#45;&gt;Node4 -->
<g id="edge3" class="edge">
<title>Node3&#45;&gt;Node4</title>
<path fill="none" stroke="midnightblue" d="M66.52,-29C57.42,-29 48.5,-29 41.03,-29"/>
<polygon fill="midnightblue" stroke="midnightblue" points="66.8,-32.5 76.8,-29 66.8,-25.5 66.8,-32.5"/>
</g>
<!-- Node5&#45;&gt;Node3 -->
<g id="edge5" class="edge">
<title>Node5&#45;&gt;Node3</title>
<path fill="none" stroke="midnightblue" d="M197.39,-18.41C185.9,-20 174.11,-21.63 163.33,-23.13"/>
<polygon fill="midnightblue" stroke="midnightblue" points="197.95,-21.86 207.38,-17.02 196.99,-14.93 197.95,-21.86"/>
</g>
</g>
</svg>
