<?xml version="1.0" encoding="UTF-8" standalone="no"?>
<!DOCTYPE svg PUBLIC "-//W3C//DTD SVG 1.1//EN"
 "http://www.w3.org/Graphics/SVG/1.1/DTD/svg11.dtd">
<!-- Generated by graphviz version 2.50.0 (0)
 -->
<!-- Title: headers/geoloc.h Pages: 1 -->
<svg width="587pt" height="252pt"
 viewBox="0.00 0.00 586.50 252.00" xmlns="http://www.w3.org/2000/svg" xmlns:xlink="http://www.w3.org/1999/xlink">
<g id="graph0" class="graph" transform="scale(1 1) rotate(0) translate(4 248)">
<title>headers/geoloc.h</title>
<!-- Node1 -->
<g id="node1" class="node">
<title>Node1</title>
<g id="a_node1"><a xlink:title=" ">
<polygon fill="#bfbfbf" stroke="black" points="346.5,-224.5 346.5,-243.5 446.5,-243.5 446.5,-224.5 346.5,-224.5"/>
<text text-anchor="middle" x="396.5" y="-231.5" font-family="Helvetica,sans-Serif" font-size="10.00">headers/geoloc.h</text>
</a>
</g>
</g>
<!-- Node2 -->
<g id="node2" class="node">
<title>Node2</title>
<g id="a_node2"><a xlink:href="cuidador_8h.html" target="_top" xlink:title=" ">
<polygon fill="none" stroke="black" points="247,-168.5 247,-187.5 356,-187.5 356,-168.5 247,-168.5"/>
<text text-anchor="middle" x="301.5" y="-175.5" font-family="Helvetica,sans-Serif" font-size="10.00">headers/cuidador.h</text>
</a>
</g>
</g>
<!-- Node1&#45;&gt;Node2 -->
<g id="edge1" class="edge">
<title>Node1&#45;&gt;Node2</title>
<path fill="none" stroke="midnightblue" d="M372.18,-219.18C354.7,-209.24 331.67,-196.15 316.73,-187.65"/>
<polygon fill="midnightblue" stroke="midnightblue" points="370.81,-222.43 381.24,-224.32 374.27,-216.34 370.81,-222.43"/>
</g>
<!-- Node3 -->
<g id="node3" class="node">
<title>Node3</title>
<g id="a_node3"><a xlink:href="idoso_8h.html" target="_top" xlink:title=" ">
<polygon fill="none" stroke="black" points="104.5,-112.5 104.5,-131.5 198.5,-131.5 198.5,-112.5 104.5,-112.5"/>
<text text-anchor="middle" x="151.5" y="-119.5" font-family="Helvetica,sans-Serif" font-size="10.00">headers/idoso.h</text>
</a>
</g>
</g>
<!-- Node1&#45;&gt;Node3 -->
<g id="edge17" class="edge">
<title>Node1&#45;&gt;Node3</title>
<path fill="none" stroke="midnightblue" d="M340.47,-222.28C309.41,-215.07 270.68,-203.92 238.5,-188 207.41,-172.61 176.07,-145.77 160.9,-131.88"/>
<polygon fill="midnightblue" stroke="midnightblue" points="339.75,-225.71 350.27,-224.49 341.29,-218.88 339.75,-225.71"/>
</g>
<!-- Node6 -->
<g id="node6" class="node">
<title>Node6</title>
<g id="a_node6"><a xlink:href="idoso_8c.html" target="_top" xlink:title=" ">
<polygon fill="none" stroke="black" points="248.5,-0.5 248.5,-19.5 316.5,-19.5 316.5,-0.5 248.5,-0.5"/>
<text text-anchor="middle" x="282.5" y="-7.5" font-family="Helvetica,sans-Serif" font-size="10.00">src/idoso.c</text>
</a>
</g>
</g>
<!-- Node1&#45;&gt;Node6 -->
<g id="edge20" class="edge">
<title>Node1&#45;&gt;Node6</title>
<path fill="none" stroke="midnightblue" d="M411.62,-216.44C440.31,-182.98 496.44,-106.22 457.5,-56 453.13,-50.36 366.52,-29.99 316.82,-18.69"/>
<polygon fill="midnightblue" stroke="midnightblue" points="408.66,-214.51 404.68,-224.33 413.91,-219.14 408.66,-214.51"/>
</g>
<!-- Node10 -->
<g id="node10" class="node">
<title>Node10</title>
<g id="a_node10"><a xlink:href="cuidador_8c.html" target="_top" xlink:title=" ">
<polygon fill="none" stroke="black" points="355,-112.5 355,-131.5 438,-131.5 438,-112.5 355,-112.5"/>
<text text-anchor="middle" x="396.5" y="-119.5" font-family="Helvetica,sans-Serif" font-size="10.00">src/cuidador.c</text>
</a>
</g>
</g>
<!-- Node1&#45;&gt;Node10 -->
<g id="edge18" class="edge">
<title>Node1&#45;&gt;Node10</title>
<path fill="none" stroke="midnightblue" d="M396.5,-214.35C396.5,-190.25 396.5,-149.31 396.5,-131.59"/>
<polygon fill="midnightblue" stroke="midnightblue" points="393,-214.37 396.5,-224.37 400,-214.37 393,-214.37"/>
</g>
<!-- Node11 -->
<g id="node11" class="node">
<title>Node11</title>
<g id="a_node11"><a xlink:href="geoloc_8c.html" target="_top" xlink:title=" ">
<polygon fill="none" stroke="black" points="504.5,-168.5 504.5,-187.5 578.5,-187.5 578.5,-168.5 504.5,-168.5"/>
<text text-anchor="middle" x="541.5" y="-175.5" font-family="Helvetica,sans-Serif" font-size="10.00">src/geoloc.c</text>
</a>
</g>
</g>
<!-- Node1&#45;&gt;Node11 -->
<g id="edge19" class="edge">
<title>Node1&#45;&gt;Node11</title>
<path fill="none" stroke="midnightblue" d="M428.98,-220.91C456.24,-210.75 494.49,-196.51 518.63,-187.52"/>
<polygon fill="midnightblue" stroke="midnightblue" points="427.63,-217.67 419.48,-224.44 430.07,-224.23 427.63,-217.67"/>
</g>
<!-- Node2&#45;&gt;Node3 -->
<g id="edge2" class="edge">
<title>Node2&#45;&gt;Node3</title>
<path fill="none" stroke="midnightblue" d="M268.28,-165.04C240.05,-154.88 200.24,-140.55 175.16,-131.52"/>
<polygon fill="midnightblue" stroke="midnightblue" points="267.14,-168.35 277.73,-168.44 269.51,-161.76 267.14,-168.35"/>
</g>
<!-- Node5 -->
<g id="node5" class="node">
<title>Node5</title>
<g id="a_node5"><a xlink:href="cliente_8c.html" target="_top" xlink:title=" ">
<polygon fill="none" stroke="black" points="119,-0.5 119,-19.5 194,-19.5 194,-0.5 119,-0.5"/>
<text text-anchor="middle" x="156.5" y="-7.5" font-family="Helvetica,sans-Serif" font-size="10.00">src/cliente.c</text>
</a>
</g>
</g>
<!-- Node2&#45;&gt;Node5 -->
<g id="edge14" class="edge">
<title>Node2&#45;&gt;Node5</title>
<path fill="none" stroke="midnightblue" d="M286.83,-160.21C256.31,-125.26 186.89,-45.79 163.98,-19.57"/>
<polygon fill="midnightblue" stroke="midnightblue" points="284.49,-162.85 293.7,-168.08 289.76,-158.24 284.49,-162.85"/>
</g>
<!-- Node2&#45;&gt;Node6 -->
<g id="edge16" class="edge">
<title>Node2&#45;&gt;Node6</title>
<path fill="none" stroke="midnightblue" d="M299.32,-157.93C295.2,-121.92 286.42,-45.23 283.48,-19.57"/>
<polygon fill="midnightblue" stroke="midnightblue" points="295.86,-158.54 300.48,-168.08 302.82,-157.74 295.86,-158.54"/>
</g>
<!-- Node8 -->
<g id="node8" class="node">
<title>Node8</title>
<g id="a_node8"><a xlink:href="lista_cuidador_8h.html" target="_top" xlink:title=" ">
<polygon fill="none" stroke="black" points="317,-56.5 317,-75.5 448,-75.5 448,-56.5 317,-56.5"/>
<text text-anchor="middle" x="382.5" y="-63.5" font-family="Helvetica,sans-Serif" font-size="10.00">headers/listaCuidador.h</text>
</a>
</g>
</g>
<!-- Node2&#45;&gt;Node8 -->
<g id="edge10" class="edge">
<title>Node2&#45;&gt;Node8</title>
<path fill="none" stroke="midnightblue" d="M312.87,-159.9C321.78,-146.65 334.63,-127.94 346.5,-112 356.06,-99.16 367.73,-84.79 375.14,-75.82"/>
<polygon fill="midnightblue" stroke="midnightblue" points="309.79,-158.2 307.14,-168.45 315.61,-162.09 309.79,-158.2"/>
</g>
<!-- Node2&#45;&gt;Node10 -->
<g id="edge15" class="edge">
<title>Node2&#45;&gt;Node10</title>
<path fill="none" stroke="midnightblue" d="M325.82,-163.18C343.3,-153.24 366.33,-140.15 381.27,-131.65"/>
<polygon fill="midnightblue" stroke="midnightblue" points="323.73,-160.34 316.76,-168.32 327.19,-166.43 323.73,-160.34"/>
</g>
<!-- Node4 -->
<g id="node4" class="node">
<title>Node4</title>
<g id="a_node4"><a xlink:href="lista_idoso_8h.html" target="_top" xlink:title=" ">
<polygon fill="none" stroke="black" points="69,-56.5 69,-75.5 184,-75.5 184,-56.5 69,-56.5"/>
<text text-anchor="middle" x="126.5" y="-63.5" font-family="Helvetica,sans-Serif" font-size="10.00">headers/listaIdoso.h</text>
</a>
</g>
</g>
<!-- Node3&#45;&gt;Node4 -->
<g id="edge3" class="edge">
<title>Node3&#45;&gt;Node4</title>
<path fill="none" stroke="midnightblue" d="M143.16,-102.98C138.92,-93.82 133.95,-83.09 130.55,-75.75"/>
<polygon fill="midnightblue" stroke="midnightblue" points="139.99,-104.48 147.37,-112.08 146.35,-101.54 139.99,-104.48"/>
</g>
<!-- Node3&#45;&gt;Node5 -->
<g id="edge7" class="edge">
<title>Node3&#45;&gt;Node5</title>
<path fill="none" stroke="midnightblue" d="M108.15,-109.18C77.3,-98.41 43.88,-80.47 59.5,-56 72.49,-35.66 97.3,-24.37 118.57,-18.19"/>
<polygon fill="midnightblue" stroke="midnightblue" points="107.41,-112.62 118.01,-112.42 109.6,-105.97 107.41,-112.62"/>
</g>
<!-- Node3&#45;&gt;Node6 -->
<g id="edge8" class="edge">
<title>Node3&#45;&gt;Node6</title>
<path fill="none" stroke="midnightblue" d="M169.58,-105.82C197.48,-82.39 250.12,-38.19 272.27,-19.59"/>
<polygon fill="midnightblue" stroke="midnightblue" points="167.19,-103.26 161.78,-112.37 171.69,-108.62 167.19,-103.26"/>
</g>
<!-- Node7 -->
<g id="node7" class="node">
<title>Node7</title>
<g id="a_node7"><a xlink:href="lista_idoso_8c.html" target="_top" xlink:title=" ">
<polygon fill="none" stroke="black" points="0,-0.5 0,-19.5 89,-19.5 89,-0.5 0,-0.5"/>
<text text-anchor="middle" x="44.5" y="-7.5" font-family="Helvetica,sans-Serif" font-size="10.00">src/listaIdoso.c</text>
</a>
</g>
</g>
<!-- Node3&#45;&gt;Node7 -->
<g id="edge9" class="edge">
<title>Node3&#45;&gt;Node7</title>
<path fill="none" stroke="midnightblue" d="M100.85,-109.11C82.86,-102.35 64.19,-91.92 52.5,-76 40.12,-59.14 41.4,-32.94 43.1,-19.53"/>
<polygon fill="midnightblue" stroke="midnightblue" points="100.14,-112.56 110.73,-112.5 102.41,-105.94 100.14,-112.56"/>
</g>
<!-- Node4&#45;&gt;Node5 -->
<g id="edge4" class="edge">
<title>Node4&#45;&gt;Node5</title>
<path fill="none" stroke="midnightblue" d="M136.35,-47.27C141.47,-38.05 147.52,-27.17 151.64,-19.75"/>
<polygon fill="midnightblue" stroke="midnightblue" points="133.25,-45.64 131.45,-56.08 139.37,-49.04 133.25,-45.64"/>
</g>
<!-- Node4&#45;&gt;Node6 -->
<g id="edge5" class="edge">
<title>Node4&#45;&gt;Node6</title>
<path fill="none" stroke="midnightblue" d="M160.67,-53.17C190.04,-43 231.7,-28.59 257.9,-19.52"/>
<polygon fill="midnightblue" stroke="midnightblue" points="159.52,-49.86 151.22,-56.44 161.81,-56.48 159.52,-49.86"/>
</g>
<!-- Node4&#45;&gt;Node7 -->
<g id="edge6" class="edge">
<title>Node4&#45;&gt;Node7</title>
<path fill="none" stroke="midnightblue" d="M104.67,-50.62C89.69,-40.76 70.3,-27.99 57.64,-19.65"/>
<polygon fill="midnightblue" stroke="midnightblue" points="103.05,-53.75 113.33,-56.32 106.9,-47.9 103.05,-53.75"/>
</g>
<!-- Node8&#45;&gt;Node5 -->
<g id="edge11" class="edge">
<title>Node8&#45;&gt;Node5</title>
<path fill="none" stroke="midnightblue" d="M336.83,-54.09C294.14,-43.89 231.25,-28.86 192.14,-19.52"/>
<polygon fill="midnightblue" stroke="midnightblue" points="336.15,-57.52 346.69,-56.44 337.78,-50.72 336.15,-57.52"/>
</g>
<!-- Node8&#45;&gt;Node6 -->
<g id="edge12" class="edge">
<title>Node8&#45;&gt;Node6</title>
<path fill="none" stroke="midnightblue" d="M357.41,-51.45C338.95,-41.48 314.4,-28.23 298.53,-19.65"/>
<polygon fill="midnightblue" stroke="midnightblue" points="355.97,-54.65 366.43,-56.32 359.3,-48.49 355.97,-54.65"/>
</g>
<!-- Node9 -->
<g id="node9" class="node">
<title>Node9</title>
<g id="a_node9"><a xlink:href="lista_cuidador_8c.html" target="_top" xlink:title=" ">
<polygon fill="none" stroke="black" points="334.5,-0.5 334.5,-19.5 440.5,-19.5 440.5,-0.5 334.5,-0.5"/>
<text text-anchor="middle" x="387.5" y="-7.5" font-family="Helvetica,sans-Serif" font-size="10.00">src/listaCuidador.c</text>
</a>
</g>
</g>
<!-- Node8&#45;&gt;Node9 -->
<g id="edge13" class="edge">
<title>Node8&#45;&gt;Node9</title>
<path fill="none" stroke="midnightblue" d="M384.25,-46.1C385.08,-37.14 386.03,-26.86 386.69,-19.75"/>
<polygon fill="midnightblue" stroke="midnightblue" points="380.76,-45.8 383.33,-56.08 387.73,-46.45 380.76,-45.8"/>
</g>
</g>
</svg>
