<?xml version="1.0" encoding="UTF-8" standalone="no"?>
<!DOCTYPE svg PUBLIC "-//W3C//DTD SVG 1.1//EN"
 "http://www.w3.org/Graphics/SVG/1.1/DTD/svg11.dtd">
<!-- Generated by graphviz version 2.50.0 (0)
 -->
<!-- Title: IniciaGeo Pages: 1 -->
<svg width="269pt" height="66pt"
 viewBox="0.00 0.00 269.00 66.00" xmlns="http://www.w3.org/2000/svg" xmlns:xlink="http://www.w3.org/1999/xlink">
<g id="graph0" class="graph" transform="scale(1 1) rotate(0) translate(4 62)">
<title>IniciaGeo</title>
<!-- Node1 -->
<g id="node1" class="node">
<title>Node1</title>
<g id="a_node1"><a xlink:title="Faz a alocacao de memoria e inicializacao de uma variavel do tipo Geoloc, responsavel por armazenas e...">
<polygon fill="#bfbfbf" stroke="black" points="199,-19.5 199,-38.5 261,-38.5 261,-19.5 199,-19.5"/>
<text text-anchor="middle" x="230" y="-26.5" font-family="Helvetica,sans-Serif" font-size="10.00">IniciaGeo</text>
</a>
</g>
</g>
<!-- Node2 -->
<g id="node2" class="node">
<title>Node2</title>
<g id="a_node2"><a xlink:href="cuidador_8h.html#aeb8e274de45a5c99428ad3740eef86b8" target="_top" xlink:title="Faz a alocacao de memoria e inicializacao de uma variavel do tipo cuidador.">
<polygon fill="none" stroke="black" points="77,-38.5 77,-57.5 163,-57.5 163,-38.5 77,-38.5"/>
<text text-anchor="middle" x="120" y="-45.5" font-family="Helvetica,sans-Serif" font-size="10.00">IniciaCuidador</text>
</a>
</g>
</g>
<!-- Node1&#45;&gt;Node2 -->
<g id="edge1" class="edge">
<title>Node1&#45;&gt;Node2</title>
<path fill="none" stroke="midnightblue" d="M188.92,-36.05C180.47,-37.54 171.54,-39.11 163.03,-40.61"/>
<polygon fill="midnightblue" stroke="midnightblue" points="189.67,-39.47 198.92,-34.29 188.46,-32.58 189.67,-39.47"/>
</g>
<!-- Node4 -->
<g id="node4" class="node">
<title>Node4</title>
<g id="a_node4"><a xlink:href="idoso_8h.html#a3f54e9cc6f8cd2c53e2c3a09aefc32db" target="_top" xlink:title="Faz a alocacao de memoria e inicializacao de uma variavel do tipo Idoso.">
<polygon fill="none" stroke="black" points="85.5,-0.5 85.5,-19.5 154.5,-19.5 154.5,-0.5 85.5,-0.5"/>
<text text-anchor="middle" x="120" y="-7.5" font-family="Helvetica,sans-Serif" font-size="10.00">IniciaIdoso</text>
</a>
</g>
</g>
<!-- Node1&#45;&gt;Node4 -->
<g id="edge3" class="edge">
<title>Node1&#45;&gt;Node4</title>
<path fill="none" stroke="midnightblue" d="M188.9,-21.94C177.66,-19.97 165.55,-17.84 154.72,-15.93"/>
<polygon fill="midnightblue" stroke="midnightblue" points="188.46,-25.42 198.92,-23.71 189.67,-18.53 188.46,-25.42"/>
</g>
<!-- Node3 -->
<g id="node3" class="node">
<title>Node3</title>
<g id="a_node3"><a xlink:href="cliente_8c.html#a0ddf1224851353fc92bfbff6f499fa97" target="_top" xlink:title=" ">
<polygon fill="none" stroke="black" points="0,-19.5 0,-38.5 41,-38.5 41,-19.5 0,-19.5"/>
<text text-anchor="middle" x="20.5" y="-26.5" font-family="Helvetica,sans-Serif" font-size="10.00">main</text>
</a>
</g>
</g>
<!-- Node2&#45;&gt;Node3 -->
<g id="edge2" class="edge">
<title>Node2&#45;&gt;Node3</title>
<path fill="none" stroke="midnightblue" d="M66.82,-37.83C57.62,-36.04 48.58,-34.28 41.03,-32.81"/>
<polygon fill="midnightblue" stroke="midnightblue" points="66.32,-41.3 76.8,-39.78 67.66,-34.43 66.32,-41.3"/>
</g>
<!-- Node4&#45;&gt;Node3 -->
<g id="edge4" class="edge">
<title>Node4&#45;&gt;Node3</title>
<path fill="none" stroke="midnightblue" d="M75.53,-18.47C63.52,-20.81 51.08,-23.24 41.17,-25.17"/>
<polygon fill="midnightblue" stroke="midnightblue" points="76.3,-21.89 85.45,-16.54 74.96,-15.02 76.3,-21.89"/>
</g>
</g>
</svg>
