<?xml version="1.0" encoding="UTF-8" standalone="no"?>
<!DOCTYPE svg PUBLIC "-//W3C//DTD SVG 1.1//EN"
 "http://www.w3.org/Graphics/SVG/1.1/DTD/svg11.dtd">
<!-- Generated by graphviz version 2.50.0 (0)
 -->
<!-- Title: LiberaGeo Pages: 1 -->
<svg width="277pt" height="66pt"
 viewBox="0.00 0.00 277.00 66.00" xmlns="http://www.w3.org/2000/svg" xmlns:xlink="http://www.w3.org/1999/xlink">
<g id="graph0" class="graph" transform="scale(1 1) rotate(0) translate(4 62)">
<title>LiberaGeo</title>
<!-- Node1 -->
<g id="node1" class="node">
<title>Node1</title>
<g id="a_node1"><a xlink:title="Libera a memoria alocada para a variavel de tipo Geoloc.">
<polygon fill="#bfbfbf" stroke="black" points="203,-19.5 203,-38.5 269,-38.5 269,-19.5 203,-19.5"/>
<text text-anchor="middle" x="236" y="-26.5" font-family="Helvetica,sans-Serif" font-size="10.00">LiberaGeo</text>
</a>
</g>
</g>
<!-- Node2 -->
<g id="node2" class="node">
<title>Node2</title>
<g id="a_node2"><a xlink:href="cuidador_8h.html#a6e4af23e054337b68d5037edeefa9c85" target="_top" xlink:title="Libera a memoria alocada para tal cuidador.">
<polygon fill="none" stroke="black" points="77,-38.5 77,-57.5 167,-57.5 167,-38.5 77,-38.5"/>
<text text-anchor="middle" x="122" y="-45.5" font-family="Helvetica,sans-Serif" font-size="10.00">LiberaCuidador</text>
</a>
</g>
</g>
<!-- Node1&#45;&gt;Node2 -->
<g id="edge1" class="edge">
<title>Node1&#45;&gt;Node2</title>
<path fill="none" stroke="midnightblue" d="M192.93,-36.14C184.53,-37.56 175.68,-39.06 167.2,-40.5"/>
<polygon fill="midnightblue" stroke="midnightblue" points="193.63,-39.57 202.91,-34.44 192.46,-32.67 193.63,-39.57"/>
</g>
<!-- Node4 -->
<g id="node4" class="node">
<title>Node4</title>
<g id="a_node4"><a xlink:href="idoso_8h.html#a9f1fc433114612ab21373e245aa47712" target="_top" xlink:title="Libera a memoria alocada para a variavel de tipo Idoso.">
<polygon fill="none" stroke="black" points="85.5,-0.5 85.5,-19.5 158.5,-19.5 158.5,-0.5 85.5,-0.5"/>
<text text-anchor="middle" x="122" y="-7.5" font-family="Helvetica,sans-Serif" font-size="10.00">LiberaIdoso</text>
</a>
</g>
</g>
<!-- Node1&#45;&gt;Node4 -->
<g id="edge3" class="edge">
<title>Node1&#45;&gt;Node4</title>
<path fill="none" stroke="midnightblue" d="M192.84,-21.85C181.58,-19.94 169.51,-17.89 158.64,-16.05"/>
<polygon fill="midnightblue" stroke="midnightblue" points="192.46,-25.33 202.91,-23.56 193.63,-18.43 192.46,-25.33"/>
</g>
<!-- Node3 -->
<g id="node3" class="node">
<title>Node3</title>
<g id="a_node3"><a xlink:href="cliente_8c.html#a0ddf1224851353fc92bfbff6f499fa97" target="_top" xlink:title=" ">
<polygon fill="none" stroke="black" points="0,-19.5 0,-38.5 41,-38.5 41,-19.5 0,-19.5"/>
<text text-anchor="middle" x="20.5" y="-26.5" font-family="Helvetica,sans-Serif" font-size="10.00">main</text>
</a>
</g>
</g>
<!-- Node2&#45;&gt;Node3 -->
<g id="edge2" class="edge">
<title>Node2&#45;&gt;Node3</title>
<path fill="none" stroke="midnightblue" d="M66.81,-37.65C57.65,-35.9 48.68,-34.19 41.18,-32.76"/>
<polygon fill="midnightblue" stroke="midnightblue" points="66.3,-41.12 76.78,-39.56 67.61,-34.24 66.3,-41.12"/>
</g>
<!-- Node4&#45;&gt;Node3 -->
<g id="edge4" class="edge">
<title>Node4&#45;&gt;Node3</title>
<path fill="none" stroke="midnightblue" d="M75.35,-18.72C63.27,-21.02 50.86,-23.39 41,-25.28"/>
<polygon fill="midnightblue" stroke="midnightblue" points="76.19,-22.12 85.36,-16.81 74.88,-15.24 76.19,-22.12"/>
</g>
</g>
</svg>
