<?xml version="1.0" encoding="UTF-8" standalone="no"?>
<!DOCTYPE svg PUBLIC "-//W3C//DTD SVG 1.1//EN"
 "http://www.w3.org/Graphics/SVG/1.1/DTD/svg11.dtd">
<!-- Generated by graphviz version 2.50.0 (0)
 -->
<!-- Title: IniciaIdoso Pages: 1 -->
<svg width="285pt" height="218pt"
 viewBox="0.00 0.00 285.00 218.00" xmlns="http://www.w3.org/2000/svg" xmlns:xlink="http://www.w3.org/1999/xlink">
<g id="graph0" class="graph" transform="scale(1 1) rotate(0) translate(4 214)">
<title>IniciaIdoso</title>
<!-- Node1 -->
<g id="node1" class="node">
<title>Node1</title>
<g id="a_node1"><a xlink:title="Faz a alocacao de memoria e inicializacao de uma variavel do tipo Idoso.">
<polygon fill="#bfbfbf" stroke="black" points="0,-95.5 0,-114.5 69,-114.5 69,-95.5 0,-95.5"/>
<text text-anchor="middle" x="34.5" y="-102.5" font-family="Helvetica,sans-Serif" font-size="10.00">IniciaIdoso</text>
</a>
</g>
</g>
<!-- Node2 -->
<g id="node2" class="node">
<title>Node2</title>
<g id="a_node2"><a xlink:href="pathman_8h.html#a8ac57bc6fde707215bb75ce25309489b" target="_top" xlink:title="adiciona uma string no final do caminho, com um divisor no meio se o path terminar com um divisor,...">
<polygon fill="none" stroke="black" points="129,-190.5 129,-209.5 173,-209.5 173,-190.5 129,-190.5"/>
<text text-anchor="middle" x="151" y="-197.5" font-family="Helvetica,sans-Serif" font-size="10.00">adpth</text>
</a>
</g>
</g>
<!-- Node1&#45;&gt;Node2 -->
<g id="edge1" class="edge">
<title>Node1&#45;&gt;Node2</title>
<path fill="none" stroke="midnightblue" d="M42.15,-114.64C53.45,-130.39 77.83,-161.82 105,-181 109.39,-184.1 114.36,-186.83 119.37,-189.18"/>
<polygon fill="midnightblue" stroke="midnightblue" points="118.29,-192.53 128.87,-193.24 121.04,-186.09 118.29,-192.53"/>
</g>
<!-- Node4 -->
<g id="node4" class="node">
<title>Node4</title>
<g id="a_node4"><a xlink:href="pathman_8h.html#a18886c8669c2a9541f75720f21bdb84c" target="_top" xlink:title="Extend path: adiciona uma string no final do caminho.">
<polygon fill="none" stroke="black" points="129,-152.5 129,-171.5 173,-171.5 173,-152.5 129,-152.5"/>
<text text-anchor="middle" x="151" y="-159.5" font-family="Helvetica,sans-Serif" font-size="10.00">expth</text>
</a>
</g>
</g>
<!-- Node1&#45;&gt;Node4 -->
<g id="edge3" class="edge">
<title>Node1&#45;&gt;Node4</title>
<path fill="none" stroke="midnightblue" d="M51.83,-114.54C65.76,-122.52 86.43,-134.03 105,-143 109.53,-145.19 114.39,-147.39 119.16,-149.47"/>
<polygon fill="midnightblue" stroke="midnightblue" points="118.17,-152.85 128.74,-153.54 120.91,-146.41 118.17,-152.85"/>
</g>
<!-- Node5 -->
<g id="node5" class="node">
<title>Node5</title>
<g id="a_node5"><a xlink:href="geoloc_8h.html#afbcdcb86de07f57b99d242367e2a4a05" target="_top" xlink:title="Faz a alocacao de memoria e inicializacao de uma variavel do tipo Geoloc, responsavel por armazenas e...">
<polygon fill="none" stroke="black" points="120,-114.5 120,-133.5 182,-133.5 182,-114.5 120,-114.5"/>
<text text-anchor="middle" x="151" y="-121.5" font-family="Helvetica,sans-Serif" font-size="10.00">IniciaGeo</text>
</a>
</g>
</g>
<!-- Node1&#45;&gt;Node5 -->
<g id="edge4" class="edge">
<title>Node1&#45;&gt;Node5</title>
<path fill="none" stroke="midnightblue" d="M69.23,-110.6C81.83,-112.69 96.27,-115.08 109.42,-117.27"/>
<polygon fill="midnightblue" stroke="midnightblue" points="109.19,-120.78 119.63,-118.96 110.33,-113.87 109.19,-120.78"/>
</g>
<!-- Node6 -->
<g id="node6" class="node">
<title>Node6</title>
<g id="a_node6"><a xlink:href="lista_cuidador_8h.html#ac9664361693d2ac6ad17afb02d0af621" target="_top" xlink:title="Aloca e inicia uma lista de cuidadores com uma sentinela vazia.">
<polygon fill="none" stroke="black" points="110,-76.5 110,-95.5 192,-95.5 192,-76.5 110,-76.5"/>
<text text-anchor="middle" x="151" y="-83.5" font-family="Helvetica,sans-Serif" font-size="10.00">IniciaListaCui</text>
</a>
</g>
</g>
<!-- Node1&#45;&gt;Node6 -->
<g id="edge5" class="edge">
<title>Node1&#45;&gt;Node6</title>
<path fill="none" stroke="midnightblue" d="M69.23,-99.4C78.73,-97.83 89.28,-96.08 99.53,-94.38"/>
<polygon fill="midnightblue" stroke="midnightblue" points="100.34,-97.79 109.63,-92.7 99.19,-90.88 100.34,-97.79"/>
</g>
<!-- Node7 -->
<g id="node7" class="node">
<title>Node7</title>
<g id="a_node7"><a xlink:href="lista_idoso_8h.html#a8db6232f56c31eabd4870f5c010710b6" target="_top" xlink:title="Aloca e inicia uma lista de Idosos com uma sentinela vazia.">
<polygon fill="none" stroke="black" points="105,-38.5 105,-57.5 197,-57.5 197,-38.5 105,-38.5"/>
<text text-anchor="middle" x="151" y="-45.5" font-family="Helvetica,sans-Serif" font-size="10.00">IniciaListaIdoso</text>
</a>
</g>
</g>
<!-- Node1&#45;&gt;Node7 -->
<g id="edge6" class="edge">
<title>Node1&#45;&gt;Node7</title>
<path fill="none" stroke="midnightblue" d="M51.83,-95.46C65.76,-87.48 86.43,-75.97 105,-67 108.78,-65.17 112.78,-63.34 116.78,-61.58"/>
<polygon fill="midnightblue" stroke="midnightblue" points="118.18,-64.79 125.98,-57.61 115.41,-58.36 118.18,-64.79"/>
</g>
<!-- Node8 -->
<g id="node8" class="node">
<title>Node8</title>
<g id="a_node8"><a xlink:href="idoso_8c.html#ab7bfad24a236d31876f699b460e00f4d" target="_top" xlink:title="Define o Nome do objeto Idoso.">
<polygon fill="none" stroke="black" points="107,-0.5 107,-19.5 195,-19.5 195,-0.5 107,-0.5"/>
<text text-anchor="middle" x="151" y="-7.5" font-family="Helvetica,sans-Serif" font-size="10.00">SetNomeIdoso</text>
</a>
</g>
</g>
<!-- Node1&#45;&gt;Node8 -->
<g id="edge7" class="edge">
<title>Node1&#45;&gt;Node8</title>
<path fill="none" stroke="midnightblue" d="M42.15,-95.36C53.45,-79.61 77.83,-48.18 105,-29 107.48,-27.25 110.15,-25.61 112.91,-24.1"/>
<polygon fill="midnightblue" stroke="midnightblue" points="114.46,-27.23 121.88,-19.67 111.36,-20.96 114.46,-27.23"/>
</g>
<!-- Node3 -->
<g id="node3" class="node">
<title>Node3</title>
<g id="a_node3"><a xlink:href="pathman_8c.html#a18886c8669c2a9541f75720f21bdb84c" target="_top" xlink:title="Extend path: adiciona uma string no final do caminho.">
<polygon fill="none" stroke="black" points="233,-190.5 233,-209.5 277,-209.5 277,-190.5 233,-190.5"/>
<text text-anchor="middle" x="255" y="-197.5" font-family="Helvetica,sans-Serif" font-size="10.00">expth</text>
</a>
</g>
</g>
<!-- Node2&#45;&gt;Node3 -->
<g id="edge2" class="edge">
<title>Node2&#45;&gt;Node3</title>
<path fill="none" stroke="midnightblue" d="M173.13,-200C187.49,-200 206.73,-200 222.84,-200"/>
<polygon fill="midnightblue" stroke="midnightblue" points="222.89,-203.5 232.89,-200 222.89,-196.5 222.89,-203.5"/>
</g>
</g>
</svg>
