<?xml version="1.0" encoding="UTF-8" standalone="no"?>
<!DOCTYPE svg PUBLIC "-//W3C//DTD SVG 1.1//EN"
 "http://www.w3.org/Graphics/SVG/1.1/DTD/svg11.dtd">
<!-- Generated by graphviz version 2.50.0 (0)
 -->
<!-- Title: src/idoso.c Pages: 1 -->
<svg width="487pt" height="252pt"
 viewBox="0.00 0.00 486.95 252.00" xmlns="http://www.w3.org/2000/svg" xmlns:xlink="http://www.w3.org/1999/xlink">
<g id="graph0" class="graph" transform="scale(1 1) rotate(0) translate(4 248)">
<title>src/idoso.c</title>
<!-- Node1 -->
<g id="node1" class="node">
<title>Node1</title>
<g id="a_node1"><a xlink:title=" ">
<polygon fill="#bfbfbf" stroke="black" points="136.45,-224.5 136.45,-243.5 204.45,-243.5 204.45,-224.5 136.45,-224.5"/>
<text text-anchor="middle" x="170.45" y="-231.5" font-family="Helvetica,sans-Serif" font-size="10.00">src/idoso.c</text>
</a>
</g>
</g>
<!-- Node2 -->
<g id="node2" class="node">
<title>Node2</title>
<g id="a_node2"><a xlink:href="idoso_8h.html" target="_top" xlink:title=" ">
<polygon fill="none" stroke="black" points="41.45,-112.5 41.45,-131.5 93.45,-131.5 93.45,-112.5 41.45,-112.5"/>
<text text-anchor="middle" x="67.45" y="-119.5" font-family="Helvetica,sans-Serif" font-size="10.00">idoso.h</text>
</a>
</g>
</g>
<!-- Node1&#45;&gt;Node2 -->
<g id="edge1" class="edge">
<title>Node1&#45;&gt;Node2</title>
<path fill="none" stroke="midnightblue" d="M136.14,-233.5C100.93,-231.94 47.71,-223.36 21.45,-188 8.7,-170.83 28.15,-150.68 45.54,-137.42"/>
<polygon fill="midnightblue" stroke="midnightblue" points="47.69,-140.18 53.77,-131.5 43.61,-134.5 47.69,-140.18"/>
</g>
<!-- Node3 -->
<g id="node3" class="node">
<title>Node3</title>
<g id="a_node3"><a xlink:href="geoloc_8h.html" target="_top" xlink:title=" ">
<polygon fill="none" stroke="black" points="38.45,-0.5 38.45,-19.5 96.45,-19.5 96.45,-0.5 38.45,-0.5"/>
<text text-anchor="middle" x="67.45" y="-7.5" font-family="Helvetica,sans-Serif" font-size="10.00">geoloc.h</text>
</a>
</g>
</g>
<!-- Node1&#45;&gt;Node3 -->
<g id="edge10" class="edge">
<title>Node1&#45;&gt;Node3</title>
<path fill="none" stroke="midnightblue" d="M136.29,-228.05C94.72,-221.25 28.21,-207.59 13.45,-188 -24.36,-137.83 27.09,-61.04 53.5,-27.57"/>
<polygon fill="midnightblue" stroke="midnightblue" points="56.32,-29.65 59.9,-19.68 50.88,-25.24 56.32,-29.65"/>
</g>
<!-- Node4 -->
<g id="node4" class="node">
<title>Node4</title>
<g id="a_node4"><a xlink:href="cuidador_8h.html" target="_top" xlink:title=" ">
<polygon fill="none" stroke="black" points="96.95,-56.5 96.95,-75.5 163.95,-75.5 163.95,-56.5 96.95,-56.5"/>
<text text-anchor="middle" x="130.45" y="-63.5" font-family="Helvetica,sans-Serif" font-size="10.00">cuidador.h</text>
</a>
</g>
</g>
<!-- Node1&#45;&gt;Node4 -->
<g id="edge5" class="edge">
<title>Node1&#45;&gt;Node4</title>
<path fill="none" stroke="midnightblue" d="M168.3,-224.08C162,-197.95 143.51,-121.21 134.92,-85.58"/>
<polygon fill="midnightblue" stroke="midnightblue" points="138.26,-84.47 132.51,-75.57 131.45,-86.11 138.26,-84.47"/>
</g>
<!-- Node5 -->
<g id="node5" class="node">
<title>Node5</title>
<g id="a_node5"><a xlink:href="lista_idoso_8h.html" target="_top" xlink:title=" ">
<polygon fill="none" stroke="black" points="30.95,-168.5 30.95,-187.5 103.95,-187.5 103.95,-168.5 30.95,-168.5"/>
<text text-anchor="middle" x="67.45" y="-175.5" font-family="Helvetica,sans-Serif" font-size="10.00">listaIdoso.h</text>
</a>
</g>
</g>
<!-- Node1&#45;&gt;Node5 -->
<g id="edge6" class="edge">
<title>Node1&#45;&gt;Node5</title>
<path fill="none" stroke="midnightblue" d="M153.9,-224.32C137.45,-215.7 112.01,-202.36 92.98,-192.39"/>
<polygon fill="midnightblue" stroke="midnightblue" points="94.44,-189.2 83.95,-187.65 91.19,-195.4 94.44,-189.2"/>
</g>
<!-- Node6 -->
<g id="node6" class="node">
<title>Node6</title>
<g id="a_node6"><a xlink:href="lista_cuidador_8h.html" target="_top" xlink:title=" ">
<polygon fill="none" stroke="black" points="160.95,-112.5 160.95,-131.5 249.95,-131.5 249.95,-112.5 160.95,-112.5"/>
<text text-anchor="middle" x="205.45" y="-119.5" font-family="Helvetica,sans-Serif" font-size="10.00">listaCuidador.h</text>
</a>
</g>
</g>
<!-- Node1&#45;&gt;Node6 -->
<g id="edge8" class="edge">
<title>Node1&#45;&gt;Node6</title>
<path fill="none" stroke="midnightblue" d="M172.87,-224.12C176.33,-211.56 183,-187.91 189.45,-168 192.32,-159.11 195.77,-149.34 198.72,-141.17"/>
<polygon fill="midnightblue" stroke="midnightblue" points="202.08,-142.17 202.23,-131.58 195.51,-139.76 202.08,-142.17"/>
</g>
<!-- Node7 -->
<g id="node7" class="node">
<title>Node7</title>
<g id="a_node7"><a xlink:href="pathman_8h.html" target="_top" xlink:title=" ">
<polygon fill="none" stroke="black" points="198.95,-168.5 198.95,-187.5 267.95,-187.5 267.95,-168.5 198.95,-168.5"/>
<text text-anchor="middle" x="233.45" y="-175.5" font-family="Helvetica,sans-Serif" font-size="10.00">pathman.h</text>
</a>
</g>
</g>
<!-- Node1&#45;&gt;Node7 -->
<g id="edge11" class="edge">
<title>Node1&#45;&gt;Node7</title>
<path fill="none" stroke="midnightblue" d="M180.57,-224.32C189.97,-216.26 204.19,-204.08 215.52,-194.37"/>
<polygon fill="midnightblue" stroke="midnightblue" points="217.83,-197 223.14,-187.83 213.27,-191.68 217.83,-197"/>
</g>
<!-- Node8 -->
<g id="node8" class="node">
<title>Node8</title>
<g id="a_node8"><a xlink:title=" ">
<polygon fill="none" stroke="#bfbfbf" points="286.45,-168.5 286.45,-187.5 336.45,-187.5 336.45,-168.5 286.45,-168.5"/>
<text text-anchor="middle" x="311.45" y="-175.5" font-family="Helvetica,sans-Serif" font-size="10.00">stdio.h</text>
</a>
</g>
</g>
<!-- Node1&#45;&gt;Node8 -->
<g id="edge12" class="edge">
<title>Node1&#45;&gt;Node8</title>
<path fill="none" stroke="midnightblue" d="M192.79,-224.44C216.2,-215.48 253.18,-201.31 279.64,-191.18"/>
<polygon fill="midnightblue" stroke="midnightblue" points="281.12,-194.36 289.21,-187.52 278.62,-187.82 281.12,-194.36"/>
</g>
<!-- Node9 -->
<g id="node9" class="node">
<title>Node9</title>
<g id="a_node9"><a xlink:title=" ">
<polygon fill="none" stroke="#bfbfbf" points="354.95,-168.5 354.95,-187.5 407.95,-187.5 407.95,-168.5 354.95,-168.5"/>
<text text-anchor="middle" x="381.45" y="-175.5" font-family="Helvetica,sans-Serif" font-size="10.00">stdlib.h</text>
</a>
</g>
</g>
<!-- Node1&#45;&gt;Node9 -->
<g id="edge13" class="edge">
<title>Node1&#45;&gt;Node9</title>
<path fill="none" stroke="midnightblue" d="M203.88,-224.44C242.36,-214.59 305.35,-198.47 345.05,-188.32"/>
<polygon fill="midnightblue" stroke="midnightblue" points="346.03,-191.68 354.85,-185.81 344.29,-184.9 346.03,-191.68"/>
</g>
<!-- Node10 -->
<g id="node10" class="node">
<title>Node10</title>
<g id="a_node10"><a xlink:title=" ">
<polygon fill="none" stroke="#bfbfbf" points="425.95,-168.5 425.95,-187.5 478.95,-187.5 478.95,-168.5 425.95,-168.5"/>
<text text-anchor="middle" x="452.45" y="-175.5" font-family="Helvetica,sans-Serif" font-size="10.00">string.h</text>
</a>
</g>
</g>
<!-- Node1&#45;&gt;Node10 -->
<g id="edge14" class="edge">
<title>Node1&#45;&gt;Node10</title>
<path fill="none" stroke="midnightblue" d="M204.56,-227.58C250.49,-220.1 334.95,-205.76 415.89,-188.23"/>
<polygon fill="midnightblue" stroke="midnightblue" points="416.72,-191.63 425.74,-186.08 415.22,-184.79 416.72,-191.63"/>
</g>
<!-- Node2&#45;&gt;Node3 -->
<g id="edge2" class="edge">
<title>Node2&#45;&gt;Node3</title>
<path fill="none" stroke="midnightblue" d="M67.45,-112.37C67.45,-94.62 67.45,-53.67 67.45,-29.6"/>
<polygon fill="midnightblue" stroke="midnightblue" points="70.95,-29.59 67.45,-19.59 63.95,-29.59 70.95,-29.59"/>
</g>
<!-- Node2&#45;&gt;Node4 -->
<g id="edge3" class="edge">
<title>Node2&#45;&gt;Node4</title>
<path fill="none" stroke="midnightblue" d="M77.57,-112.32C86.97,-104.26 101.19,-92.08 112.52,-82.37"/>
<polygon fill="midnightblue" stroke="midnightblue" points="114.83,-85 120.14,-75.83 110.27,-79.68 114.83,-85"/>
</g>
<!-- Node4&#45;&gt;Node3 -->
<g id="edge4" class="edge">
<title>Node4&#45;&gt;Node3</title>
<path fill="none" stroke="midnightblue" d="M120.32,-56.32C110.92,-48.26 96.7,-36.08 85.38,-26.37"/>
<polygon fill="midnightblue" stroke="midnightblue" points="87.62,-23.68 77.75,-19.83 83.07,-29 87.62,-23.68"/>
</g>
<!-- Node5&#45;&gt;Node2 -->
<g id="edge7" class="edge">
<title>Node5&#45;&gt;Node2</title>
<path fill="none" stroke="midnightblue" d="M67.45,-168.08C67.45,-161.01 67.45,-150.86 67.45,-141.99"/>
<polygon fill="midnightblue" stroke="midnightblue" points="70.95,-141.75 67.45,-131.75 63.95,-141.75 70.95,-141.75"/>
</g>
<!-- Node6&#45;&gt;Node4 -->
<g id="edge9" class="edge">
<title>Node6&#45;&gt;Node4</title>
<path fill="none" stroke="midnightblue" d="M193.4,-112.32C181.98,-104.11 164.62,-91.6 151.01,-81.81"/>
<polygon fill="midnightblue" stroke="midnightblue" points="152.88,-78.84 142.72,-75.83 148.79,-84.52 152.88,-78.84"/>
</g>
</g>
</svg>
