<?xml version="1.0" encoding="UTF-8" standalone="no"?>
<!DOCTYPE svg PUBLIC "-//W3C//DTD SVG 1.1//EN"
 "http://www.w3.org/Graphics/SVG/1.1/DTD/svg11.dtd">
<!-- Generated by graphviz version 2.50.0 (0)
 -->
<!-- Title: RetornaCuidadorProx Pages: 1 -->
<svg width="267pt" height="66pt"
 viewBox="0.00 0.00 267.00 66.00" xmlns="http://www.w3.org/2000/svg" xmlns:xlink="http://www.w3.org/1999/xlink">
<g id="graph0" class="graph" transform="scale(1 1) rotate(0) translate(4 62)">
<title>RetornaCuidadorProx</title>
<!-- Node1 -->
<g id="node1" class="node">
<title>Node1</title>
<g id="a_node1"><a xlink:title="Retorna o cuidador mais proximo do ponto de referencia entre os presentes na lista.">
<polygon fill="#bfbfbf" stroke="black" points="0,-19.5 0,-38.5 120,-38.5 120,-19.5 0,-19.5"/>
<text text-anchor="middle" x="60" y="-26.5" font-family="Helvetica,sans-Serif" font-size="10.00">RetornaCuidadorProx</text>
</a>
</g>
</g>
<!-- Node2 -->
<g id="node2" class="node">
<title>Node2</title>
<g id="a_node2"><a xlink:href="geoloc_8h.html#a58b31cb21ffe9fe839d9c2e0f69772a8" target="_top" xlink:title="Calcula a distancia entre duas localizacoes Retornando um double resultante do calculo.">
<polygon fill="none" stroke="black" points="169,-38.5 169,-57.5 246,-57.5 246,-38.5 169,-38.5"/>
<text text-anchor="middle" x="207.5" y="-45.5" font-family="Helvetica,sans-Serif" font-size="10.00">CalcDistGeo</text>
</a>
</g>
</g>
<!-- Node1&#45;&gt;Node2 -->
<g id="edge1" class="edge">
<title>Node1&#45;&gt;Node2</title>
<path fill="none" stroke="midnightblue" d="M120.18,-36.73C132.97,-38.4 146.33,-40.14 158.62,-41.75"/>
<polygon fill="midnightblue" stroke="midnightblue" points="158.28,-45.23 168.65,-43.06 159.19,-38.29 158.28,-45.23"/>
</g>
<!-- Node3 -->
<g id="node3" class="node">
<title>Node3</title>
<g id="a_node3"><a xlink:href="cuidador_8h.html#a0b02209f82186c9bd84ca27c3c01b58e" target="_top" xlink:title="Retorna o Local (de tipo Geoloc) do objeto Cuidador.">
<polygon fill="none" stroke="black" points="156,-0.5 156,-19.5 259,-19.5 259,-0.5 156,-0.5"/>
<text text-anchor="middle" x="207.5" y="-7.5" font-family="Helvetica,sans-Serif" font-size="10.00">GetLocalCuidador</text>
</a>
</g>
</g>
<!-- Node1&#45;&gt;Node3 -->
<g id="edge2" class="edge">
<title>Node1&#45;&gt;Node3</title>
<path fill="none" stroke="midnightblue" d="M120.18,-21.27C128.57,-20.18 137.21,-19.05 145.63,-17.95"/>
<polygon fill="midnightblue" stroke="midnightblue" points="146.3,-21.39 155.76,-16.63 145.4,-14.45 146.3,-21.39"/>
</g>
</g>
</svg>
