<?xml version="1.0" encoding="UTF-8" standalone="no"?>
<!DOCTYPE svg PUBLIC "-//W3C//DTD SVG 1.1//EN"
 "http://www.w3.org/Graphics/SVG/1.1/DTD/svg11.dtd">
<!-- Generated by graphviz version 2.50.0 (0)
 -->
<!-- Title: headers/listaIdoso.h Pages: 1 -->
<svg width="277pt" height="84pt"
 viewBox="0.00 0.00 277.00 84.00" xmlns="http://www.w3.org/2000/svg" xmlns:xlink="http://www.w3.org/1999/xlink">
<g id="graph0" class="graph" transform="scale(1 1) rotate(0) translate(4 80)">
<title>headers/listaIdoso.h</title>
<!-- Node1 -->
<g id="node1" class="node">
<title>Node1</title>
<g id="a_node1"><a xlink:title=" ">
<polygon fill="#bfbfbf" stroke="black" points="70,-56.5 70,-75.5 185,-75.5 185,-56.5 70,-56.5"/>
<text text-anchor="middle" x="127.5" y="-63.5" font-family="Helvetica,sans-Serif" font-size="10.00">headers/listaIdoso.h</text>
</a>
</g>
</g>
<!-- Node2 -->
<g id="node2" class="node">
<title>Node2</title>
<g id="a_node2"><a xlink:href="cliente_8c.html" target="_top" xlink:title=" ">
<polygon fill="none" stroke="black" points="0,-0.5 0,-19.5 75,-19.5 75,-0.5 0,-0.5"/>
<text text-anchor="middle" x="37.5" y="-7.5" font-family="Helvetica,sans-Serif" font-size="10.00">src/cliente.c</text>
</a>
</g>
</g>
<!-- Node1&#45;&gt;Node2 -->
<g id="edge1" class="edge">
<title>Node1&#45;&gt;Node2</title>
<path fill="none" stroke="midnightblue" d="M104.46,-51.18C87.9,-41.24 66.08,-28.15 51.92,-19.65"/>
<polygon fill="midnightblue" stroke="midnightblue" points="102.66,-54.18 113.04,-56.32 106.27,-48.18 102.66,-54.18"/>
</g>
<!-- Node3 -->
<g id="node3" class="node">
<title>Node3</title>
<g id="a_node3"><a xlink:href="idoso_8c.html" target="_top" xlink:title=" ">
<polygon fill="none" stroke="black" points="93.5,-0.5 93.5,-19.5 161.5,-19.5 161.5,-0.5 93.5,-0.5"/>
<text text-anchor="middle" x="127.5" y="-7.5" font-family="Helvetica,sans-Serif" font-size="10.00">src/idoso.c</text>
</a>
</g>
</g>
<!-- Node1&#45;&gt;Node3 -->
<g id="edge2" class="edge">
<title>Node1&#45;&gt;Node3</title>
<path fill="none" stroke="midnightblue" d="M127.5,-45.8C127.5,-36.91 127.5,-26.78 127.5,-19.75"/>
<polygon fill="midnightblue" stroke="midnightblue" points="124,-46.08 127.5,-56.08 131,-46.08 124,-46.08"/>
</g>
<!-- Node4 -->
<g id="node4" class="node">
<title>Node4</title>
<g id="a_node4"><a xlink:href="lista_idoso_8c.html" target="_top" xlink:title=" ">
<polygon fill="none" stroke="black" points="180,-0.5 180,-19.5 269,-19.5 269,-0.5 180,-0.5"/>
<text text-anchor="middle" x="224.5" y="-7.5" font-family="Helvetica,sans-Serif" font-size="10.00">src/listaIdoso.c</text>
</a>
</g>
</g>
<!-- Node1&#45;&gt;Node4 -->
<g id="edge3" class="edge">
<title>Node1&#45;&gt;Node4</title>
<path fill="none" stroke="midnightblue" d="M151.84,-51.45C169.74,-41.48 193.55,-28.23 208.95,-19.65"/>
<polygon fill="midnightblue" stroke="midnightblue" points="150.12,-48.4 143.08,-56.32 153.52,-54.52 150.12,-48.4"/>
</g>
</g>
</svg>
