<?xml version="1.0" encoding="UTF-8" standalone="no"?>
<!DOCTYPE svg PUBLIC "-//W3C//DTD SVG 1.1//EN"
 "http://www.w3.org/Graphics/SVG/1.1/DTD/svg11.dtd">
<!-- Generated by graphviz version 2.50.0 (0)
 -->
<!-- Title: headers/listaIdoso.h Pages: 1 -->
<svg width="130pt" height="196pt"
 viewBox="0.00 0.00 130.00 196.00" xmlns="http://www.w3.org/2000/svg" xmlns:xlink="http://www.w3.org/1999/xlink">
<g id="graph0" class="graph" transform="scale(1 1) rotate(0) translate(4 192)">
<title>headers/listaIdoso.h</title>
<!-- Node1 -->
<g id="node1" class="node">
<title>Node1</title>
<g id="a_node1"><a xlink:title=" ">
<polygon fill="#bfbfbf" stroke="black" points="0,-168.5 0,-187.5 115,-187.5 115,-168.5 0,-168.5"/>
<text text-anchor="middle" x="57.5" y="-175.5" font-family="Helvetica,sans-Serif" font-size="10.00">headers/listaIdoso.h</text>
</a>
</g>
</g>
<!-- Node2 -->
<g id="node2" class="node">
<title>Node2</title>
<g id="a_node2"><a xlink:href="idoso_8h.html" target="_top" xlink:title=" ">
<polygon fill="none" stroke="black" points="31.5,-112.5 31.5,-131.5 83.5,-131.5 83.5,-112.5 31.5,-112.5"/>
<text text-anchor="middle" x="57.5" y="-119.5" font-family="Helvetica,sans-Serif" font-size="10.00">idoso.h</text>
</a>
</g>
</g>
<!-- Node1&#45;&gt;Node2 -->
<g id="edge1" class="edge">
<title>Node1&#45;&gt;Node2</title>
<path fill="none" stroke="midnightblue" d="M57.5,-168.08C57.5,-161.01 57.5,-150.86 57.5,-141.99"/>
<polygon fill="midnightblue" stroke="midnightblue" points="61,-141.75 57.5,-131.75 54,-141.75 61,-141.75"/>
</g>
<!-- Node3 -->
<g id="node3" class="node">
<title>Node3</title>
<g id="a_node3"><a xlink:href="geoloc_8h.html" target="_top" xlink:title=" ">
<polygon fill="none" stroke="black" points="28.5,-0.5 28.5,-19.5 86.5,-19.5 86.5,-0.5 28.5,-0.5"/>
<text text-anchor="middle" x="57.5" y="-7.5" font-family="Helvetica,sans-Serif" font-size="10.00">geoloc.h</text>
</a>
</g>
</g>
<!-- Node2&#45;&gt;Node3 -->
<g id="edge2" class="edge">
<title>Node2&#45;&gt;Node3</title>
<path fill="none" stroke="midnightblue" d="M54.41,-112.17C51.45,-103.2 47.18,-88.83 45.5,-76 43.43,-60.18 47.15,-42.36 50.98,-29.39"/>
<polygon fill="midnightblue" stroke="midnightblue" points="54.34,-30.38 54.1,-19.79 47.68,-28.22 54.34,-30.38"/>
</g>
<!-- Node4 -->
<g id="node4" class="node">
<title>Node4</title>
<g id="a_node4"><a xlink:href="cuidador_8h.html" target="_top" xlink:title=" ">
<polygon fill="none" stroke="black" points="55,-56.5 55,-75.5 122,-75.5 122,-56.5 55,-56.5"/>
<text text-anchor="middle" x="88.5" y="-63.5" font-family="Helvetica,sans-Serif" font-size="10.00">cuidador.h</text>
</a>
</g>
</g>
<!-- Node2&#45;&gt;Node4 -->
<g id="edge3" class="edge">
<title>Node2&#45;&gt;Node4</title>
<path fill="none" stroke="midnightblue" d="M62.62,-112.08C66.91,-104.61 73.16,-93.72 78.44,-84.52"/>
<polygon fill="midnightblue" stroke="midnightblue" points="81.53,-86.17 83.48,-75.75 75.46,-82.68 81.53,-86.17"/>
</g>
<!-- Node4&#45;&gt;Node3 -->
<g id="edge4" class="edge">
<title>Node4&#45;&gt;Node3</title>
<path fill="none" stroke="midnightblue" d="M83.38,-56.08C79.09,-48.61 72.84,-37.72 67.56,-28.52"/>
<polygon fill="midnightblue" stroke="midnightblue" points="70.54,-26.68 62.52,-19.75 64.47,-30.17 70.54,-26.68"/>
</g>
</g>
</svg>
