<?xml version="1.0" encoding="UTF-8" standalone="no"?>
<!DOCTYPE svg PUBLIC "-//W3C//DTD SVG 1.1//EN"
 "http://www.w3.org/Graphics/SVG/1.1/DTD/svg11.dtd">
<!-- Generated by graphviz version 2.50.0 (0)
 -->
<!-- Title: celulaIdoso Pages: 1 -->
<svg width="344pt" height="307pt"
 viewBox="0.00 0.00 343.50 307.00" xmlns="http://www.w3.org/2000/svg" xmlns:xlink="http://www.w3.org/1999/xlink">
<g id="graph0" class="graph" transform="scale(1 1) rotate(0) translate(4 303)">
<title>celulaIdoso</title>
<!-- Node1 -->
<g id="node1" class="node">
<title>Node1</title>
<g id="a_node1"><a xlink:title=" ">
<polygon fill="#bfbfbf" stroke="black" points="4,-145.5 4,-164.5 76,-164.5 76,-145.5 4,-145.5"/>
<text text-anchor="middle" x="40" y="-152.5" font-family="Helvetica,sans-Serif" font-size="10.00">celulaIdoso</text>
</a>
</g>
</g>
<!-- Node1&#45;&gt;Node1 -->
<g id="edge10" class="edge">
<title>Node1&#45;&gt;Node1</title>
<path fill="none" stroke="#9a32cd" stroke-dasharray="5,2" d="M86.21,-159.95C90.96,-158.97 94,-157.32 94,-155 94,-151.28 86.22,-149.29 76.09,-149.03"/>
<polygon fill="#9a32cd" stroke="#9a32cd" points="85.68,-156.48 76.09,-160.97 86.39,-163.45 85.68,-156.48"/>
<text text-anchor="middle" x="106.5" y="-152.5" font-family="Helvetica,sans-Serif" font-size="10.00"> prox</text>
</g>
<!-- Node4 -->
<g id="node4" class="node">
<title>Node4</title>
<g id="a_node4"><a xlink:href="structlista_idoso.html" target="_top" xlink:title=" ">
<polygon fill="none" stroke="black" points="0,-67.5 0,-86.5 64,-86.5 64,-67.5 0,-67.5"/>
<text text-anchor="middle" x="32" y="-74.5" font-family="Helvetica,sans-Serif" font-size="10.00">listaIdoso</text>
</a>
</g>
</g>
<!-- Node1&#45;&gt;Node4 -->
<g id="edge4" class="edge">
<title>Node1&#45;&gt;Node4</title>
<path fill="none" stroke="#9a32cd" stroke-dasharray="5,2" d="M38.02,-135.22C36.39,-119.7 34.14,-98.36 32.91,-86.62"/>
<polygon fill="#9a32cd" stroke="#9a32cd" points="34.55,-135.7 39.08,-145.28 41.52,-134.97 34.55,-135.7"/>
<text text-anchor="middle" x="50" y="-119" font-family="Helvetica,sans-Serif" font-size="10.00"> prim</text>
<text text-anchor="middle" x="50" y="-108" font-family="Helvetica,sans-Serif" font-size="10.00">ult</text>
</g>
<!-- Node2 -->
<g id="node2" class="node">
<title>Node2</title>
<g id="a_node2"><a xlink:href="structidoso.html" target="_top" xlink:title=" ">
<polygon fill="none" stroke="black" points="107.5,-0.5 107.5,-19.5 150.5,-19.5 150.5,-0.5 107.5,-0.5"/>
<text text-anchor="middle" x="129" y="-7.5" font-family="Helvetica,sans-Serif" font-size="10.00">idoso</text>
</a>
</g>
</g>
<!-- Node2&#45;&gt;Node1 -->
<g id="edge1" class="edge">
<title>Node2&#45;&gt;Node1</title>
<path fill="none" stroke="#9a32cd" stroke-dasharray="5,2" d="M121.33,-29.13C110.88,-52.82 90.71,-95.03 67,-127 62.02,-133.71 55.41,-140.35 49.97,-145.37"/>
<polygon fill="#9a32cd" stroke="#9a32cd" points="124.67,-30.22 125.43,-19.66 118.25,-27.45 124.67,-30.22"/>
<text text-anchor="middle" x="119" y="-74.5" font-family="Helvetica,sans-Serif" font-size="10.00"> idoso</text>
</g>
<!-- Node3 -->
<g id="node3" class="node">
<title>Node3</title>
<g id="a_node3"><a xlink:href="structgeoloc.html" target="_top" xlink:title=" ">
<polygon fill="none" stroke="black" points="149.5,-279.5 149.5,-298.5 198.5,-298.5 198.5,-279.5 149.5,-279.5"/>
<text text-anchor="middle" x="174" y="-286.5" font-family="Helvetica,sans-Serif" font-size="10.00">geoloc</text>
</a>
</g>
</g>
<!-- Node3&#45;&gt;Node2 -->
<g id="edge2" class="edge">
<title>Node3&#45;&gt;Node2</title>
<path fill="none" stroke="#9a32cd" stroke-dasharray="5,2" d="M167.03,-269.82C162.72,-256.94 158,-239.16 158,-223 158,-223 158,-223 158,-76 158,-54.25 144.29,-31.68 135.73,-19.7"/>
<polygon fill="#9a32cd" stroke="#9a32cd" points="163.78,-271.11 170.45,-279.34 170.37,-268.74 163.78,-271.11"/>
<text text-anchor="middle" x="171.5" y="-152.5" font-family="Helvetica,sans-Serif" font-size="10.00"> local</text>
</g>
<!-- Node7 -->
<g id="node7" class="node">
<title>Node7</title>
<g id="a_node7"><a xlink:href="structcuidador.html" target="_top" xlink:title=" ">
<polygon fill="none" stroke="black" points="202.5,-212.5 202.5,-231.5 261.5,-231.5 261.5,-212.5 202.5,-212.5"/>
<text text-anchor="middle" x="232" y="-219.5" font-family="Helvetica,sans-Serif" font-size="10.00">cuidador</text>
</a>
</g>
</g>
<!-- Node3&#45;&gt;Node7 -->
<g id="edge8" class="edge">
<title>Node3&#45;&gt;Node7</title>
<path fill="none" stroke="#9a32cd" stroke-dasharray="5,2" d="M188.6,-271.63C199.95,-258.92 215.23,-241.8 224.3,-231.63"/>
<polygon fill="#9a32cd" stroke="#9a32cd" points="185.87,-269.44 181.82,-279.23 191.09,-274.1 185.87,-269.44"/>
<text text-anchor="middle" x="220.5" y="-253" font-family="Helvetica,sans-Serif" font-size="10.00"> local</text>
</g>
<!-- Node4&#45;&gt;Node2 -->
<g id="edge3" class="edge">
<title>Node4&#45;&gt;Node2</title>
<path fill="none" stroke="#9a32cd" stroke-dasharray="5,2" d="M35.31,-57.28C37.37,-50.43 40.68,-43.12 46,-38 62.6,-22.03 88.75,-15.51 107.25,-12.84"/>
<polygon fill="#9a32cd" stroke="#9a32cd" points="31.85,-56.74 33.01,-67.27 38.67,-58.31 31.85,-56.74"/>
<text text-anchor="middle" x="66" y="-41" font-family="Helvetica,sans-Serif" font-size="10.00"> amigos</text>
</g>
<!-- Node5 -->
<g id="node5" class="node">
<title>Node5</title>
<g id="a_node5"><a xlink:href="structlista_cui.html" target="_top" xlink:title=" ">
<polygon fill="none" stroke="black" points="203.5,-67.5 203.5,-86.5 256.5,-86.5 256.5,-67.5 203.5,-67.5"/>
<text text-anchor="middle" x="230" y="-74.5" font-family="Helvetica,sans-Serif" font-size="10.00">listaCui</text>
</a>
</g>
</g>
<!-- Node5&#45;&gt;Node2 -->
<g id="edge5" class="edge">
<title>Node5&#45;&gt;Node2</title>
<path fill="none" stroke="#9a32cd" stroke-dasharray="5,2" d="M208.66,-61.88C197.73,-54.68 184.19,-45.82 172,-38 162.35,-31.81 151.42,-24.95 142.99,-19.69"/>
<polygon fill="#9a32cd" stroke="#9a32cd" points="206.87,-64.89 217.15,-67.48 210.73,-59.05 206.87,-64.89"/>
<text text-anchor="middle" x="216.5" y="-41" font-family="Helvetica,sans-Serif" font-size="10.00"> cuidadores</text>
</g>
<!-- Node6 -->
<g id="node6" class="node">
<title>Node6</title>
<g id="a_node6"><a xlink:href="structcelula_cuidador.html" target="_top" xlink:title=" ">
<polygon fill="none" stroke="black" points="203.5,-145.5 203.5,-164.5 292.5,-164.5 292.5,-145.5 203.5,-145.5"/>
<text text-anchor="middle" x="248" y="-152.5" font-family="Helvetica,sans-Serif" font-size="10.00">celulaCuidador</text>
</a>
</g>
</g>
<!-- Node6&#45;&gt;Node5 -->
<g id="edge6" class="edge">
<title>Node6&#45;&gt;Node5</title>
<path fill="none" stroke="#9a32cd" stroke-dasharray="5,2" d="M243.55,-135.22C239.88,-119.7 234.82,-98.36 232.04,-86.62"/>
<polygon fill="#9a32cd" stroke="#9a32cd" points="240.22,-136.36 245.94,-145.28 247.04,-134.74 240.22,-136.36"/>
<text text-anchor="middle" x="254" y="-119" font-family="Helvetica,sans-Serif" font-size="10.00"> prim</text>
<text text-anchor="middle" x="254" y="-108" font-family="Helvetica,sans-Serif" font-size="10.00">ult</text>
</g>
<!-- Node6&#45;&gt;Node6 -->
<g id="edge9" class="edge">
<title>Node6&#45;&gt;Node6</title>
<path fill="none" stroke="#9a32cd" stroke-dasharray="5,2" d="M302.83,-159.69C307.55,-158.69 310.5,-157.13 310.5,-155 310.5,-151.59 302.95,-149.64 292.66,-149.13"/>
<polygon fill="#9a32cd" stroke="#9a32cd" points="302.19,-156.24 292.66,-160.87 303,-163.19 302.19,-156.24"/>
<text text-anchor="middle" x="323" y="-152.5" font-family="Helvetica,sans-Serif" font-size="10.00"> prox</text>
</g>
<!-- Node7&#45;&gt;Node6 -->
<g id="edge7" class="edge">
<title>Node7&#45;&gt;Node6</title>
<path fill="none" stroke="#9a32cd" stroke-dasharray="5,2" d="M236.57,-202.41C239.63,-189.99 243.52,-174.22 245.88,-164.63"/>
<polygon fill="#9a32cd" stroke="#9a32cd" points="233.15,-201.69 234.16,-212.23 239.95,-203.36 233.15,-201.69"/>
<text text-anchor="middle" x="256" y="-186" font-family="Helvetica,sans-Serif" font-size="10.00"> cuida</text>
</g>
</g>
</svg>
