<?xml version="1.0" encoding="UTF-8" standalone="no"?>
<!DOCTYPE svg PUBLIC "-//W3C//DTD SVG 1.1//EN"
 "http://www.w3.org/Graphics/SVG/1.1/DTD/svg11.dtd">
<!-- Generated by graphviz version 2.50.0 (0)
 -->
<!-- Title: celulaCuidador Pages: 1 -->
<svg width="140pt" height="162pt"
 viewBox="0.00 0.00 140.00 162.00" xmlns="http://www.w3.org/2000/svg" xmlns:xlink="http://www.w3.org/1999/xlink">
<g id="graph0" class="graph" transform="scale(1 1) rotate(0) translate(4 158)">
<title>celulaCuidador</title>
<!-- Node1 -->
<g id="node1" class="node">
<title>Node1</title>
<g id="a_node1"><a xlink:title=" ">
<polygon fill="#bfbfbf" stroke="black" points="0,-0.5 0,-19.5 89,-19.5 89,-0.5 0,-0.5"/>
<text text-anchor="middle" x="44.5" y="-7.5" font-family="Helvetica,sans-Serif" font-size="10.00">celulaCuidador</text>
</a>
</g>
</g>
<!-- Node1&#45;&gt;Node1 -->
<g id="edge3" class="edge">
<title>Node1&#45;&gt;Node1</title>
<path fill="none" stroke="#9a32cd" stroke-dasharray="5,2" d="M99.33,-14.69C104.05,-13.69 107,-12.13 107,-10 107,-6.59 99.45,-4.64 89.16,-4.13"/>
<polygon fill="#9a32cd" stroke="#9a32cd" points="98.69,-11.24 89.16,-15.87 99.5,-18.19 98.69,-11.24"/>
<text text-anchor="middle" x="119.5" y="-7.5" font-family="Helvetica,sans-Serif" font-size="10.00"> prox</text>
</g>
<!-- Node2 -->
<g id="node2" class="node">
<title>Node2</title>
<g id="a_node2"><a xlink:href="structcuidador.html" target="_top" xlink:title=" ">
<polygon fill="none" stroke="black" points="15,-67.5 15,-86.5 74,-86.5 74,-67.5 15,-67.5"/>
<text text-anchor="middle" x="44.5" y="-74.5" font-family="Helvetica,sans-Serif" font-size="10.00">cuidador</text>
</a>
</g>
</g>
<!-- Node2&#45;&gt;Node1 -->
<g id="edge1" class="edge">
<title>Node2&#45;&gt;Node1</title>
<path fill="none" stroke="#9a32cd" stroke-dasharray="5,2" d="M44.5,-57.04C44.5,-44.67 44.5,-29.12 44.5,-19.63"/>
<polygon fill="#9a32cd" stroke="#9a32cd" points="41,-57.23 44.5,-67.23 48,-57.23 41,-57.23"/>
<text text-anchor="middle" x="59.5" y="-41" font-family="Helvetica,sans-Serif" font-size="10.00"> cuida</text>
</g>
<!-- Node3 -->
<g id="node3" class="node">
<title>Node3</title>
<g id="a_node3"><a xlink:href="structgeoloc.html" target="_top" xlink:title=" ">
<polygon fill="none" stroke="black" points="20,-134.5 20,-153.5 69,-153.5 69,-134.5 20,-134.5"/>
<text text-anchor="middle" x="44.5" y="-141.5" font-family="Helvetica,sans-Serif" font-size="10.00">geoloc</text>
</a>
</g>
</g>
<!-- Node3&#45;&gt;Node2 -->
<g id="edge2" class="edge">
<title>Node3&#45;&gt;Node2</title>
<path fill="none" stroke="#9a32cd" stroke-dasharray="5,2" d="M44.5,-124.04C44.5,-111.67 44.5,-96.12 44.5,-86.63"/>
<polygon fill="#9a32cd" stroke="#9a32cd" points="41,-124.23 44.5,-134.23 48,-124.23 41,-124.23"/>
<text text-anchor="middle" x="58" y="-108" font-family="Helvetica,sans-Serif" font-size="10.00"> local</text>
</g>
</g>
</svg>
