<?xml version="1.0" encoding="UTF-8" standalone="no"?>
<!DOCTYPE svg PUBLIC "-//W3C//DTD SVG 1.1//EN"
 "http://www.w3.org/Graphics/SVG/1.1/DTD/svg11.dtd">
<!-- Generated by graphviz version 2.50.0 (0)
 -->
<!-- Title: AtualizaCuidador Pages: 1 -->
<svg width="361pt" height="28pt"
 viewBox="0.00 0.00 361.00 28.00" xmlns="http://www.w3.org/2000/svg" xmlns:xlink="http://www.w3.org/1999/xlink">
<g id="graph0" class="graph" transform="scale(1 1) rotate(0) translate(4 24)">
<title>AtualizaCuidador</title>
<!-- Node1 -->
<g id="node1" class="node">
<title>Node1</title>
<g id="a_node1"><a xlink:title="Faz a leitura de uma nova linha do arquivo referente ao cuidador, atualizando seu local no dado tempo...">
<polygon fill="#bfbfbf" stroke="black" points="0,-0.5 0,-19.5 100,-19.5 100,-0.5 0,-0.5"/>
<text text-anchor="middle" x="50" y="-7.5" font-family="Helvetica,sans-Serif" font-size="10.00">AtualizaCuidador</text>
</a>
</g>
</g>
<!-- Node2 -->
<g id="node2" class="node">
<title>Node2</title>
<g id="a_node2"><a xlink:href="cuidador_8c.html#a8eb550092858dafae62ebcc83fa99921" target="_top" xlink:title="Define o Local (de tipo Geoloc) do objeto Cuidador.">
<polygon fill="none" stroke="black" points="136,-0.5 136,-19.5 237,-19.5 237,-0.5 136,-0.5"/>
<text text-anchor="middle" x="186.5" y="-7.5" font-family="Helvetica,sans-Serif" font-size="10.00">SetLocalCuidador</text>
</a>
</g>
</g>
<!-- Node1&#45;&gt;Node2 -->
<g id="edge1" class="edge">
<title>Node1&#45;&gt;Node2</title>
<path fill="none" stroke="midnightblue" d="M100.32,-10C108.53,-10 117.12,-10 125.56,-10"/>
<polygon fill="midnightblue" stroke="midnightblue" points="125.74,-13.5 135.74,-10 125.74,-6.5 125.74,-13.5"/>
</g>
<!-- Node3 -->
<g id="node3" class="node">
<title>Node3</title>
<g id="a_node3"><a xlink:href="geoloc_8h.html#ad15a017b73ab2909652b15b346373bb7" target="_top" xlink:title="Define a geolocalizacao dada para os valores de latitude e longitude passados.">
<polygon fill="none" stroke="black" points="273,-0.5 273,-19.5 353,-19.5 353,-0.5 273,-0.5"/>
<text text-anchor="middle" x="313" y="-7.5" font-family="Helvetica,sans-Serif" font-size="10.00">MudaPosGeo</text>
</a>
</g>
</g>
<!-- Node2&#45;&gt;Node3 -->
<g id="edge2" class="edge">
<title>Node2&#45;&gt;Node3</title>
<path fill="none" stroke="midnightblue" d="M237.06,-10C245.55,-10 254.36,-10 262.84,-10"/>
<polygon fill="midnightblue" stroke="midnightblue" points="262.96,-13.5 272.96,-10 262.96,-6.5 262.96,-13.5"/>
</g>
</g>
</svg>
