<?xml version="1.0" encoding="UTF-8" standalone="no"?>
<!DOCTYPE svg PUBLIC "-//W3C//DTD SVG 1.1//EN"
 "http://www.w3.org/Graphics/SVG/1.1/DTD/svg11.dtd">
<!-- Generated by graphviz version 2.50.0 (0)
 -->
<!-- Title: IniciaCuidador Pages: 1 -->
<svg width="272pt" height="104pt"
 viewBox="0.00 0.00 272.00 104.00" xmlns="http://www.w3.org/2000/svg" xmlns:xlink="http://www.w3.org/1999/xlink">
<g id="graph0" class="graph" transform="scale(1 1) rotate(0) translate(4 100)">
<title>IniciaCuidador</title>
<!-- Node1 -->
<g id="node1" class="node">
<title>Node1</title>
<g id="a_node1"><a xlink:title="Faz a alocacao de memoria e inicializacao de uma variavel do tipo cuidador.">
<polygon fill="#bfbfbf" stroke="black" points="0,-38.5 0,-57.5 86,-57.5 86,-38.5 0,-38.5"/>
<text text-anchor="middle" x="43" y="-45.5" font-family="Helvetica,sans-Serif" font-size="10.00">IniciaCuidador</text>
</a>
</g>
</g>
<!-- Node2 -->
<g id="node2" class="node">
<title>Node2</title>
<g id="a_node2"><a xlink:href="pathman_8h.html#a8ac57bc6fde707215bb75ce25309489b" target="_top" xlink:title="adiciona uma string no final do caminho, com um divisor no meio se o path terminar com um divisor,...">
<polygon fill="none" stroke="black" points="131,-76.5 131,-95.5 175,-95.5 175,-76.5 131,-76.5"/>
<text text-anchor="middle" x="153" y="-83.5" font-family="Helvetica,sans-Serif" font-size="10.00">adpth</text>
</a>
</g>
</g>
<!-- Node1&#45;&gt;Node2 -->
<g id="edge1" class="edge">
<title>Node1&#45;&gt;Node2</title>
<path fill="none" stroke="midnightblue" d="M71.25,-57.59C86.43,-62.93 105.37,-69.59 121.09,-75.12"/>
<polygon fill="midnightblue" stroke="midnightblue" points="120.29,-78.55 130.89,-78.57 122.62,-71.95 120.29,-78.55"/>
</g>
<!-- Node4 -->
<g id="node4" class="node">
<title>Node4</title>
<g id="a_node4"><a xlink:href="pathman_8h.html#a18886c8669c2a9541f75720f21bdb84c" target="_top" xlink:title="Extend path: adiciona uma string no final do caminho.">
<polygon fill="none" stroke="black" points="131,-38.5 131,-57.5 175,-57.5 175,-38.5 131,-38.5"/>
<text text-anchor="middle" x="153" y="-45.5" font-family="Helvetica,sans-Serif" font-size="10.00">expth</text>
</a>
</g>
</g>
<!-- Node1&#45;&gt;Node4 -->
<g id="edge3" class="edge">
<title>Node1&#45;&gt;Node4</title>
<path fill="none" stroke="midnightblue" d="M86.06,-48C97.61,-48 109.93,-48 120.75,-48"/>
<polygon fill="midnightblue" stroke="midnightblue" points="121,-51.5 131,-48 121,-44.5 121,-51.5"/>
</g>
<!-- Node5 -->
<g id="node5" class="node">
<title>Node5</title>
<g id="a_node5"><a xlink:href="geoloc_8h.html#afbcdcb86de07f57b99d242367e2a4a05" target="_top" xlink:title="Faz a alocacao de memoria e inicializacao de uma variavel do tipo Geoloc, responsavel por armazenas e...">
<polygon fill="none" stroke="black" points="122,-0.5 122,-19.5 184,-19.5 184,-0.5 122,-0.5"/>
<text text-anchor="middle" x="153" y="-7.5" font-family="Helvetica,sans-Serif" font-size="10.00">IniciaGeo</text>
</a>
</g>
</g>
<!-- Node1&#45;&gt;Node5 -->
<g id="edge4" class="edge">
<title>Node1&#45;&gt;Node5</title>
<path fill="none" stroke="midnightblue" d="M71.25,-38.41C84.56,-33.73 100.75,-28.03 115.14,-22.97"/>
<polygon fill="midnightblue" stroke="midnightblue" points="116.48,-26.21 124.76,-19.59 114.16,-19.6 116.48,-26.21"/>
</g>
<!-- Node3 -->
<g id="node3" class="node">
<title>Node3</title>
<g id="a_node3"><a xlink:href="pathman_8c.html#a18886c8669c2a9541f75720f21bdb84c" target="_top" xlink:title="Extend path: adiciona uma string no final do caminho.">
<polygon fill="none" stroke="black" points="220,-76.5 220,-95.5 264,-95.5 264,-76.5 220,-76.5"/>
<text text-anchor="middle" x="242" y="-83.5" font-family="Helvetica,sans-Serif" font-size="10.00">expth</text>
</a>
</g>
</g>
<!-- Node2&#45;&gt;Node3 -->
<g id="edge2" class="edge">
<title>Node2&#45;&gt;Node3</title>
<path fill="none" stroke="midnightblue" d="M175.06,-86C185.46,-86 198.21,-86 209.71,-86"/>
<polygon fill="midnightblue" stroke="midnightblue" points="209.83,-89.5 219.83,-86 209.83,-82.5 209.83,-89.5"/>
</g>
</g>
</svg>
