<?xml version="1.0" encoding="UTF-8" standalone="no"?>
<!DOCTYPE svg PUBLIC "-//W3C//DTD SVG 1.1//EN"
 "http://www.w3.org/Graphics/SVG/1.1/DTD/svg11.dtd">
<!-- Generated by graphviz version 2.50.0 (0)
 -->
<!-- Title: MudaPosGeo Pages: 1 -->
<svg width="438pt" height="66pt"
 viewBox="0.00 0.00 438.00 66.00" xmlns="http://www.w3.org/2000/svg" xmlns:xlink="http://www.w3.org/1999/xlink">
<g id="graph0" class="graph" transform="scale(1 1) rotate(0) translate(4 62)">
<title>MudaPosGeo</title>
<!-- Node1 -->
<g id="node1" class="node">
<title>Node1</title>
<g id="a_node1"><a xlink:title="Define a geolocalizacao dada para os valores de latitude e longitude passados.">
<polygon fill="#bfbfbf" stroke="black" points="350,-19.5 350,-38.5 430,-38.5 430,-19.5 350,-19.5"/>
<text text-anchor="middle" x="390" y="-26.5" font-family="Helvetica,sans-Serif" font-size="10.00">MudaPosGeo</text>
</a>
</g>
</g>
<!-- Node2 -->
<g id="node2" class="node">
<title>Node2</title>
<g id="a_node2"><a xlink:href="cuidador_8h.html#a8eb550092858dafae62ebcc83fa99921" target="_top" xlink:title="Define o Local (de tipo Geoloc) do objeto Cuidador.">
<polygon fill="none" stroke="black" points="213,-38.5 213,-57.5 314,-57.5 314,-38.5 213,-38.5"/>
<text text-anchor="middle" x="263.5" y="-45.5" font-family="Helvetica,sans-Serif" font-size="10.00">SetLocalCuidador</text>
</a>
</g>
</g>
<!-- Node1&#45;&gt;Node2 -->
<g id="edge1" class="edge">
<title>Node1&#45;&gt;Node2</title>
<path fill="none" stroke="midnightblue" d="M339.93,-36.49C331.54,-37.77 322.81,-39.1 314.4,-40.38"/>
<polygon fill="midnightblue" stroke="midnightblue" points="340.59,-39.93 349.95,-34.96 339.54,-33.01 340.59,-39.93"/>
</g>
<!-- Node5 -->
<g id="node5" class="node">
<title>Node5</title>
<g id="a_node5"><a xlink:href="idoso_8h.html#a73c41422fa6d8127dff69b6b02894fc1" target="_top" xlink:title="Define o Local do Idoso para as novas coordenadas.">
<polygon fill="none" stroke="black" points="221.5,-0.5 221.5,-19.5 305.5,-19.5 305.5,-0.5 221.5,-0.5"/>
<text text-anchor="middle" x="263.5" y="-7.5" font-family="Helvetica,sans-Serif" font-size="10.00">SetLocalIdoso</text>
</a>
</g>
</g>
<!-- Node1&#45;&gt;Node5 -->
<g id="edge4" class="edge">
<title>Node1&#45;&gt;Node5</title>
<path fill="none" stroke="midnightblue" d="M339.76,-21.49C328.43,-19.76 316.5,-17.94 305.56,-16.27"/>
<polygon fill="midnightblue" stroke="midnightblue" points="339.54,-24.99 349.95,-23.04 340.59,-18.07 339.54,-24.99"/>
</g>
<!-- Node3 -->
<g id="node3" class="node">
<title>Node3</title>
<g id="a_node3"><a xlink:href="cuidador_8h.html#a676000430da09bc26e44294be49ce6a7" target="_top" xlink:title="Faz a leitura de uma nova linha do arquivo referente ao cuidador, atualizando seu local no dado tempo...">
<polygon fill="none" stroke="black" points="77,-38.5 77,-57.5 177,-57.5 177,-38.5 77,-38.5"/>
<text text-anchor="middle" x="127" y="-45.5" font-family="Helvetica,sans-Serif" font-size="10.00">AtualizaCuidador</text>
</a>
</g>
</g>
<!-- Node2&#45;&gt;Node3 -->
<g id="edge2" class="edge">
<title>Node2&#45;&gt;Node3</title>
<path fill="none" stroke="midnightblue" d="M202.52,-48C194,-48 185.33,-48 177.05,-48"/>
<polygon fill="midnightblue" stroke="midnightblue" points="202.8,-51.5 212.8,-48 202.8,-44.5 202.8,-51.5"/>
</g>
<!-- Node4 -->
<g id="node4" class="node">
<title>Node4</title>
<g id="a_node4"><a xlink:href="cliente_8c.html#a0ddf1224851353fc92bfbff6f499fa97" target="_top" xlink:title=" ">
<polygon fill="none" stroke="black" points="0,-19.5 0,-38.5 41,-38.5 41,-19.5 0,-19.5"/>
<text text-anchor="middle" x="20.5" y="-26.5" font-family="Helvetica,sans-Serif" font-size="10.00">main</text>
</a>
</g>
</g>
<!-- Node3&#45;&gt;Node4 -->
<g id="edge3" class="edge">
<title>Node3&#45;&gt;Node4</title>
<path fill="none" stroke="midnightblue" d="M66.77,-37.23C57.58,-35.56 48.68,-33.94 41.24,-32.59"/>
<polygon fill="midnightblue" stroke="midnightblue" points="66.35,-40.71 76.81,-39.06 67.6,-33.82 66.35,-40.71"/>
</g>
<!-- Node6 -->
<g id="node6" class="node">
<title>Node6</title>
<g id="a_node6"><a xlink:href="idoso_8h.html#a9f1d51ea97ea9f557a840325ef5fb737" target="_top" xlink:title="Faz a leitura de uma nova linha do arquivo referente ao Idoso, atualizando seus dados no dado tempo.">
<polygon fill="none" stroke="black" points="85.5,-0.5 85.5,-19.5 168.5,-19.5 168.5,-0.5 85.5,-0.5"/>
<text text-anchor="middle" x="127" y="-7.5" font-family="Helvetica,sans-Serif" font-size="10.00">AtualizaIdoso</text>
</a>
</g>
</g>
<!-- Node5&#45;&gt;Node6 -->
<g id="edge5" class="edge">
<title>Node5&#45;&gt;Node6</title>
<path fill="none" stroke="midnightblue" d="M211.38,-10C197.31,-10 182.24,-10 168.83,-10"/>
<polygon fill="midnightblue" stroke="midnightblue" points="211.41,-13.5 221.41,-10 211.41,-6.5 211.41,-13.5"/>
</g>
<!-- Node6&#45;&gt;Node4 -->
<g id="edge6" class="edge">
<title>Node6&#45;&gt;Node4</title>
<path fill="none" stroke="midnightblue" d="M75.23,-19.23C63.15,-21.43 50.96,-23.64 41.26,-25.41"/>
<polygon fill="midnightblue" stroke="midnightblue" points="76.09,-22.63 85.3,-17.4 74.83,-15.75 76.09,-22.63"/>
</g>
</g>
</svg>
