<?xml version="1.0" encoding="UTF-8" standalone="no"?>
<!DOCTYPE svg PUBLIC "-//W3C//DTD SVG 1.1//EN"
 "http://www.w3.org/Graphics/SVG/1.1/DTD/svg11.dtd">
<!-- Generated by graphviz version 2.50.0 (0)
 -->
<!-- Title: AtualizaIdoso Pages: 1 -->
<svg width="347pt" height="142pt"
 viewBox="0.00 0.00 347.00 142.00" xmlns="http://www.w3.org/2000/svg" xmlns:xlink="http://www.w3.org/1999/xlink">
<g id="graph0" class="graph" transform="scale(1 1) rotate(0) translate(4 138)">
<title>AtualizaIdoso</title>
<!-- Node1 -->
<g id="node1" class="node">
<title>Node1</title>
<g id="a_node1"><a xlink:title="Faz a leitura de uma nova linha do arquivo referente ao Idoso, atualizando seus dados no dado tempo.">
<polygon fill="#bfbfbf" stroke="black" points="0,-57.5 0,-76.5 83,-76.5 83,-57.5 0,-57.5"/>
<text text-anchor="middle" x="41.5" y="-64.5" font-family="Helvetica,sans-Serif" font-size="10.00">AtualizaIdoso</text>
</a>
</g>
</g>
<!-- Node2 -->
<g id="node2" class="node">
<title>Node2</title>
<g id="a_node2"><a xlink:href="idoso_8c.html#abcba8ce4d83ae423bb11438deb58b55e" target="_top" xlink:title="Incrementa o contador de febres baixas seguidas do Idoso.">
<polygon fill="none" stroke="black" points="126.5,-114.5 126.5,-133.5 215.5,-133.5 215.5,-114.5 126.5,-114.5"/>
<text text-anchor="middle" x="171" y="-121.5" font-family="Helvetica,sans-Serif" font-size="10.00">IncFebresIdoso</text>
</a>
</g>
</g>
<!-- Node1&#45;&gt;Node2 -->
<g id="edge1" class="edge">
<title>Node1&#45;&gt;Node2</title>
<path fill="none" stroke="midnightblue" d="M60.49,-76.6C75.83,-84.63 98.59,-96.16 119,-105 123.53,-106.96 128.34,-108.92 133.12,-110.78"/>
<polygon fill="midnightblue" stroke="midnightblue" points="132.2,-114.18 142.79,-114.46 134.69,-107.64 132.2,-114.18"/>
</g>
<!-- Node3 -->
<g id="node3" class="node">
<title>Node3</title>
<g id="a_node3"><a xlink:href="idoso_8c.html#a074ec0beda9207173bb20248369d008e" target="_top" xlink:title="Zera o contador de febres baixas do Idoso.">
<polygon fill="none" stroke="black" points="119.5,-76.5 119.5,-95.5 222.5,-95.5 222.5,-76.5 119.5,-76.5"/>
<text text-anchor="middle" x="171" y="-83.5" font-family="Helvetica,sans-Serif" font-size="10.00">ResetFebresIdoso</text>
</a>
</g>
</g>
<!-- Node1&#45;&gt;Node3 -->
<g id="edge2" class="edge">
<title>Node1&#45;&gt;Node3</title>
<path fill="none" stroke="midnightblue" d="M83.19,-73.06C91.56,-74.31 100.54,-75.65 109.43,-76.97"/>
<polygon fill="midnightblue" stroke="midnightblue" points="109,-80.45 119.4,-78.46 110.03,-73.52 109,-80.45"/>
</g>
<!-- Node4 -->
<g id="node4" class="node">
<title>Node4</title>
<g id="a_node4"><a xlink:href="idoso_8c.html#a05c6062c3c814bfd4b9b219ccd09caa0" target="_top" xlink:title="Define uma nova Condicao ao Idoso.">
<polygon fill="none" stroke="black" points="119,-38.5 119,-57.5 223,-57.5 223,-38.5 119,-38.5"/>
<text text-anchor="middle" x="171" y="-45.5" font-family="Helvetica,sans-Serif" font-size="10.00">SetCondicaoIdoso</text>
</a>
</g>
</g>
<!-- Node1&#45;&gt;Node4 -->
<g id="edge3" class="edge">
<title>Node1&#45;&gt;Node4</title>
<path fill="none" stroke="midnightblue" d="M83.19,-60.94C91.36,-59.72 100.12,-58.41 108.81,-57.12"/>
<polygon fill="midnightblue" stroke="midnightblue" points="109.57,-60.54 118.95,-55.61 108.54,-53.62 109.57,-60.54"/>
</g>
<!-- Node5 -->
<g id="node5" class="node">
<title>Node5</title>
<g id="a_node5"><a xlink:href="idoso_8c.html#a73c41422fa6d8127dff69b6b02894fc1" target="_top" xlink:title="Define o Local do Idoso para as novas coordenadas.">
<polygon fill="none" stroke="black" points="129,-0.5 129,-19.5 213,-19.5 213,-0.5 129,-0.5"/>
<text text-anchor="middle" x="171" y="-7.5" font-family="Helvetica,sans-Serif" font-size="10.00">SetLocalIdoso</text>
</a>
</g>
</g>
<!-- Node1&#45;&gt;Node5 -->
<g id="edge4" class="edge">
<title>Node1&#45;&gt;Node5</title>
<path fill="none" stroke="midnightblue" d="M60.49,-57.4C75.83,-49.37 98.59,-37.84 119,-29 123.53,-27.04 128.34,-25.08 133.12,-23.22"/>
<polygon fill="midnightblue" stroke="midnightblue" points="134.69,-26.36 142.79,-19.54 132.2,-19.82 134.69,-26.36"/>
</g>
<!-- Node6 -->
<g id="node6" class="node">
<title>Node6</title>
<g id="a_node6"><a xlink:href="geoloc_8h.html#ad15a017b73ab2909652b15b346373bb7" target="_top" xlink:title="Define a geolocalizacao dada para os valores de latitude e longitude passados.">
<polygon fill="none" stroke="black" points="259,-0.5 259,-19.5 339,-19.5 339,-0.5 259,-0.5"/>
<text text-anchor="middle" x="299" y="-7.5" font-family="Helvetica,sans-Serif" font-size="10.00">MudaPosGeo</text>
</a>
</g>
</g>
<!-- Node5&#45;&gt;Node6 -->
<g id="edge5" class="edge">
<title>Node5&#45;&gt;Node6</title>
<path fill="none" stroke="midnightblue" d="M213.26,-10C224.58,-10 236.97,-10 248.7,-10"/>
<polygon fill="midnightblue" stroke="midnightblue" points="248.79,-13.5 258.79,-10 248.79,-6.5 248.79,-13.5"/>
</g>
</g>
</svg>
