<?xml version="1.0" encoding="UTF-8" standalone="no"?>
<!DOCTYPE svg PUBLIC "-//W3C//DTD SVG 1.1//EN"
 "http://www.w3.org/Graphics/SVG/1.1/DTD/svg11.dtd">
<!-- Generated by graphviz version 2.50.0 (0)
 -->
<!-- Title: GetNomeIdoso Pages: 1 -->
<svg width="430pt" height="142pt"
 viewBox="0.00 0.00 430.00 142.00" xmlns="http://www.w3.org/2000/svg" xmlns:xlink="http://www.w3.org/1999/xlink">
<g id="graph0" class="graph" transform="scale(1 1) rotate(0) translate(4 138)">
<title>GetNomeIdoso</title>
<!-- Node1 -->
<g id="node1" class="node">
<title>Node1</title>
<g id="a_node1"><a xlink:title="Retorna o Nome do objeto Idoso.">
<polygon fill="#bfbfbf" stroke="black" points="333,-38.5 333,-57.5 422,-57.5 422,-38.5 333,-38.5"/>
<text text-anchor="middle" x="377.5" y="-45.5" font-family="Helvetica,sans-Serif" font-size="10.00">GetNomeIdoso</text>
</a>
</g>
</g>
<!-- Node2 -->
<g id="node2" class="node">
<title>Node2</title>
<g id="a_node2"><a xlink:href="lista_idoso_8h.html#ae54bcb97b257f8edff6646cf71e1946d" target="_top" xlink:title="Busca na lista o Idoso que possui o nome informado e faz o retorno do mesmo, retornando nulo caso a l...">
<polygon fill="none" stroke="black" points="202,-76.5 202,-95.5 297,-95.5 297,-76.5 202,-76.5"/>
<text text-anchor="middle" x="249.5" y="-83.5" font-family="Helvetica,sans-Serif" font-size="10.00">BuscaListaIdoso</text>
</a>
</g>
</g>
<!-- Node1&#45;&gt;Node2 -->
<g id="edge1" class="edge">
<title>Node1&#45;&gt;Node2</title>
<path fill="none" stroke="midnightblue" d="M334.94,-60.54C317.79,-65.7 298.25,-71.6 282.28,-76.41"/>
<polygon fill="midnightblue" stroke="midnightblue" points="336.14,-63.83 344.7,-57.59 334.12,-57.13 336.14,-63.83"/>
</g>
<!-- Node5 -->
<g id="node5" class="node">
<title>Node5</title>
<g id="a_node5"><a xlink:href="idoso_8h.html#a88452684585a131cdad194e145456e67" target="_top" xlink:title="Dadas as informacoes atualizadas do idoso, essa funcao eh responsavel por processar as informacoes ob...">
<polygon fill="none" stroke="black" points="78.5,-38.5 78.5,-57.5 164.5,-57.5 164.5,-38.5 78.5,-38.5"/>
<text text-anchor="middle" x="121.5" y="-45.5" font-family="Helvetica,sans-Serif" font-size="10.00">ProcessaIdoso</text>
</a>
</g>
</g>
<!-- Node1&#45;&gt;Node5 -->
<g id="edge5" class="edge">
<title>Node1&#45;&gt;Node5</title>
<path fill="none" stroke="midnightblue" d="M322.81,-48C275.7,-48 208.1,-48 164.75,-48"/>
<polygon fill="midnightblue" stroke="midnightblue" points="322.84,-51.5 332.84,-48 322.84,-44.5 322.84,-51.5"/>
</g>
<!-- Node6 -->
<g id="node6" class="node">
<title>Node6</title>
<g id="a_node6"><a xlink:href="lista_idoso_8h.html#a390721318183d3b056948c70bd213338" target="_top" xlink:title="Retira da lista o Idoso que possui o nome informado, caso nao tenha um cuidador com mesmo nome,...">
<polygon fill="none" stroke="black" points="202,-0.5 202,-19.5 297,-19.5 297,-0.5 202,-0.5"/>
<text text-anchor="middle" x="249.5" y="-7.5" font-family="Helvetica,sans-Serif" font-size="10.00">RetiraListaIdoso</text>
</a>
</g>
</g>
<!-- Node1&#45;&gt;Node6 -->
<g id="edge7" class="edge">
<title>Node1&#45;&gt;Node6</title>
<path fill="none" stroke="midnightblue" d="M334.94,-35.46C317.79,-30.3 298.25,-24.4 282.28,-19.59"/>
<polygon fill="midnightblue" stroke="midnightblue" points="334.12,-38.87 344.7,-38.41 336.14,-32.17 334.12,-38.87"/>
</g>
<!-- Node3 -->
<g id="node3" class="node">
<title>Node3</title>
<g id="a_node3"><a xlink:href="lista_idoso_8h.html#a426b6b2ccb10e43ecff84f9a744c1c5c" target="_top" xlink:title="Cria o um laco de amizade, inserindo o amigo na lista de amigos um do outro Como amizades sao recipro...">
<polygon fill="none" stroke="black" points="77,-114.5 77,-133.5 166,-133.5 166,-114.5 77,-114.5"/>
<text text-anchor="middle" x="121.5" y="-121.5" font-family="Helvetica,sans-Serif" font-size="10.00">InsereAmizade</text>
</a>
</g>
</g>
<!-- Node2&#45;&gt;Node3 -->
<g id="edge2" class="edge">
<title>Node2&#45;&gt;Node3</title>
<path fill="none" stroke="midnightblue" d="M206.94,-98.54C189.79,-103.7 170.25,-109.6 154.28,-114.41"/>
<polygon fill="midnightblue" stroke="midnightblue" points="208.14,-101.83 216.7,-95.59 206.12,-95.13 208.14,-101.83"/>
</g>
<!-- Node4 -->
<g id="node4" class="node">
<title>Node4</title>
<g id="a_node4"><a xlink:href="cliente_8c.html#a0ddf1224851353fc92bfbff6f499fa97" target="_top" xlink:title=" ">
<polygon fill="none" stroke="black" points="0,-76.5 0,-95.5 41,-95.5 41,-76.5 0,-76.5"/>
<text text-anchor="middle" x="20.5" y="-83.5" font-family="Helvetica,sans-Serif" font-size="10.00">main</text>
</a>
</g>
</g>
<!-- Node2&#45;&gt;Node4 -->
<g id="edge4" class="edge">
<title>Node2&#45;&gt;Node4</title>
<path fill="none" stroke="midnightblue" d="M191.56,-86C142.42,-86 74.27,-86 41.15,-86"/>
<polygon fill="midnightblue" stroke="midnightblue" points="191.74,-89.5 201.74,-86 191.74,-82.5 191.74,-89.5"/>
</g>
<!-- Node3&#45;&gt;Node4 -->
<g id="edge3" class="edge">
<title>Node3&#45;&gt;Node4</title>
<path fill="none" stroke="midnightblue" d="M86.02,-110.76C71.01,-105 53.97,-98.46 41.17,-93.55"/>
<polygon fill="midnightblue" stroke="midnightblue" points="84.93,-114.1 95.52,-114.41 87.44,-107.56 84.93,-114.1"/>
</g>
<!-- Node5&#45;&gt;Node4 -->
<g id="edge6" class="edge">
<title>Node5&#45;&gt;Node4</title>
<path fill="none" stroke="midnightblue" d="M86.02,-61.24C71.01,-67 53.97,-73.54 41.17,-78.45"/>
<polygon fill="midnightblue" stroke="midnightblue" points="87.44,-64.44 95.52,-57.59 84.93,-57.9 87.44,-64.44"/>
</g>
</g>
</svg>
