<?xml version="1.0" encoding="UTF-8" standalone="no"?>
<!DOCTYPE svg PUBLIC "-//W3C//DTD SVG 1.1//EN"
 "http://www.w3.org/Graphics/SVG/1.1/DTD/svg11.dtd">
<!-- Generated by graphviz version 2.50.0 (0)
 -->
<!-- Title: headers/idoso.h Pages: 1 -->
<svg width="120pt" height="140pt"
 viewBox="0.00 0.00 119.50 140.00" xmlns="http://www.w3.org/2000/svg" xmlns:xlink="http://www.w3.org/1999/xlink">
<g id="graph0" class="graph" transform="scale(1 1) rotate(0) translate(4 136)">
<title>headers/idoso.h</title>
<!-- Node1 -->
<g id="node1" class="node">
<title>Node1</title>
<g id="a_node1"><a xlink:title=" ">
<polygon fill="#bfbfbf" stroke="black" points="0,-112.5 0,-131.5 94,-131.5 94,-112.5 0,-112.5"/>
<text text-anchor="middle" x="47" y="-119.5" font-family="Helvetica,sans-Serif" font-size="10.00">headers/idoso.h</text>
</a>
</g>
</g>
<!-- Node2 -->
<g id="node2" class="node">
<title>Node2</title>
<g id="a_node2"><a xlink:href="geoloc_8h.html" target="_top" xlink:title=" ">
<polygon fill="none" stroke="black" points="18,-0.5 18,-19.5 76,-19.5 76,-0.5 18,-0.5"/>
<text text-anchor="middle" x="47" y="-7.5" font-family="Helvetica,sans-Serif" font-size="10.00">geoloc.h</text>
</a>
</g>
</g>
<!-- Node1&#45;&gt;Node2 -->
<g id="edge1" class="edge">
<title>Node1&#45;&gt;Node2</title>
<path fill="none" stroke="midnightblue" d="M43.91,-112.17C40.95,-103.2 36.68,-88.83 35,-76 32.93,-60.18 36.65,-42.36 40.48,-29.39"/>
<polygon fill="midnightblue" stroke="midnightblue" points="43.84,-30.38 43.6,-19.79 37.18,-28.22 43.84,-30.38"/>
</g>
<!-- Node3 -->
<g id="node3" class="node">
<title>Node3</title>
<g id="a_node3"><a xlink:href="cuidador_8h.html" target="_top" xlink:title=" ">
<polygon fill="none" stroke="black" points="44.5,-56.5 44.5,-75.5 111.5,-75.5 111.5,-56.5 44.5,-56.5"/>
<text text-anchor="middle" x="78" y="-63.5" font-family="Helvetica,sans-Serif" font-size="10.00">cuidador.h</text>
</a>
</g>
</g>
<!-- Node1&#45;&gt;Node3 -->
<g id="edge2" class="edge">
<title>Node1&#45;&gt;Node3</title>
<path fill="none" stroke="midnightblue" d="M52.12,-112.08C56.41,-104.61 62.66,-93.72 67.94,-84.52"/>
<polygon fill="midnightblue" stroke="midnightblue" points="71.03,-86.17 72.98,-75.75 64.96,-82.68 71.03,-86.17"/>
</g>
<!-- Node3&#45;&gt;Node2 -->
<g id="edge3" class="edge">
<title>Node3&#45;&gt;Node2</title>
<path fill="none" stroke="midnightblue" d="M72.88,-56.08C68.59,-48.61 62.34,-37.72 57.06,-28.52"/>
<polygon fill="midnightblue" stroke="midnightblue" points="60.04,-26.68 52.02,-19.75 53.97,-30.17 60.04,-26.68"/>
</g>
</g>
</svg>
