<?xml version="1.0" encoding="UTF-8" standalone="no"?>
<!DOCTYPE svg PUBLIC "-//W3C//DTD SVG 1.1//EN"
 "http://www.w3.org/Graphics/SVG/1.1/DTD/svg11.dtd">
<!-- Generated by graphviz version 2.50.0 (0)
 -->
<!-- Title: LiberaIdoso Pages: 1 -->
<svg width="213pt" height="104pt"
 viewBox="0.00 0.00 213.00 104.00" xmlns="http://www.w3.org/2000/svg" xmlns:xlink="http://www.w3.org/1999/xlink">
<g id="graph0" class="graph" transform="scale(1 1) rotate(0) translate(4 100)">
<title>LiberaIdoso</title>
<!-- Node1 -->
<g id="node1" class="node">
<title>Node1</title>
<g id="a_node1"><a xlink:title="Libera a memoria alocada para a variavel de tipo Idoso.">
<polygon fill="#bfbfbf" stroke="black" points="0,-38.5 0,-57.5 73,-57.5 73,-38.5 0,-38.5"/>
<text text-anchor="middle" x="36.5" y="-45.5" font-family="Helvetica,sans-Serif" font-size="10.00">LiberaIdoso</text>
</a>
</g>
</g>
<!-- Node2 -->
<g id="node2" class="node">
<title>Node2</title>
<g id="a_node2"><a xlink:href="geoloc_8h.html#a1e2732e2aee467321c0e4df4f748aa65" target="_top" xlink:title="Libera a memoria alocada para a variavel de tipo Geoloc.">
<polygon fill="none" stroke="black" points="124,-76.5 124,-95.5 190,-95.5 190,-76.5 124,-76.5"/>
<text text-anchor="middle" x="157" y="-83.5" font-family="Helvetica,sans-Serif" font-size="10.00">LiberaGeo</text>
</a>
</g>
</g>
<!-- Node1&#45;&gt;Node2 -->
<g id="edge1" class="edge">
<title>Node1&#45;&gt;Node2</title>
<path fill="none" stroke="midnightblue" d="M67.4,-57.59C82.28,-62.36 100.46,-68.19 116.47,-73.32"/>
<polygon fill="midnightblue" stroke="midnightblue" points="115.52,-76.69 126.11,-76.41 117.65,-70.03 115.52,-76.69"/>
</g>
<!-- Node3 -->
<g id="node3" class="node">
<title>Node3</title>
<g id="a_node3"><a xlink:href="lista_cuidador_8h.html#a86284060d805e7118ba0094834ff85db" target="_top" xlink:title="Libera a memoria alocada pela lista e suas celulas.">
<polygon fill="none" stroke="black" points="114,-38.5 114,-57.5 200,-57.5 200,-38.5 114,-38.5"/>
<text text-anchor="middle" x="157" y="-45.5" font-family="Helvetica,sans-Serif" font-size="10.00">LiberaListaCui</text>
</a>
</g>
</g>
<!-- Node1&#45;&gt;Node3 -->
<g id="edge2" class="edge">
<title>Node1&#45;&gt;Node3</title>
<path fill="none" stroke="midnightblue" d="M73.05,-48C82.67,-48 93.28,-48 103.6,-48"/>
<polygon fill="midnightblue" stroke="midnightblue" points="103.79,-51.5 113.79,-48 103.79,-44.5 103.79,-51.5"/>
</g>
<!-- Node4 -->
<g id="node4" class="node">
<title>Node4</title>
<g id="a_node4"><a xlink:href="lista_idoso_8h.html#a6372ab13748fb8d78259a424fd21d986" target="_top" xlink:title="Libera a memoria alocada pela lista e suas celulas.">
<polygon fill="none" stroke="black" points="109,-0.5 109,-19.5 205,-19.5 205,-0.5 109,-0.5"/>
<text text-anchor="middle" x="157" y="-7.5" font-family="Helvetica,sans-Serif" font-size="10.00">LiberaListaIdoso</text>
</a>
</g>
</g>
<!-- Node1&#45;&gt;Node4 -->
<g id="edge3" class="edge">
<title>Node1&#45;&gt;Node4</title>
<path fill="none" stroke="midnightblue" d="M67.4,-38.41C82.28,-33.64 100.46,-27.81 116.47,-22.68"/>
<polygon fill="midnightblue" stroke="midnightblue" points="117.65,-25.97 126.11,-19.59 115.52,-19.31 117.65,-25.97"/>
</g>
</g>
</svg>
