<?xml version="1.0" encoding="UTF-8" standalone="no"?>
<!DOCTYPE svg PUBLIC "-//W3C//DTD SVG 1.1//EN"
 "http://www.w3.org/Graphics/SVG/1.1/DTD/svg11.dtd">
<!-- Generated by graphviz version 2.50.0 (0)
 -->
<!-- Title: headers/idoso.h Pages: 1 -->
<svg width="286pt" height="140pt"
 viewBox="0.00 0.00 286.00 140.00" xmlns="http://www.w3.org/2000/svg" xmlns:xlink="http://www.w3.org/1999/xlink">
<g id="graph0" class="graph" transform="scale(1 1) rotate(0) translate(4 136)">
<title>headers/idoso.h</title>
<!-- Node1 -->
<g id="node1" class="node">
<title>Node1</title>
<g id="a_node1"><a xlink:title=" ">
<polygon fill="#bfbfbf" stroke="black" points="108.5,-112.5 108.5,-131.5 202.5,-131.5 202.5,-112.5 108.5,-112.5"/>
<text text-anchor="middle" x="155.5" y="-119.5" font-family="Helvetica,sans-Serif" font-size="10.00">headers/idoso.h</text>
</a>
</g>
</g>
<!-- Node2 -->
<g id="node2" class="node">
<title>Node2</title>
<g id="a_node2"><a xlink:href="lista_idoso_8h.html" target="_top" xlink:title=" ">
<polygon fill="none" stroke="black" points="55,-56.5 55,-75.5 170,-75.5 170,-56.5 55,-56.5"/>
<text text-anchor="middle" x="112.5" y="-63.5" font-family="Helvetica,sans-Serif" font-size="10.00">headers/listaIdoso.h</text>
</a>
</g>
</g>
<!-- Node1&#45;&gt;Node2 -->
<g id="edge1" class="edge">
<title>Node1&#45;&gt;Node2</title>
<path fill="none" stroke="midnightblue" d="M142.08,-104.14C134.59,-94.74 125.56,-83.4 119.47,-75.75"/>
<polygon fill="midnightblue" stroke="midnightblue" points="139.43,-106.44 148.4,-112.08 144.91,-102.08 139.43,-106.44"/>
</g>
<!-- Node3 -->
<g id="node3" class="node">
<title>Node3</title>
<g id="a_node3"><a xlink:href="cliente_8c.html" target="_top" xlink:title=" ">
<polygon fill="none" stroke="black" points="0,-0.5 0,-19.5 75,-19.5 75,-0.5 0,-0.5"/>
<text text-anchor="middle" x="37.5" y="-7.5" font-family="Helvetica,sans-Serif" font-size="10.00">src/cliente.c</text>
</a>
</g>
</g>
<!-- Node1&#45;&gt;Node3 -->
<g id="edge5" class="edge">
<title>Node1&#45;&gt;Node3</title>
<path fill="none" stroke="midnightblue" d="M98.74,-110.19C78.95,-103.58 58.47,-92.98 45.5,-76 32.8,-59.38 34.22,-33.07 36.03,-19.59"/>
<polygon fill="midnightblue" stroke="midnightblue" points="97.77,-113.56 108.36,-113.13 99.82,-106.86 97.77,-113.56"/>
</g>
<!-- Node4 -->
<g id="node4" class="node">
<title>Node4</title>
<g id="a_node4"><a xlink:href="idoso_8c.html" target="_top" xlink:title=" ">
<polygon fill="none" stroke="black" points="99.5,-0.5 99.5,-19.5 167.5,-19.5 167.5,-0.5 99.5,-0.5"/>
<text text-anchor="middle" x="133.5" y="-7.5" font-family="Helvetica,sans-Serif" font-size="10.00">src/idoso.c</text>
</a>
</g>
</g>
<!-- Node1&#45;&gt;Node4 -->
<g id="edge6" class="edge">
<title>Node1&#45;&gt;Node4</title>
<path fill="none" stroke="midnightblue" d="M168.71,-104.35C177.52,-91.12 186.32,-72.22 179.5,-56 173,-40.55 158.33,-27.76 147.29,-19.81"/>
<polygon fill="midnightblue" stroke="midnightblue" points="165.84,-102.34 162.81,-112.49 171.51,-106.45 165.84,-102.34"/>
</g>
<!-- Node5 -->
<g id="node5" class="node">
<title>Node5</title>
<g id="a_node5"><a xlink:href="lista_idoso_8c.html" target="_top" xlink:title=" ">
<polygon fill="none" stroke="black" points="189,-0.5 189,-19.5 278,-19.5 278,-0.5 189,-0.5"/>
<text text-anchor="middle" x="233.5" y="-7.5" font-family="Helvetica,sans-Serif" font-size="10.00">src/listaIdoso.c</text>
</a>
</g>
</g>
<!-- Node1&#45;&gt;Node5 -->
<g id="edge7" class="edge">
<title>Node1&#45;&gt;Node5</title>
<path fill="none" stroke="midnightblue" d="M170.66,-104.9C178.19,-96.56 187.22,-86.04 194.5,-76 208.4,-56.82 222.04,-32.48 228.91,-19.71"/>
<polygon fill="midnightblue" stroke="midnightblue" points="167.94,-102.68 163.74,-112.41 173.09,-107.42 167.94,-102.68"/>
</g>
<!-- Node2&#45;&gt;Node3 -->
<g id="edge2" class="edge">
<title>Node2&#45;&gt;Node3</title>
<path fill="none" stroke="midnightblue" d="M92.19,-50.38C78.64,-40.62 61.26,-28.11 49.77,-19.83"/>
<polygon fill="midnightblue" stroke="midnightblue" points="90.29,-53.32 100.45,-56.32 94.38,-47.64 90.29,-53.32"/>
</g>
<!-- Node2&#45;&gt;Node4 -->
<g id="edge3" class="edge">
<title>Node2&#45;&gt;Node4</title>
<path fill="none" stroke="midnightblue" d="M119.62,-46.69C123.16,-37.59 127.27,-27.01 130.1,-19.75"/>
<polygon fill="midnightblue" stroke="midnightblue" points="116.33,-45.49 115.97,-56.08 122.85,-48.03 116.33,-45.49"/>
</g>
<!-- Node2&#45;&gt;Node5 -->
<g id="edge4" class="edge">
<title>Node2&#45;&gt;Node5</title>
<path fill="none" stroke="midnightblue" d="M140.81,-52.37C163.47,-42.26 194.63,-28.35 214.42,-19.52"/>
<polygon fill="midnightblue" stroke="midnightblue" points="139.38,-49.17 131.67,-56.44 142.23,-55.56 139.38,-49.17"/>
</g>
</g>
</svg>
