<?xml version="1.0" encoding="UTF-8" standalone="no"?>
<!DOCTYPE svg PUBLIC "-//W3C//DTD SVG 1.1//EN"
 "http://www.w3.org/Graphics/SVG/1.1/DTD/svg11.dtd">
<!-- Generated by graphviz version 2.50.0 (0)
 -->
<!-- Title: ProcessaIdoso Pages: 1 -->
<svg width="391pt" height="180pt"
 viewBox="0.00 0.00 391.00 180.00" xmlns="http://www.w3.org/2000/svg" xmlns:xlink="http://www.w3.org/1999/xlink">
<g id="graph0" class="graph" transform="scale(1 1) rotate(0) translate(4 176)">
<title>ProcessaIdoso</title>
<!-- Node1 -->
<g id="node1" class="node">
<title>Node1</title>
<g id="a_node1"><a xlink:title="Dadas as informacoes atualizadas do idoso, essa funcao eh responsavel por processar as informacoes ob...">
<polygon fill="#bfbfbf" stroke="black" points="0,-76.5 0,-95.5 86,-95.5 86,-76.5 0,-76.5"/>
<text text-anchor="middle" x="43" y="-83.5" font-family="Helvetica,sans-Serif" font-size="10.00">ProcessaIdoso</text>
</a>
</g>
</g>
<!-- Node2 -->
<g id="node2" class="node">
<title>Node2</title>
<g id="a_node2"><a xlink:href="cuidador_8h.html#a2e1114aca6ce014765fcba5722825b2b" target="_top" xlink:title="Retorna o Nome do objeto Cuidador.">
<polygon fill="none" stroke="black" points="128.5,-152.5 128.5,-171.5 235.5,-171.5 235.5,-152.5 128.5,-152.5"/>
<text text-anchor="middle" x="182" y="-159.5" font-family="Helvetica,sans-Serif" font-size="10.00">GetNomeCuidador</text>
</a>
</g>
</g>
<!-- Node1&#45;&gt;Node2 -->
<g id="edge1" class="edge">
<title>Node1&#45;&gt;Node2</title>
<path fill="none" stroke="midnightblue" d="M54.63,-95.51C69,-107.93 95.85,-129.67 122,-143 126.27,-145.18 130.84,-147.17 135.47,-148.98"/>
<polygon fill="midnightblue" stroke="midnightblue" points="134.41,-152.32 145.01,-152.43 136.8,-145.74 134.41,-152.32"/>
</g>
<!-- Node3 -->
<g id="node3" class="node">
<title>Node3</title>
<g id="a_node3"><a xlink:href="idoso_8c.html#ad410fb3330c4e9336dc048bb5c684b58" target="_top" xlink:title="Retorna o Nome do objeto Idoso.">
<polygon fill="none" stroke="black" points="137.5,-114.5 137.5,-133.5 226.5,-133.5 226.5,-114.5 137.5,-114.5"/>
<text text-anchor="middle" x="182" y="-121.5" font-family="Helvetica,sans-Serif" font-size="10.00">GetNomeIdoso</text>
</a>
</g>
</g>
<!-- Node1&#45;&gt;Node3 -->
<g id="edge2" class="edge">
<title>Node1&#45;&gt;Node3</title>
<path fill="none" stroke="midnightblue" d="M78.57,-95.59C96.18,-100.47 117.78,-106.46 136.6,-111.68"/>
<polygon fill="midnightblue" stroke="midnightblue" points="135.87,-115.11 146.44,-114.41 137.74,-108.37 135.87,-115.11"/>
</g>
<!-- Node4 -->
<g id="node4" class="node">
<title>Node4</title>
<g id="a_node4"><a xlink:href="lista_cuidador_8h.html#a199e3cfc61052c71a6afad55ba8d4e4c" target="_top" xlink:title="Retorna o cuidador mais proximo do ponto de referencia entre os presentes na lista.">
<polygon fill="none" stroke="black" points="122,-76.5 122,-95.5 242,-95.5 242,-76.5 122,-76.5"/>
<text text-anchor="middle" x="182" y="-83.5" font-family="Helvetica,sans-Serif" font-size="10.00">RetornaCuidadorProx</text>
</a>
</g>
</g>
<!-- Node1&#45;&gt;Node4 -->
<g id="edge3" class="edge">
<title>Node1&#45;&gt;Node4</title>
<path fill="none" stroke="midnightblue" d="M86.22,-86C94.3,-86 102.96,-86 111.63,-86"/>
<polygon fill="midnightblue" stroke="midnightblue" points="111.79,-89.5 121.79,-86 111.79,-82.5 111.79,-89.5"/>
</g>
<!-- Node7 -->
<g id="node7" class="node">
<title>Node7</title>
<g id="a_node7"><a xlink:href="lista_idoso_8h.html#afa97c09900abce26facf342d0a824599" target="_top" xlink:title="Retorna o Idoso mais proximo do ponto de referencia entre os presentes na lista.">
<polygon fill="none" stroke="black" points="130.5,-38.5 130.5,-57.5 233.5,-57.5 233.5,-38.5 130.5,-38.5"/>
<text text-anchor="middle" x="182" y="-45.5" font-family="Helvetica,sans-Serif" font-size="10.00">RetornaIdosoProx</text>
</a>
</g>
</g>
<!-- Node1&#45;&gt;Node7 -->
<g id="edge6" class="edge">
<title>Node1&#45;&gt;Node7</title>
<path fill="none" stroke="midnightblue" d="M78.57,-76.41C96.18,-71.53 117.78,-65.54 136.6,-60.32"/>
<polygon fill="midnightblue" stroke="midnightblue" points="137.74,-63.63 146.44,-57.59 135.87,-56.89 137.74,-63.63"/>
</g>
<!-- Node10 -->
<g id="node10" class="node">
<title>Node10</title>
<g id="a_node10"><a xlink:href="idoso_8c.html#a05c6062c3c814bfd4b9b219ccd09caa0" target="_top" xlink:title="Define uma nova Condicao ao Idoso.">
<polygon fill="none" stroke="black" points="130,-0.5 130,-19.5 234,-19.5 234,-0.5 130,-0.5"/>
<text text-anchor="middle" x="182" y="-7.5" font-family="Helvetica,sans-Serif" font-size="10.00">SetCondicaoIdoso</text>
</a>
</g>
</g>
<!-- Node1&#45;&gt;Node10 -->
<g id="edge10" class="edge">
<title>Node1&#45;&gt;Node10</title>
<path fill="none" stroke="midnightblue" d="M54.63,-76.49C69,-64.07 95.85,-42.33 122,-29 126.27,-26.82 130.84,-24.83 135.47,-23.02"/>
<polygon fill="midnightblue" stroke="midnightblue" points="136.8,-26.26 145.01,-19.57 134.41,-19.68 136.8,-26.26"/>
</g>
<!-- Node5 -->
<g id="node5" class="node">
<title>Node5</title>
<g id="a_node5"><a xlink:href="geoloc_8h.html#a58b31cb21ffe9fe839d9c2e0f69772a8" target="_top" xlink:title="Calcula a distancia entre duas localizacoes Retornando um double resultante do calculo.">
<polygon fill="none" stroke="black" points="292,-76.5 292,-95.5 369,-95.5 369,-76.5 292,-76.5"/>
<text text-anchor="middle" x="330.5" y="-83.5" font-family="Helvetica,sans-Serif" font-size="10.00">CalcDistGeo</text>
</a>
</g>
</g>
<!-- Node4&#45;&gt;Node5 -->
<g id="edge4" class="edge">
<title>Node4&#45;&gt;Node5</title>
<path fill="none" stroke="midnightblue" d="M242.16,-86C255.19,-86 268.84,-86 281.37,-86"/>
<polygon fill="midnightblue" stroke="midnightblue" points="281.6,-89.5 291.6,-86 281.6,-82.5 281.6,-89.5"/>
</g>
<!-- Node6 -->
<g id="node6" class="node">
<title>Node6</title>
<g id="a_node6"><a xlink:href="cuidador_8h.html#a0b02209f82186c9bd84ca27c3c01b58e" target="_top" xlink:title="Retorna o Local (de tipo Geoloc) do objeto Cuidador.">
<polygon fill="none" stroke="black" points="279,-114.5 279,-133.5 382,-133.5 382,-114.5 279,-114.5"/>
<text text-anchor="middle" x="330.5" y="-121.5" font-family="Helvetica,sans-Serif" font-size="10.00">GetLocalCuidador</text>
</a>
</g>
</g>
<!-- Node4&#45;&gt;Node6 -->
<g id="edge5" class="edge">
<title>Node4&#45;&gt;Node6</title>
<path fill="none" stroke="midnightblue" d="M219.97,-95.59C239.13,-100.56 262.71,-106.68 283.09,-111.96"/>
<polygon fill="midnightblue" stroke="midnightblue" points="282.24,-115.36 292.8,-114.48 284,-108.58 282.24,-115.36"/>
</g>
<!-- Node7&#45;&gt;Node5 -->
<g id="edge7" class="edge">
<title>Node7&#45;&gt;Node5</title>
<path fill="none" stroke="midnightblue" d="M219.97,-57.59C239.13,-62.56 262.71,-68.68 283.09,-73.96"/>
<polygon fill="midnightblue" stroke="midnightblue" points="282.24,-77.36 292.8,-76.48 284,-70.58 282.24,-77.36"/>
</g>
<!-- Node8 -->
<g id="node8" class="node">
<title>Node8</title>
<g id="a_node8"><a xlink:href="idoso_8h.html#a137d0f97f095286e4d25790507a52e61" target="_top" xlink:title="Retorna a condicao atual do idoso, respeitando a seguinte tabela &#45;2 = Bem morto &#45;1 = A informar,...">
<polygon fill="none" stroke="black" points="278,-38.5 278,-57.5 383,-57.5 383,-38.5 278,-38.5"/>
<text text-anchor="middle" x="330.5" y="-45.5" font-family="Helvetica,sans-Serif" font-size="10.00">GetCondicaoIdoso</text>
</a>
</g>
</g>
<!-- Node7&#45;&gt;Node8 -->
<g id="edge8" class="edge">
<title>Node7&#45;&gt;Node8</title>
<path fill="none" stroke="midnightblue" d="M233.83,-48C244.71,-48 256.32,-48 267.57,-48"/>
<polygon fill="midnightblue" stroke="midnightblue" points="267.77,-51.5 277.77,-48 267.77,-44.5 267.77,-51.5"/>
</g>
<!-- Node9 -->
<g id="node9" class="node">
<title>Node9</title>
<g id="a_node9"><a xlink:href="idoso_8h.html#a408d4574b54a20f17a044f55cd887fa6" target="_top" xlink:title="Retorna o Local do Idoso (Como Geoloc)">
<polygon fill="none" stroke="black" points="287.5,-0.5 287.5,-19.5 373.5,-19.5 373.5,-0.5 287.5,-0.5"/>
<text text-anchor="middle" x="330.5" y="-7.5" font-family="Helvetica,sans-Serif" font-size="10.00">GetLocalIdoso</text>
</a>
</g>
</g>
<!-- Node7&#45;&gt;Node9 -->
<g id="edge9" class="edge">
<title>Node7&#45;&gt;Node9</title>
<path fill="none" stroke="midnightblue" d="M219.97,-38.41C239.13,-33.44 262.71,-27.32 283.09,-22.04"/>
<polygon fill="midnightblue" stroke="midnightblue" points="284,-25.42 292.8,-19.52 282.24,-18.64 284,-25.42"/>
</g>
</g>
</svg>
