<?xml version="1.0" encoding="UTF-8" standalone="no"?>
<!DOCTYPE svg PUBLIC "-//W3C//DTD SVG 1.1//EN"
 "http://www.w3.org/Graphics/SVG/1.1/DTD/svg11.dtd">
<!-- Generated by graphviz version 2.50.0 (0)
 -->
<!-- Title: SetCondicaoIdoso Pages: 1 -->
<svg width="311pt" height="66pt"
 viewBox="0.00 0.00 311.00 66.00" xmlns="http://www.w3.org/2000/svg" xmlns:xlink="http://www.w3.org/1999/xlink">
<g id="graph0" class="graph" transform="scale(1 1) rotate(0) translate(4 62)">
<title>SetCondicaoIdoso</title>
<!-- Node1 -->
<g id="node1" class="node">
<title>Node1</title>
<g id="a_node1"><a xlink:title="Define uma nova Condicao ao Idoso.">
<polygon fill="#bfbfbf" stroke="black" points="199,-19.5 199,-38.5 303,-38.5 303,-19.5 199,-19.5"/>
<text text-anchor="middle" x="251" y="-26.5" font-family="Helvetica,sans-Serif" font-size="10.00">SetCondicaoIdoso</text>
</a>
</g>
</g>
<!-- Node2 -->
<g id="node2" class="node">
<title>Node2</title>
<g id="a_node2"><a xlink:href="idoso_8h.html#a9f1d51ea97ea9f557a840325ef5fb737" target="_top" xlink:title="Faz a leitura de uma nova linha do arquivo referente ao Idoso, atualizando seus dados no dado tempo.">
<polygon fill="none" stroke="black" points="78.5,-38.5 78.5,-57.5 161.5,-57.5 161.5,-38.5 78.5,-38.5"/>
<text text-anchor="middle" x="120" y="-45.5" font-family="Helvetica,sans-Serif" font-size="10.00">AtualizaIdoso</text>
</a>
</g>
</g>
<!-- Node1&#45;&gt;Node2 -->
<g id="edge1" class="edge">
<title>Node1&#45;&gt;Node2</title>
<path fill="none" stroke="midnightblue" d="M188.51,-38.06C179.46,-39.39 170.34,-40.73 161.85,-41.98"/>
<polygon fill="midnightblue" stroke="midnightblue" points="189.26,-41.48 198.65,-36.56 188.24,-34.56 189.26,-41.48"/>
</g>
<!-- Node4 -->
<g id="node4" class="node">
<title>Node4</title>
<g id="a_node4"><a xlink:href="idoso_8h.html#a88452684585a131cdad194e145456e67" target="_top" xlink:title="Dadas as informacoes atualizadas do idoso, essa funcao eh responsavel por processar as informacoes ob...">
<polygon fill="none" stroke="black" points="77,-0.5 77,-19.5 163,-19.5 163,-0.5 77,-0.5"/>
<text text-anchor="middle" x="120" y="-7.5" font-family="Helvetica,sans-Serif" font-size="10.00">ProcessaIdoso</text>
</a>
</g>
</g>
<!-- Node1&#45;&gt;Node4 -->
<g id="edge3" class="edge">
<title>Node1&#45;&gt;Node4</title>
<path fill="none" stroke="midnightblue" d="M188.58,-19.95C179.94,-18.68 171.23,-17.4 163.07,-16.2"/>
<polygon fill="midnightblue" stroke="midnightblue" points="188.24,-23.44 198.65,-21.44 189.26,-16.52 188.24,-23.44"/>
</g>
<!-- Node3 -->
<g id="node3" class="node">
<title>Node3</title>
<g id="a_node3"><a xlink:href="cliente_8c.html#a0ddf1224851353fc92bfbff6f499fa97" target="_top" xlink:title=" ">
<polygon fill="none" stroke="black" points="0,-19.5 0,-38.5 41,-38.5 41,-19.5 0,-19.5"/>
<text text-anchor="middle" x="20.5" y="-26.5" font-family="Helvetica,sans-Serif" font-size="10.00">main</text>
</a>
</g>
</g>
<!-- Node2&#45;&gt;Node3 -->
<g id="edge2" class="edge">
<title>Node2&#45;&gt;Node3</title>
<path fill="none" stroke="midnightblue" d="M68.45,-38.15C58.78,-36.26 49.2,-34.4 41.25,-32.85"/>
<polygon fill="midnightblue" stroke="midnightblue" points="68.01,-41.63 78.5,-40.11 69.35,-34.76 68.01,-41.63"/>
</g>
<!-- Node4&#45;&gt;Node3 -->
<g id="edge4" class="edge">
<title>Node4&#45;&gt;Node3</title>
<path fill="none" stroke="midnightblue" d="M66.82,-20.17C57.62,-21.96 48.58,-23.72 41.03,-25.19"/>
<polygon fill="midnightblue" stroke="midnightblue" points="67.66,-23.57 76.8,-18.22 66.32,-16.7 67.66,-23.57"/>
</g>
</g>
</svg>
