<?xml version="1.0" encoding="UTF-8" standalone="no"?>
<!DOCTYPE svg PUBLIC "-//W3C//DTD SVG 1.1//EN"
 "http://www.w3.org/Graphics/SVG/1.1/DTD/svg11.dtd">
<!-- Generated by graphviz version 2.50.0 (0)
 -->
<!-- Title: InsereAmizade Pages: 1 -->
<svg width="369pt" height="66pt"
 viewBox="0.00 0.00 369.00 66.00" xmlns="http://www.w3.org/2000/svg" xmlns:xlink="http://www.w3.org/1999/xlink">
<g id="graph0" class="graph" transform="scale(1 1) rotate(0) translate(4 62)">
<title>InsereAmizade</title>
<!-- Node1 -->
<g id="node1" class="node">
<title>Node1</title>
<g id="a_node1"><a xlink:title="Cria o um laco de amizade, inserindo o amigo na lista de amigos um do outro Como amizades sao recipro...">
<polygon fill="#bfbfbf" stroke="black" points="0,-19.5 0,-38.5 89,-38.5 89,-19.5 0,-19.5"/>
<text text-anchor="middle" x="44.5" y="-26.5" font-family="Helvetica,sans-Serif" font-size="10.00">InsereAmizade</text>
</a>
</g>
</g>
<!-- Node2 -->
<g id="node2" class="node">
<title>Node2</title>
<g id="a_node2"><a xlink:href="lista_idoso_8c.html#ae54bcb97b257f8edff6646cf71e1946d" target="_top" xlink:title="Busca na lista o Idoso que possui o nome informado e faz o retorno do mesmo, retornando nulo caso a l...">
<polygon fill="none" stroke="black" points="129.5,-38.5 129.5,-57.5 224.5,-57.5 224.5,-38.5 129.5,-38.5"/>
<text text-anchor="middle" x="177" y="-45.5" font-family="Helvetica,sans-Serif" font-size="10.00">BuscaListaIdoso</text>
</a>
</g>
</g>
<!-- Node1&#45;&gt;Node2 -->
<g id="edge1" class="edge">
<title>Node1&#45;&gt;Node2</title>
<path fill="none" stroke="midnightblue" d="M89.32,-35.38C98.98,-36.79 109.35,-38.3 119.44,-39.76"/>
<polygon fill="midnightblue" stroke="midnightblue" points="118.99,-43.24 129.39,-41.21 120,-36.31 118.99,-43.24"/>
</g>
<!-- Node4 -->
<g id="node4" class="node">
<title>Node4</title>
<g id="a_node4"><a xlink:href="idoso_8h.html#adead1c28f1b19683b8958019426a8aa2" target="_top" xlink:title="Insere um novo idoso a lista de amizades do Idoso acessado.">
<polygon fill="none" stroke="black" points="125,-0.5 125,-19.5 229,-19.5 229,-0.5 125,-0.5"/>
<text text-anchor="middle" x="177" y="-7.5" font-family="Helvetica,sans-Serif" font-size="10.00">InsereAmigoIdoso</text>
</a>
</g>
</g>
<!-- Node1&#45;&gt;Node4 -->
<g id="edge3" class="edge">
<title>Node1&#45;&gt;Node4</title>
<path fill="none" stroke="midnightblue" d="M89.32,-22.62C97.51,-21.43 106.22,-20.16 114.83,-18.91"/>
<polygon fill="midnightblue" stroke="midnightblue" points="115.46,-22.35 124.85,-17.45 114.45,-15.42 115.46,-22.35"/>
</g>
<!-- Node3 -->
<g id="node3" class="node">
<title>Node3</title>
<g id="a_node3"><a xlink:href="idoso_8h.html#ad410fb3330c4e9336dc048bb5c684b58" target="_top" xlink:title="Retorna o Nome do objeto Idoso.">
<polygon fill="none" stroke="black" points="268.5,-38.5 268.5,-57.5 357.5,-57.5 357.5,-38.5 268.5,-38.5"/>
<text text-anchor="middle" x="313" y="-45.5" font-family="Helvetica,sans-Serif" font-size="10.00">GetNomeIdoso</text>
</a>
</g>
</g>
<!-- Node2&#45;&gt;Node3 -->
<g id="edge2" class="edge">
<title>Node2&#45;&gt;Node3</title>
<path fill="none" stroke="midnightblue" d="M224.87,-48C235.5,-48 246.89,-48 257.8,-48"/>
<polygon fill="midnightblue" stroke="midnightblue" points="258.08,-51.5 268.08,-48 258.08,-44.5 258.08,-51.5"/>
</g>
<!-- Node5 -->
<g id="node5" class="node">
<title>Node5</title>
<g id="a_node5"><a xlink:href="lista_idoso_8h.html#aefc27e3a6b457254cdd0bb849ef2fbb8" target="_top" xlink:title="Insere o Idoso ao final da lista de idosos acessada.">
<polygon fill="none" stroke="black" points="265,-0.5 265,-19.5 361,-19.5 361,-0.5 265,-0.5"/>
<text text-anchor="middle" x="313" y="-7.5" font-family="Helvetica,sans-Serif" font-size="10.00">InsereListaIdoso</text>
</a>
</g>
</g>
<!-- Node4&#45;&gt;Node5 -->
<g id="edge4" class="edge">
<title>Node4&#45;&gt;Node5</title>
<path fill="none" stroke="midnightblue" d="M229.04,-10C237.35,-10 246.01,-10 254.46,-10"/>
<polygon fill="midnightblue" stroke="midnightblue" points="254.63,-13.5 264.63,-10 254.63,-6.5 254.63,-13.5"/>
</g>
</g>
</svg>
