<?xml version="1.0" encoding="UTF-8" standalone="no"?>
<!DOCTYPE svg PUBLIC "-//W3C//DTD SVG 1.1//EN"
 "http://www.w3.org/Graphics/SVG/1.1/DTD/svg11.dtd">
<!-- Generated by graphviz version 2.50.0 (0)
 -->
<!-- Title: src/listaIdoso.c Pages: 1 -->
<svg width="330pt" height="252pt"
 viewBox="0.00 0.00 330.00 252.00" xmlns="http://www.w3.org/2000/svg" xmlns:xlink="http://www.w3.org/1999/xlink">
<g id="graph0" class="graph" transform="scale(1 1) rotate(0) translate(4 248)">
<title>src/listaIdoso.c</title>
<!-- Node1 -->
<g id="node1" class="node">
<title>Node1</title>
<g id="a_node1"><a xlink:title=" ">
<polygon fill="#bfbfbf" stroke="black" points="110,-224.5 110,-243.5 199,-243.5 199,-224.5 110,-224.5"/>
<text text-anchor="middle" x="154.5" y="-231.5" font-family="Helvetica,sans-Serif" font-size="10.00">src/listaIdoso.c</text>
</a>
</g>
</g>
<!-- Node2 -->
<g id="node2" class="node">
<title>Node2</title>
<g id="a_node2"><a xlink:href="lista_idoso_8h.html" target="_top" xlink:title=" ">
<polygon fill="none" stroke="black" points="0,-168.5 0,-187.5 73,-187.5 73,-168.5 0,-168.5"/>
<text text-anchor="middle" x="36.5" y="-175.5" font-family="Helvetica,sans-Serif" font-size="10.00">listaIdoso.h</text>
</a>
</g>
</g>
<!-- Node1&#45;&gt;Node2 -->
<g id="edge1" class="edge">
<title>Node1&#45;&gt;Node2</title>
<path fill="none" stroke="midnightblue" d="M135.8,-224.44C116.56,-215.64 86.35,-201.81 64.3,-191.72"/>
<polygon fill="midnightblue" stroke="midnightblue" points="65.66,-188.5 55.11,-187.52 62.75,-194.86 65.66,-188.5"/>
</g>
<!-- Node3 -->
<g id="node3" class="node">
<title>Node3</title>
<g id="a_node3"><a xlink:href="idoso_8h.html" target="_top" xlink:title=" ">
<polygon fill="none" stroke="black" points="42.5,-112.5 42.5,-131.5 94.5,-131.5 94.5,-112.5 42.5,-112.5"/>
<text text-anchor="middle" x="68.5" y="-119.5" font-family="Helvetica,sans-Serif" font-size="10.00">idoso.h</text>
</a>
</g>
</g>
<!-- Node1&#45;&gt;Node3 -->
<g id="edge6" class="edge">
<title>Node1&#45;&gt;Node3</title>
<path fill="none" stroke="midnightblue" d="M147.75,-224.37C133.5,-206.14 100.11,-163.43 81.54,-139.68"/>
<polygon fill="midnightblue" stroke="midnightblue" points="84.13,-137.31 75.22,-131.59 78.62,-141.63 84.13,-137.31"/>
</g>
<!-- Node6 -->
<g id="node6" class="node">
<title>Node6</title>
<g id="a_node6"><a xlink:title=" ">
<polygon fill="none" stroke="#bfbfbf" points="129.5,-168.5 129.5,-187.5 179.5,-187.5 179.5,-168.5 129.5,-168.5"/>
<text text-anchor="middle" x="154.5" y="-175.5" font-family="Helvetica,sans-Serif" font-size="10.00">stdio.h</text>
</a>
</g>
</g>
<!-- Node1&#45;&gt;Node6 -->
<g id="edge7" class="edge">
<title>Node1&#45;&gt;Node6</title>
<path fill="none" stroke="midnightblue" d="M154.5,-224.08C154.5,-217.01 154.5,-206.86 154.5,-197.99"/>
<polygon fill="midnightblue" stroke="midnightblue" points="158,-197.75 154.5,-187.75 151,-197.75 158,-197.75"/>
</g>
<!-- Node7 -->
<g id="node7" class="node">
<title>Node7</title>
<g id="a_node7"><a xlink:title=" ">
<polygon fill="none" stroke="#bfbfbf" points="198,-168.5 198,-187.5 251,-187.5 251,-168.5 198,-168.5"/>
<text text-anchor="middle" x="224.5" y="-175.5" font-family="Helvetica,sans-Serif" font-size="10.00">stdlib.h</text>
</a>
</g>
</g>
<!-- Node1&#45;&gt;Node7 -->
<g id="edge8" class="edge">
<title>Node1&#45;&gt;Node7</title>
<path fill="none" stroke="midnightblue" d="M165.75,-224.32C176.3,-216.18 192.3,-203.84 204.94,-194.09"/>
<polygon fill="midnightblue" stroke="midnightblue" points="207.27,-196.71 213.05,-187.83 202.99,-191.17 207.27,-196.71"/>
</g>
<!-- Node8 -->
<g id="node8" class="node">
<title>Node8</title>
<g id="a_node8"><a xlink:title=" ">
<polygon fill="none" stroke="#bfbfbf" points="269,-168.5 269,-187.5 322,-187.5 322,-168.5 269,-168.5"/>
<text text-anchor="middle" x="295.5" y="-175.5" font-family="Helvetica,sans-Serif" font-size="10.00">string.h</text>
</a>
</g>
</g>
<!-- Node1&#45;&gt;Node8 -->
<g id="edge9" class="edge">
<title>Node1&#45;&gt;Node8</title>
<path fill="none" stroke="midnightblue" d="M176.84,-224.44C200.25,-215.48 237.24,-201.31 263.69,-191.18"/>
<polygon fill="midnightblue" stroke="midnightblue" points="265.18,-194.36 273.26,-187.52 262.67,-187.82 265.18,-194.36"/>
</g>
<!-- Node2&#45;&gt;Node3 -->
<g id="edge2" class="edge">
<title>Node2&#45;&gt;Node3</title>
<path fill="none" stroke="midnightblue" d="M41.78,-168.08C46.21,-160.61 52.66,-149.72 58.12,-140.52"/>
<polygon fill="midnightblue" stroke="midnightblue" points="61.23,-142.14 63.31,-131.75 55.21,-138.57 61.23,-142.14"/>
</g>
<!-- Node4 -->
<g id="node4" class="node">
<title>Node4</title>
<g id="a_node4"><a xlink:href="geoloc_8h.html" target="_top" xlink:title=" ">
<polygon fill="none" stroke="black" points="39.5,-0.5 39.5,-19.5 97.5,-19.5 97.5,-0.5 39.5,-0.5"/>
<text text-anchor="middle" x="68.5" y="-7.5" font-family="Helvetica,sans-Serif" font-size="10.00">geoloc.h</text>
</a>
</g>
</g>
<!-- Node3&#45;&gt;Node4 -->
<g id="edge3" class="edge">
<title>Node3&#45;&gt;Node4</title>
<path fill="none" stroke="midnightblue" d="M65.41,-112.17C62.45,-103.2 58.18,-88.83 56.5,-76 54.43,-60.18 58.15,-42.36 61.98,-29.39"/>
<polygon fill="midnightblue" stroke="midnightblue" points="65.34,-30.38 65.1,-19.79 58.68,-28.22 65.34,-30.38"/>
</g>
<!-- Node5 -->
<g id="node5" class="node">
<title>Node5</title>
<g id="a_node5"><a xlink:href="cuidador_8h.html" target="_top" xlink:title=" ">
<polygon fill="none" stroke="black" points="66,-56.5 66,-75.5 133,-75.5 133,-56.5 66,-56.5"/>
<text text-anchor="middle" x="99.5" y="-63.5" font-family="Helvetica,sans-Serif" font-size="10.00">cuidador.h</text>
</a>
</g>
</g>
<!-- Node3&#45;&gt;Node5 -->
<g id="edge4" class="edge">
<title>Node3&#45;&gt;Node5</title>
<path fill="none" stroke="midnightblue" d="M73.62,-112.08C77.91,-104.61 84.16,-93.72 89.44,-84.52"/>
<polygon fill="midnightblue" stroke="midnightblue" points="92.53,-86.17 94.48,-75.75 86.46,-82.68 92.53,-86.17"/>
</g>
<!-- Node5&#45;&gt;Node4 -->
<g id="edge5" class="edge">
<title>Node5&#45;&gt;Node4</title>
<path fill="none" stroke="midnightblue" d="M94.38,-56.08C90.09,-48.61 83.84,-37.72 78.56,-28.52"/>
<polygon fill="midnightblue" stroke="midnightblue" points="81.54,-26.68 73.52,-19.75 75.47,-30.17 81.54,-26.68"/>
</g>
</g>
</svg>
