<?xml version="1.0" encoding="UTF-8" standalone="no"?>
<!DOCTYPE svg PUBLIC "-//W3C//DTD SVG 1.1//EN"
 "http://www.w3.org/Graphics/SVG/1.1/DTD/svg11.dtd">
<!-- Generated by graphviz version 2.50.0 (0)
 -->
<!-- Title: RetornaIdosoProx Pages: 1 -->
<svg width="252pt" height="104pt"
 viewBox="0.00 0.00 252.00 104.00" xmlns="http://www.w3.org/2000/svg" xmlns:xlink="http://www.w3.org/1999/xlink">
<g id="graph0" class="graph" transform="scale(1 1) rotate(0) translate(4 100)">
<title>RetornaIdosoProx</title>
<!-- Node1 -->
<g id="node1" class="node">
<title>Node1</title>
<g id="a_node1"><a xlink:title="Retorna o Idoso mais proximo do ponto de referencia entre os presentes na lista.">
<polygon fill="#bfbfbf" stroke="black" points="0,-38.5 0,-57.5 103,-57.5 103,-38.5 0,-38.5"/>
<text text-anchor="middle" x="51.5" y="-45.5" font-family="Helvetica,sans-Serif" font-size="10.00">RetornaIdosoProx</text>
</a>
</g>
</g>
<!-- Node2 -->
<g id="node2" class="node">
<title>Node2</title>
<g id="a_node2"><a xlink:href="geoloc_8h.html#a58b31cb21ffe9fe839d9c2e0f69772a8" target="_top" xlink:title="Calcula a distancia entre duas localizacoes Retornando um double resultante do calculo.">
<polygon fill="none" stroke="black" points="153,-76.5 153,-95.5 230,-95.5 230,-76.5 153,-76.5"/>
<text text-anchor="middle" x="191.5" y="-83.5" font-family="Helvetica,sans-Serif" font-size="10.00">CalcDistGeo</text>
</a>
</g>
</g>
<!-- Node1&#45;&gt;Node2 -->
<g id="edge1" class="edge">
<title>Node1&#45;&gt;Node2</title>
<path fill="none" stroke="midnightblue" d="M87.32,-57.59C105.14,-62.49 127.02,-68.52 146.04,-73.76"/>
<polygon fill="midnightblue" stroke="midnightblue" points="145.12,-77.13 155.69,-76.41 146.98,-70.38 145.12,-77.13"/>
</g>
<!-- Node3 -->
<g id="node3" class="node">
<title>Node3</title>
<g id="a_node3"><a xlink:href="idoso_8h.html#a137d0f97f095286e4d25790507a52e61" target="_top" xlink:title="Retorna a condicao atual do idoso, respeitando a seguinte tabela &#45;2 = Bem morto &#45;1 = A informar,...">
<polygon fill="none" stroke="black" points="139,-38.5 139,-57.5 244,-57.5 244,-38.5 139,-38.5"/>
<text text-anchor="middle" x="191.5" y="-45.5" font-family="Helvetica,sans-Serif" font-size="10.00">GetCondicaoIdoso</text>
</a>
</g>
</g>
<!-- Node1&#45;&gt;Node3 -->
<g id="edge2" class="edge">
<title>Node1&#45;&gt;Node3</title>
<path fill="none" stroke="midnightblue" d="M103.1,-48C111.51,-48 120.3,-48 128.94,-48"/>
<polygon fill="midnightblue" stroke="midnightblue" points="128.98,-51.5 138.98,-48 128.98,-44.5 128.98,-51.5"/>
</g>
<!-- Node4 -->
<g id="node4" class="node">
<title>Node4</title>
<g id="a_node4"><a xlink:href="idoso_8h.html#a408d4574b54a20f17a044f55cd887fa6" target="_top" xlink:title="Retorna o Local do Idoso (Como Geoloc)">
<polygon fill="none" stroke="black" points="148.5,-0.5 148.5,-19.5 234.5,-19.5 234.5,-0.5 148.5,-0.5"/>
<text text-anchor="middle" x="191.5" y="-7.5" font-family="Helvetica,sans-Serif" font-size="10.00">GetLocalIdoso</text>
</a>
</g>
</g>
<!-- Node1&#45;&gt;Node4 -->
<g id="edge3" class="edge">
<title>Node1&#45;&gt;Node4</title>
<path fill="none" stroke="midnightblue" d="M87.32,-38.41C105.14,-33.51 127.02,-27.48 146.04,-22.24"/>
<polygon fill="midnightblue" stroke="midnightblue" points="146.98,-25.62 155.69,-19.59 145.12,-18.87 146.98,-25.62"/>
</g>
</g>
</svg>
