<?xml version="1.0" encoding="UTF-8" standalone="no"?>
<!DOCTYPE svg PUBLIC "-//W3C//DTD SVG 1.1//EN"
 "http://www.w3.org/Graphics/SVG/1.1/DTD/svg11.dtd">
<!-- Generated by graphviz version 2.50.0 (0)
 -->
<!-- Title: LiberaListaIdoso Pages: 1 -->
<svg width="290pt" height="47pt"
 viewBox="0.00 0.00 290.00 47.00" xmlns="http://www.w3.org/2000/svg" xmlns:xlink="http://www.w3.org/1999/xlink">
<g id="graph0" class="graph" transform="scale(1 1) rotate(0) translate(4 43)">
<title>LiberaListaIdoso</title>
<!-- Node1 -->
<g id="node1" class="node">
<title>Node1</title>
<g id="a_node1"><a xlink:title="Libera a memoria alocada pela lista e suas celulas.">
<polygon fill="#bfbfbf" stroke="black" points="186,-0.5 186,-19.5 282,-19.5 282,-0.5 186,-0.5"/>
<text text-anchor="middle" x="234" y="-7.5" font-family="Helvetica,sans-Serif" font-size="10.00">LiberaListaIdoso</text>
</a>
</g>
</g>
<!-- Node2 -->
<g id="node2" class="node">
<title>Node2</title>
<g id="a_node2"><a xlink:href="idoso_8h.html#a9f1fc433114612ab21373e245aa47712" target="_top" xlink:title="Libera a memoria alocada para a variavel de tipo Idoso.">
<polygon fill="none" stroke="black" points="77,-19.5 77,-38.5 150,-38.5 150,-19.5 77,-19.5"/>
<text text-anchor="middle" x="113.5" y="-26.5" font-family="Helvetica,sans-Serif" font-size="10.00">LiberaIdoso</text>
</a>
</g>
</g>
<!-- Node1&#45;&gt;Node2 -->
<g id="edge1" class="edge">
<title>Node1&#45;&gt;Node2</title>
<path fill="none" stroke="midnightblue" d="M175.69,-19.19C167,-20.58 158.25,-21.99 150.19,-23.28"/>
<polygon fill="midnightblue" stroke="midnightblue" points="176.51,-22.6 185.83,-17.56 175.4,-15.69 176.51,-22.6"/>
</g>
<!-- Node3 -->
<g id="node3" class="node">
<title>Node3</title>
<g id="a_node3"><a xlink:href="cliente_8c.html#a0ddf1224851353fc92bfbff6f499fa97" target="_top" xlink:title=" ">
<polygon fill="none" stroke="black" points="0,-0.5 0,-19.5 41,-19.5 41,-0.5 0,-0.5"/>
<text text-anchor="middle" x="20.5" y="-7.5" font-family="Helvetica,sans-Serif" font-size="10.00">main</text>
</a>
</g>
</g>
<!-- Node1&#45;&gt;Node3 -->
<g id="edge3" class="edge">
<title>Node1&#45;&gt;Node3</title>
<path fill="none" stroke="midnightblue" d="M175.64,-10C130.96,-10 71.58,-10 41.21,-10"/>
<polygon fill="midnightblue" stroke="midnightblue" points="175.8,-13.5 185.8,-10 175.8,-6.5 175.8,-13.5"/>
</g>
<!-- Node2&#45;&gt;Node3 -->
<g id="edge2" class="edge">
<title>Node2&#45;&gt;Node3</title>
<path fill="none" stroke="midnightblue" d="M66.98,-19.49C57.86,-17.59 48.75,-15.69 41.1,-14.09"/>
<polygon fill="midnightblue" stroke="midnightblue" points="66.29,-22.93 76.8,-21.55 67.72,-16.08 66.29,-22.93"/>
</g>
</g>
</svg>
