<?xml version="1.0" encoding="UTF-8" standalone="no"?>
<!DOCTYPE svg PUBLIC "-//W3C//DTD SVG 1.1//EN"
 "http://www.w3.org/Graphics/SVG/1.1/DTD/svg11.dtd">
<!-- Generated by graphviz version 2.50.0 (0)
 -->
<!-- Title: InsereListaIdoso Pages: 1 -->
<svg width="446pt" height="47pt"
 viewBox="0.00 0.00 446.00 47.00" xmlns="http://www.w3.org/2000/svg" xmlns:xlink="http://www.w3.org/1999/xlink">
<g id="graph0" class="graph" transform="scale(1 1) rotate(0) translate(4 43)">
<title>InsereListaIdoso</title>
<!-- Node1 -->
<g id="node1" class="node">
<title>Node1</title>
<g id="a_node1"><a xlink:title="Insere o Idoso ao final da lista de idosos acessada.">
<polygon fill="#bfbfbf" stroke="black" points="342,-0.5 342,-19.5 438,-19.5 438,-0.5 342,-0.5"/>
<text text-anchor="middle" x="390" y="-7.5" font-family="Helvetica,sans-Serif" font-size="10.00">InsereListaIdoso</text>
</a>
</g>
</g>
<!-- Node2 -->
<g id="node2" class="node">
<title>Node2</title>
<g id="a_node2"><a xlink:href="idoso_8h.html#adead1c28f1b19683b8958019426a8aa2" target="_top" xlink:title="Insere um novo idoso a lista de amizades do Idoso acessado.">
<polygon fill="none" stroke="black" points="202,-19.5 202,-38.5 306,-38.5 306,-19.5 202,-19.5"/>
<text text-anchor="middle" x="254" y="-26.5" font-family="Helvetica,sans-Serif" font-size="10.00">InsereAmigoIdoso</text>
</a>
</g>
</g>
<!-- Node1&#45;&gt;Node2 -->
<g id="edge1" class="edge">
<title>Node1&#45;&gt;Node2</title>
<path fill="none" stroke="midnightblue" d="M331.65,-18.13C323.25,-19.32 314.64,-20.54 306.37,-21.72"/>
<polygon fill="midnightblue" stroke="midnightblue" points="332.35,-21.57 341.76,-16.7 331.36,-14.64 332.35,-21.57"/>
</g>
<!-- Node4 -->
<g id="node4" class="node">
<title>Node4</title>
<g id="a_node4"><a xlink:href="cliente_8c.html#a0ddf1224851353fc92bfbff6f499fa97" target="_top" xlink:title=" ">
<polygon fill="none" stroke="black" points="0,-0.5 0,-19.5 41,-19.5 41,-0.5 0,-0.5"/>
<text text-anchor="middle" x="20.5" y="-7.5" font-family="Helvetica,sans-Serif" font-size="10.00">main</text>
</a>
</g>
</g>
<!-- Node1&#45;&gt;Node4 -->
<g id="edge4" class="edge">
<title>Node1&#45;&gt;Node4</title>
<path fill="none" stroke="midnightblue" d="M331.57,-10C247.62,-10 95.49,-10 41.32,-10"/>
<polygon fill="midnightblue" stroke="midnightblue" points="331.71,-13.5 341.71,-10 331.71,-6.5 331.71,-13.5"/>
</g>
<!-- Node3 -->
<g id="node3" class="node">
<title>Node3</title>
<g id="a_node3"><a xlink:href="lista_idoso_8h.html#a426b6b2ccb10e43ecff84f9a744c1c5c" target="_top" xlink:title="Cria o um laco de amizade, inserindo o amigo na lista de amigos um do outro Como amizades sao recipro...">
<polygon fill="none" stroke="black" points="77,-19.5 77,-38.5 166,-38.5 166,-19.5 77,-19.5"/>
<text text-anchor="middle" x="121.5" y="-26.5" font-family="Helvetica,sans-Serif" font-size="10.00">InsereAmizade</text>
</a>
</g>
</g>
<!-- Node2&#45;&gt;Node3 -->
<g id="edge2" class="edge">
<title>Node2&#45;&gt;Node3</title>
<path fill="none" stroke="midnightblue" d="M191.52,-29C183.03,-29 174.46,-29 166.37,-29"/>
<polygon fill="midnightblue" stroke="midnightblue" points="191.8,-32.5 201.8,-29 191.8,-25.5 191.8,-32.5"/>
</g>
<!-- Node3&#45;&gt;Node4 -->
<g id="edge3" class="edge">
<title>Node3&#45;&gt;Node4</title>
<path fill="none" stroke="midnightblue" d="M66.84,-18.7C57.68,-16.94 48.72,-15.22 41.21,-13.78"/>
<polygon fill="midnightblue" stroke="midnightblue" points="66.31,-22.16 76.79,-20.61 67.63,-15.29 66.31,-22.16"/>
</g>
</g>
</svg>
