<?xml version="1.0" encoding="UTF-8" standalone="no"?>
<!DOCTYPE svg PUBLIC "-//W3C//DTD SVG 1.1//EN"
 "http://www.w3.org/Graphics/SVG/1.1/DTD/svg11.dtd">
<!-- Generated by graphviz version 2.50.0 (0)
 -->
<!-- Title: IniciaListaCui Pages: 1 -->
<svg width="272pt" height="47pt"
 viewBox="0.00 0.00 272.00 47.00" xmlns="http://www.w3.org/2000/svg" xmlns:xlink="http://www.w3.org/1999/xlink">
<g id="graph0" class="graph" transform="scale(1 1) rotate(0) translate(4 43)">
<title>IniciaListaCui</title>
<!-- Node1 -->
<g id="node1" class="node">
<title>Node1</title>
<g id="a_node1"><a xlink:title="Aloca e inicia uma lista de cuidadores com uma sentinela vazia.">
<polygon fill="#bfbfbf" stroke="black" points="182,-0.5 182,-19.5 264,-19.5 264,-0.5 182,-0.5"/>
<text text-anchor="middle" x="223" y="-7.5" font-family="Helvetica,sans-Serif" font-size="10.00">IniciaListaCui</text>
</a>
</g>
</g>
<!-- Node2 -->
<g id="node2" class="node">
<title>Node2</title>
<g id="a_node2"><a xlink:href="idoso_8h.html#a3f54e9cc6f8cd2c53e2c3a09aefc32db" target="_top" xlink:title="Faz a alocacao de memoria e inicializacao de uma variavel do tipo Idoso.">
<polygon fill="none" stroke="black" points="77,-19.5 77,-38.5 146,-38.5 146,-19.5 77,-19.5"/>
<text text-anchor="middle" x="111.5" y="-26.5" font-family="Helvetica,sans-Serif" font-size="10.00">IniciaIdoso</text>
</a>
</g>
</g>
<!-- Node1&#45;&gt;Node2 -->
<g id="edge1" class="edge">
<title>Node1&#45;&gt;Node2</title>
<path fill="none" stroke="midnightblue" d="M171.78,-18.71C163.11,-20.22 154.28,-21.75 146.17,-23.16"/>
<polygon fill="midnightblue" stroke="midnightblue" points="172.59,-22.13 181.85,-16.97 171.4,-15.23 172.59,-22.13"/>
</g>
<!-- Node3 -->
<g id="node3" class="node">
<title>Node3</title>
<g id="a_node3"><a xlink:href="cliente_8c.html#a0ddf1224851353fc92bfbff6f499fa97" target="_top" xlink:title=" ">
<polygon fill="none" stroke="black" points="0,-0.5 0,-19.5 41,-19.5 41,-0.5 0,-0.5"/>
<text text-anchor="middle" x="20.5" y="-7.5" font-family="Helvetica,sans-Serif" font-size="10.00">main</text>
</a>
</g>
</g>
<!-- Node1&#45;&gt;Node3 -->
<g id="edge3" class="edge">
<title>Node1&#45;&gt;Node3</title>
<path fill="none" stroke="midnightblue" d="M171.79,-10C129.47,-10 71.15,-10 41.12,-10"/>
<polygon fill="midnightblue" stroke="midnightblue" points="171.91,-13.5 181.91,-10 171.91,-6.5 171.91,-13.5"/>
</g>
<!-- Node2&#45;&gt;Node3 -->
<g id="edge2" class="edge">
<title>Node2&#45;&gt;Node3</title>
<path fill="none" stroke="midnightblue" d="M66.83,-19.68C57.86,-17.76 48.85,-15.84 41.25,-14.22"/>
<polygon fill="midnightblue" stroke="midnightblue" points="66.34,-23.15 76.85,-21.82 67.8,-16.31 66.34,-23.15"/>
</g>
</g>
</svg>
