<?xml version="1.0" encoding="UTF-8" standalone="no"?>
<!DOCTYPE svg PUBLIC "-//W3C//DTD SVG 1.1//EN"
 "http://www.w3.org/Graphics/SVG/1.1/DTD/svg11.dtd">
<!-- Generated by graphviz version 2.50.0 (0)
 -->
<!-- Title: InsereListaCui Pages: 1 -->
<svg width="323pt" height="47pt"
 viewBox="0.00 0.00 323.00 47.00" xmlns="http://www.w3.org/2000/svg" xmlns:xlink="http://www.w3.org/1999/xlink">
<g id="graph0" class="graph" transform="scale(1 1) rotate(0) translate(4 43)">
<title>InsereListaCui</title>
<!-- Node1 -->
<g id="node1" class="node">
<title>Node1</title>
<g id="a_node1"><a xlink:title="Insere o cuidador ao final da lista de cuidadores acessada.">
<polygon fill="#bfbfbf" stroke="black" points="229,-0.5 229,-19.5 315,-19.5 315,-0.5 229,-0.5"/>
<text text-anchor="middle" x="272" y="-7.5" font-family="Helvetica,sans-Serif" font-size="10.00">InsereListaCui</text>
</a>
</g>
</g>
<!-- Node2 -->
<g id="node2" class="node">
<title>Node2</title>
<g id="a_node2"><a xlink:href="idoso_8h.html#aab10cd3a90c4c144a89041f24c9b148f" target="_top" xlink:title="Insere um novo cuidador a lista de cuidadores que o Idoso acessado pode requisitar.">
<polygon fill="none" stroke="black" points="77,-19.5 77,-38.5 193,-38.5 193,-19.5 77,-19.5"/>
<text text-anchor="middle" x="135" y="-26.5" font-family="Helvetica,sans-Serif" font-size="10.00">InsereCuidadorIdoso</text>
</a>
</g>
</g>
<!-- Node1&#45;&gt;Node2 -->
<g id="edge1" class="edge">
<title>Node1&#45;&gt;Node2</title>
<path fill="none" stroke="midnightblue" d="M218.63,-17.37C210.24,-18.55 201.53,-19.78 193.04,-20.97"/>
<polygon fill="midnightblue" stroke="midnightblue" points="219.24,-20.82 228.66,-15.96 218.27,-13.89 219.24,-20.82"/>
</g>
<!-- Node3 -->
<g id="node3" class="node">
<title>Node3</title>
<g id="a_node3"><a xlink:href="cliente_8c.html#a0ddf1224851353fc92bfbff6f499fa97" target="_top" xlink:title=" ">
<polygon fill="none" stroke="black" points="0,-0.5 0,-19.5 41,-19.5 41,-0.5 0,-0.5"/>
<text text-anchor="middle" x="20.5" y="-7.5" font-family="Helvetica,sans-Serif" font-size="10.00">main</text>
</a>
</g>
</g>
<!-- Node1&#45;&gt;Node3 -->
<g id="edge3" class="edge">
<title>Node1&#45;&gt;Node3</title>
<path fill="none" stroke="midnightblue" d="M218.64,-10C163.31,-10 78.92,-10 41.07,-10"/>
<polygon fill="midnightblue" stroke="midnightblue" points="218.96,-13.5 228.96,-10 218.96,-6.5 218.96,-13.5"/>
</g>
<!-- Node2&#45;&gt;Node3 -->
<g id="edge2" class="edge">
<title>Node2&#45;&gt;Node3</title>
<path fill="none" stroke="midnightblue" d="M67.4,-17.75C57.88,-16.14 48.77,-14.61 41.22,-13.33"/>
<polygon fill="midnightblue" stroke="midnightblue" points="66.98,-21.23 77.42,-19.44 68.14,-14.33 66.98,-21.23"/>
</g>
</g>
</svg>
