<?xml version="1.0" encoding="UTF-8" standalone="no"?>
<!DOCTYPE svg PUBLIC "-//W3C//DTD SVG 1.1//EN"
 "http://www.w3.org/Graphics/SVG/1.1/DTD/svg11.dtd">
<!-- Generated by graphviz version 2.50.0 (0)
 -->
<!-- Title: src/listaCuidador.c Pages: 1 -->
<svg width="308pt" height="196pt"
 viewBox="0.00 0.00 308.00 196.00" xmlns="http://www.w3.org/2000/svg" xmlns:xlink="http://www.w3.org/1999/xlink">
<g id="graph0" class="graph" transform="scale(1 1) rotate(0) translate(4 192)">
<title>src/listaCuidador.c</title>
<!-- Node1 -->
<g id="node1" class="node">
<title>Node1</title>
<g id="a_node1"><a xlink:title=" ">
<polygon fill="#bfbfbf" stroke="black" points="114.5,-168.5 114.5,-187.5 220.5,-187.5 220.5,-168.5 114.5,-168.5"/>
<text text-anchor="middle" x="167.5" y="-175.5" font-family="Helvetica,sans-Serif" font-size="10.00">src/listaCuidador.c</text>
</a>
</g>
</g>
<!-- Node2 -->
<g id="node2" class="node">
<title>Node2</title>
<g id="a_node2"><a xlink:href="lista_cuidador_8h.html" target="_top" xlink:title=" ">
<polygon fill="none" stroke="black" points="0,-112.5 0,-131.5 89,-131.5 89,-112.5 0,-112.5"/>
<text text-anchor="middle" x="44.5" y="-119.5" font-family="Helvetica,sans-Serif" font-size="10.00">listaCuidador.h</text>
</a>
</g>
</g>
<!-- Node1&#45;&gt;Node2 -->
<g id="edge1" class="edge">
<title>Node1&#45;&gt;Node2</title>
<path fill="none" stroke="midnightblue" d="M148.01,-168.44C127.86,-159.6 96.18,-145.69 73.17,-135.59"/>
<polygon fill="midnightblue" stroke="midnightblue" points="74.46,-132.33 63.9,-131.52 71.65,-138.74 74.46,-132.33"/>
</g>
<!-- Node5 -->
<g id="node5" class="node">
<title>Node5</title>
<g id="a_node5"><a xlink:title=" ">
<polygon fill="none" stroke="#bfbfbf" points="107.5,-112.5 107.5,-131.5 157.5,-131.5 157.5,-112.5 107.5,-112.5"/>
<text text-anchor="middle" x="132.5" y="-119.5" font-family="Helvetica,sans-Serif" font-size="10.00">stdio.h</text>
</a>
</g>
</g>
<!-- Node1&#45;&gt;Node5 -->
<g id="edge4" class="edge">
<title>Node1&#45;&gt;Node5</title>
<path fill="none" stroke="midnightblue" d="M161.72,-168.08C156.83,-160.53 149.67,-149.49 143.67,-140.23"/>
<polygon fill="midnightblue" stroke="midnightblue" points="146.55,-138.24 138.17,-131.75 140.67,-142.05 146.55,-138.24"/>
</g>
<!-- Node6 -->
<g id="node6" class="node">
<title>Node6</title>
<g id="a_node6"><a xlink:title=" ">
<polygon fill="none" stroke="#bfbfbf" points="176,-112.5 176,-131.5 229,-131.5 229,-112.5 176,-112.5"/>
<text text-anchor="middle" x="202.5" y="-119.5" font-family="Helvetica,sans-Serif" font-size="10.00">stdlib.h</text>
</a>
</g>
</g>
<!-- Node1&#45;&gt;Node6 -->
<g id="edge5" class="edge">
<title>Node1&#45;&gt;Node6</title>
<path fill="none" stroke="midnightblue" d="M173.28,-168.08C178.17,-160.53 185.33,-149.49 191.33,-140.23"/>
<polygon fill="midnightblue" stroke="midnightblue" points="194.33,-142.05 196.83,-131.75 188.45,-138.24 194.33,-142.05"/>
</g>
<!-- Node7 -->
<g id="node7" class="node">
<title>Node7</title>
<g id="a_node7"><a xlink:title=" ">
<polygon fill="none" stroke="#bfbfbf" points="247,-112.5 247,-131.5 300,-131.5 300,-112.5 247,-112.5"/>
<text text-anchor="middle" x="273.5" y="-119.5" font-family="Helvetica,sans-Serif" font-size="10.00">string.h</text>
</a>
</g>
</g>
<!-- Node1&#45;&gt;Node7 -->
<g id="edge6" class="edge">
<title>Node1&#45;&gt;Node7</title>
<path fill="none" stroke="midnightblue" d="M184.53,-168.32C201.53,-159.66 227.88,-146.24 247.49,-136.25"/>
<polygon fill="midnightblue" stroke="midnightblue" points="249.19,-139.31 256.51,-131.65 246.01,-133.08 249.19,-139.31"/>
</g>
<!-- Node3 -->
<g id="node3" class="node">
<title>Node3</title>
<g id="a_node3"><a xlink:href="cuidador_8h.html" target="_top" xlink:title=" ">
<polygon fill="none" stroke="black" points="11,-56.5 11,-75.5 78,-75.5 78,-56.5 11,-56.5"/>
<text text-anchor="middle" x="44.5" y="-63.5" font-family="Helvetica,sans-Serif" font-size="10.00">cuidador.h</text>
</a>
</g>
</g>
<!-- Node2&#45;&gt;Node3 -->
<g id="edge2" class="edge">
<title>Node2&#45;&gt;Node3</title>
<path fill="none" stroke="midnightblue" d="M44.5,-112.08C44.5,-105.01 44.5,-94.86 44.5,-85.99"/>
<polygon fill="midnightblue" stroke="midnightblue" points="48,-85.75 44.5,-75.75 41,-85.75 48,-85.75"/>
</g>
<!-- Node4 -->
<g id="node4" class="node">
<title>Node4</title>
<g id="a_node4"><a xlink:href="geoloc_8h.html" target="_top" xlink:title=" ">
<polygon fill="none" stroke="black" points="15.5,-0.5 15.5,-19.5 73.5,-19.5 73.5,-0.5 15.5,-0.5"/>
<text text-anchor="middle" x="44.5" y="-7.5" font-family="Helvetica,sans-Serif" font-size="10.00">geoloc.h</text>
</a>
</g>
</g>
<!-- Node3&#45;&gt;Node4 -->
<g id="edge3" class="edge">
<title>Node3&#45;&gt;Node4</title>
<path fill="none" stroke="midnightblue" d="M44.5,-56.08C44.5,-49.01 44.5,-38.86 44.5,-29.99"/>
<polygon fill="midnightblue" stroke="midnightblue" points="48,-29.75 44.5,-19.75 41,-29.75 48,-29.75"/>
</g>
</g>
</svg>
