<?xml version="1.0" encoding="UTF-8" standalone="no"?>
<!DOCTYPE svg PUBLIC "-//W3C//DTD SVG 1.1//EN"
 "http://www.w3.org/Graphics/SVG/1.1/DTD/svg11.dtd">
<!-- Generated by graphviz version 2.50.0 (0)
 -->
<!-- Title: expth Pages: 1 -->
<svg width="331pt" height="121pt"
 viewBox="0.00 0.00 331.00 120.64" xmlns="http://www.w3.org/2000/svg" xmlns:xlink="http://www.w3.org/1999/xlink">
<g id="graph0" class="graph" transform="scale(1 1) rotate(0) translate(4 116.64)">
<title>expth</title>
<!-- Node1 -->
<g id="node1" class="node">
<title>Node1</title>
<g id="a_node1"><a xlink:title="Extend path: adiciona uma string no final do caminho.">
<polygon fill="#bfbfbf" stroke="black" points="279,-36.14 279,-55.14 323,-55.14 323,-36.14 279,-36.14"/>
<text text-anchor="middle" x="301" y="-43.14" font-family="Helvetica,sans-Serif" font-size="10.00">expth</text>
</a>
</g>
</g>
<!-- Node2 -->
<g id="node2" class="node">
<title>Node2</title>
<g id="a_node2"><a xlink:href="pathman_8h.html#a8ac57bc6fde707215bb75ce25309489b" target="_top" xlink:title="adiciona uma string no final do caminho, com um divisor no meio se o path terminar com um divisor,...">
<polygon fill="none" stroke="black" points="199,-55.14 199,-74.14 243,-74.14 243,-55.14 199,-55.14"/>
<text text-anchor="middle" x="221" y="-62.14" font-family="Helvetica,sans-Serif" font-size="10.00">adpth</text>
</a>
</g>
</g>
<!-- Node1&#45;&gt;Node2 -->
<g id="edge1" class="edge">
<title>Node1&#45;&gt;Node2</title>
<path fill="none" stroke="midnightblue" d="M268.86,-53.23C260.18,-55.34 250.96,-57.59 243.02,-59.52"/>
<polygon fill="midnightblue" stroke="midnightblue" points="269.8,-56.6 278.69,-50.83 268.14,-49.8 269.8,-56.6"/>
</g>
<!-- Node3 -->
<g id="node3" class="node">
<title>Node3</title>
<g id="a_node3"><a xlink:href="cuidador_8h.html#aeb8e274de45a5c99428ad3740eef86b8" target="_top" xlink:title="Faz a alocacao de memoria e inicializacao de uma variavel do tipo cuidador.">
<polygon fill="none" stroke="black" points="77,-93.14 77,-112.14 163,-112.14 163,-93.14 77,-93.14"/>
<text text-anchor="middle" x="120" y="-100.14" font-family="Helvetica,sans-Serif" font-size="10.00">IniciaCuidador</text>
</a>
</g>
</g>
<!-- Node1&#45;&gt;Node3 -->
<g id="edge7" class="edge">
<title>Node1&#45;&gt;Node3</title>
<path fill="none" stroke="midnightblue" d="M280.58,-61.67C270.07,-69.52 256.51,-78.38 243,-83.64 217.53,-93.56 187.17,-98.31 163.11,-100.58"/>
<polygon fill="midnightblue" stroke="midnightblue" points="282.87,-64.33 288.62,-55.43 278.57,-58.8 282.87,-64.33"/>
</g>
<!-- Node4 -->
<g id="node4" class="node">
<title>Node4</title>
<g id="a_node4"><a xlink:href="cliente_8c.html#a0ddf1224851353fc92bfbff6f499fa97" target="_top" xlink:title=" ">
<polygon fill="none" stroke="black" points="0,-36.14 0,-55.14 41,-55.14 41,-36.14 0,-36.14"/>
<text text-anchor="middle" x="20.5" y="-43.14" font-family="Helvetica,sans-Serif" font-size="10.00">main</text>
</a>
</g>
</g>
<!-- Node1&#45;&gt;Node4 -->
<g id="edge9" class="edge">
<title>Node1&#45;&gt;Node4</title>
<path fill="none" stroke="midnightblue" d="M270.55,-32.05C227.33,-14.01 144.52,13.26 77,-7.64 59.15,-13.17 41.93,-26.63 31.53,-35.95"/>
<polygon fill="midnightblue" stroke="midnightblue" points="269.33,-35.34 279.9,-36.07 272.1,-28.91 269.33,-35.34"/>
</g>
<!-- Node5 -->
<g id="node5" class="node">
<title>Node5</title>
<g id="a_node5"><a xlink:href="idoso_8h.html#a3f54e9cc6f8cd2c53e2c3a09aefc32db" target="_top" xlink:title="Faz a alocacao de memoria e inicializacao de uma variavel do tipo Idoso.">
<polygon fill="none" stroke="black" points="85.5,-17.14 85.5,-36.14 154.5,-36.14 154.5,-17.14 85.5,-17.14"/>
<text text-anchor="middle" x="120" y="-24.14" font-family="Helvetica,sans-Serif" font-size="10.00">IniciaIdoso</text>
</a>
</g>
</g>
<!-- Node1&#45;&gt;Node5 -->
<g id="edge8" class="edge">
<title>Node1&#45;&gt;Node5</title>
<path fill="none" stroke="midnightblue" d="M268.66,-42.31C236.75,-38.93 187.45,-33.7 154.72,-30.22"/>
<polygon fill="midnightblue" stroke="midnightblue" points="268.45,-45.81 278.76,-43.39 269.19,-38.85 268.45,-45.81"/>
</g>
<!-- Node2&#45;&gt;Node3 -->
<g id="edge2" class="edge">
<title>Node2&#45;&gt;Node3</title>
<path fill="none" stroke="midnightblue" d="M188.91,-76.58C175.06,-81.89 158.97,-88.07 145.93,-93.07"/>
<polygon fill="midnightblue" stroke="midnightblue" points="190.44,-79.74 198.52,-72.89 187.93,-73.2 190.44,-79.74"/>
</g>
<!-- Node2&#45;&gt;Node4 -->
<g id="edge6" class="edge">
<title>Node2&#45;&gt;Node4</title>
<path fill="none" stroke="midnightblue" d="M188.68,-61.64C147.29,-57.68 75.59,-50.82 41.12,-47.52"/>
<polygon fill="midnightblue" stroke="midnightblue" points="188.47,-65.14 198.76,-62.61 189.14,-58.17 188.47,-65.14"/>
</g>
<!-- Node2&#45;&gt;Node5 -->
<g id="edge4" class="edge">
<title>Node2&#45;&gt;Node5</title>
<path fill="none" stroke="midnightblue" d="M188.91,-52.71C175.06,-47.39 158.97,-41.22 145.93,-36.21"/>
<polygon fill="midnightblue" stroke="midnightblue" points="187.93,-56.08 198.52,-56.4 190.44,-49.54 187.93,-56.08"/>
</g>
<!-- Node3&#45;&gt;Node4 -->
<g id="edge3" class="edge">
<title>Node3&#45;&gt;Node4</title>
<path fill="none" stroke="midnightblue" d="M93.42,-88.12C87.99,-85.01 82.3,-81.73 77,-78.64 63.64,-70.85 48.55,-61.87 37.49,-55.25"/>
<polygon fill="midnightblue" stroke="midnightblue" points="91.78,-91.21 102.2,-93.13 95.25,-85.13 91.78,-91.21"/>
</g>
<!-- Node5&#45;&gt;Node4 -->
<g id="edge5" class="edge">
<title>Node5&#45;&gt;Node4</title>
<path fill="none" stroke="midnightblue" d="M75.53,-35.11C63.52,-37.45 51.08,-39.88 41.17,-41.81"/>
<polygon fill="midnightblue" stroke="midnightblue" points="76.3,-38.53 85.45,-33.18 74.96,-31.66 76.3,-38.53"/>
</g>
</g>
</svg>
