<?xml version="1.0" encoding="UTF-8" standalone="no"?>
<!DOCTYPE svg PUBLIC "-//W3C//DTD SVG 1.1//EN"
 "http://www.w3.org/Graphics/SVG/1.1/DTD/svg11.dtd">
<!-- Generated by graphviz version 2.50.0 (0)
 -->
<!-- Title: adpth Pages: 1 -->
<svg width="251pt" height="104pt"
 viewBox="0.00 0.00 251.00 104.00" xmlns="http://www.w3.org/2000/svg" xmlns:xlink="http://www.w3.org/1999/xlink">
<g id="graph0" class="graph" transform="scale(1 1) rotate(0) translate(4 100)">
<title>adpth</title>
<!-- Node1 -->
<g id="node1" class="node">
<title>Node1</title>
<g id="a_node1"><a xlink:title="adiciona uma string no final do caminho, com um divisor no meio se o path terminar com um divisor,...">
<polygon fill="#bfbfbf" stroke="black" points="199,-38.5 199,-57.5 243,-57.5 243,-38.5 199,-38.5"/>
<text text-anchor="middle" x="221" y="-45.5" font-family="Helvetica,sans-Serif" font-size="10.00">adpth</text>
</a>
</g>
</g>
<!-- Node2 -->
<g id="node2" class="node">
<title>Node2</title>
<g id="a_node2"><a xlink:href="cuidador_8h.html#aeb8e274de45a5c99428ad3740eef86b8" target="_top" xlink:title="Faz a alocacao de memoria e inicializacao de uma variavel do tipo cuidador.">
<polygon fill="none" stroke="black" points="77,-76.5 77,-95.5 163,-95.5 163,-76.5 77,-76.5"/>
<text text-anchor="middle" x="120" y="-83.5" font-family="Helvetica,sans-Serif" font-size="10.00">IniciaCuidador</text>
</a>
</g>
</g>
<!-- Node1&#45;&gt;Node2 -->
<g id="edge1" class="edge">
<title>Node1&#45;&gt;Node2</title>
<path fill="none" stroke="midnightblue" d="M188.91,-59.93C175.06,-65.25 158.97,-71.42 145.93,-76.43"/>
<polygon fill="midnightblue" stroke="midnightblue" points="190.44,-63.1 198.52,-56.25 187.93,-56.56 190.44,-63.1"/>
</g>
<!-- Node3 -->
<g id="node3" class="node">
<title>Node3</title>
<g id="a_node3"><a xlink:href="cliente_8c.html#a0ddf1224851353fc92bfbff6f499fa97" target="_top" xlink:title=" ">
<polygon fill="none" stroke="black" points="0,-38.5 0,-57.5 41,-57.5 41,-38.5 0,-38.5"/>
<text text-anchor="middle" x="20.5" y="-45.5" font-family="Helvetica,sans-Serif" font-size="10.00">main</text>
</a>
</g>
</g>
<!-- Node1&#45;&gt;Node3 -->
<g id="edge5" class="edge">
<title>Node1&#45;&gt;Node3</title>
<path fill="none" stroke="midnightblue" d="M188.68,-48C147.29,-48 75.59,-48 41.12,-48"/>
<polygon fill="midnightblue" stroke="midnightblue" points="188.76,-51.5 198.76,-48 188.76,-44.5 188.76,-51.5"/>
</g>
<!-- Node4 -->
<g id="node4" class="node">
<title>Node4</title>
<g id="a_node4"><a xlink:href="idoso_8h.html#a3f54e9cc6f8cd2c53e2c3a09aefc32db" target="_top" xlink:title="Faz a alocacao de memoria e inicializacao de uma variavel do tipo Idoso.">
<polygon fill="none" stroke="black" points="85.5,-0.5 85.5,-19.5 154.5,-19.5 154.5,-0.5 85.5,-0.5"/>
<text text-anchor="middle" x="120" y="-7.5" font-family="Helvetica,sans-Serif" font-size="10.00">IniciaIdoso</text>
</a>
</g>
</g>
<!-- Node1&#45;&gt;Node4 -->
<g id="edge3" class="edge">
<title>Node1&#45;&gt;Node4</title>
<path fill="none" stroke="midnightblue" d="M188.91,-36.07C175.06,-30.75 158.97,-24.58 145.93,-19.57"/>
<polygon fill="midnightblue" stroke="midnightblue" points="187.93,-39.44 198.52,-39.75 190.44,-32.9 187.93,-39.44"/>
</g>
<!-- Node2&#45;&gt;Node3 -->
<g id="edge2" class="edge">
<title>Node2&#45;&gt;Node3</title>
<path fill="none" stroke="midnightblue" d="M84.68,-72.63C70.11,-66.95 53.65,-60.53 41.19,-55.67"/>
<polygon fill="midnightblue" stroke="midnightblue" points="83.81,-76.04 94.4,-76.41 86.35,-69.52 83.81,-76.04"/>
</g>
<!-- Node4&#45;&gt;Node3 -->
<g id="edge4" class="edge">
<title>Node4&#45;&gt;Node3</title>
<path fill="none" stroke="midnightblue" d="M84.68,-23.37C70.11,-29.05 53.65,-35.47 41.19,-40.33"/>
<polygon fill="midnightblue" stroke="midnightblue" points="86.35,-26.48 94.4,-19.59 83.81,-19.96 86.35,-26.48"/>
</g>
</g>
</svg>
