<?xml version="1.0" encoding="UTF-8" standalone="no"?>
<!DOCTYPE svg PUBLIC "-//W3C//DTD SVG 1.1//EN"
 "http://www.w3.org/Graphics/SVG/1.1/DTD/svg11.dtd">
<!-- Generated by graphviz version 2.50.0 (0)
 -->
<!-- Title: idoso Pages: 1 -->
<svg width="263pt" height="452pt"
 viewBox="0.00 0.00 262.50 452.00" xmlns="http://www.w3.org/2000/svg" xmlns:xlink="http://www.w3.org/1999/xlink">
<g id="graph0" class="graph" transform="scale(1 1) rotate(0) translate(4 448)">
<title>idoso</title>
<!-- Node1 -->
<g id="node1" class="node">
<title>Node1</title>
<g id="a_node1"><a xlink:title=" ">
<polygon fill="#bfbfbf" stroke="black" points="71.5,-145.5 71.5,-164.5 114.5,-164.5 114.5,-145.5 71.5,-145.5"/>
<text text-anchor="middle" x="93" y="-152.5" font-family="Helvetica,sans-Serif" font-size="10.00">idoso</text>
</a>
</g>
</g>
<!-- Node4 -->
<g id="node4" class="node">
<title>Node4</title>
<g id="a_node4"><a xlink:href="structcelula_idoso.html" target="_top" xlink:title=" ">
<polygon fill="none" stroke="black" points="0,-78.5 0,-97.5 72,-97.5 72,-78.5 0,-78.5"/>
<text text-anchor="middle" x="36" y="-85.5" font-family="Helvetica,sans-Serif" font-size="10.00">celulaIdoso</text>
</a>
</g>
</g>
<!-- Node1&#45;&gt;Node4 -->
<g id="edge4" class="edge">
<title>Node1&#45;&gt;Node4</title>
<path fill="none" stroke="#9a32cd" stroke-dasharray="5,2" d="M78.65,-137.63C67.5,-124.92 52.48,-107.8 43.57,-97.63"/>
<polygon fill="#9a32cd" stroke="#9a32cd" points="76.09,-140.02 85.31,-145.23 81.35,-135.41 76.09,-140.02"/>
<text text-anchor="middle" x="83" y="-119" font-family="Helvetica,sans-Serif" font-size="10.00"> idoso</text>
</g>
<!-- Node2 -->
<g id="node2" class="node">
<title>Node2</title>
<g id="a_node2"><a xlink:href="structgeoloc.html" target="_top" xlink:title=" ">
<polygon fill="none" stroke="black" points="68.5,-424.5 68.5,-443.5 117.5,-443.5 117.5,-424.5 68.5,-424.5"/>
<text text-anchor="middle" x="93" y="-431.5" font-family="Helvetica,sans-Serif" font-size="10.00">geoloc</text>
</a>
</g>
</g>
<!-- Node2&#45;&gt;Node1 -->
<g id="edge1" class="edge">
<title>Node2&#45;&gt;Node1</title>
<path fill="none" stroke="#9a32cd" stroke-dasharray="5,2" d="M86.03,-414.82C81.72,-401.94 77,-384.16 77,-368 77,-368 77,-368 77,-221 77,-200.31 84.74,-176.97 89.45,-164.66"/>
<polygon fill="#9a32cd" stroke="#9a32cd" points="82.78,-416.11 89.45,-424.34 89.37,-413.74 82.78,-416.11"/>
<text text-anchor="middle" x="90.5" y="-297.5" font-family="Helvetica,sans-Serif" font-size="10.00"> local</text>
</g>
<!-- Node7 -->
<g id="node7" class="node">
<title>Node7</title>
<g id="a_node7"><a xlink:href="structcuidador.html" target="_top" xlink:title=" ">
<polygon fill="none" stroke="black" points="121.5,-357.5 121.5,-376.5 180.5,-376.5 180.5,-357.5 121.5,-357.5"/>
<text text-anchor="middle" x="151" y="-364.5" font-family="Helvetica,sans-Serif" font-size="10.00">cuidador</text>
</a>
</g>
</g>
<!-- Node2&#45;&gt;Node7 -->
<g id="edge9" class="edge">
<title>Node2&#45;&gt;Node7</title>
<path fill="none" stroke="#9a32cd" stroke-dasharray="5,2" d="M107.6,-416.63C118.95,-403.92 134.23,-386.8 143.3,-376.63"/>
<polygon fill="#9a32cd" stroke="#9a32cd" points="104.87,-414.44 100.82,-424.23 110.09,-419.1 104.87,-414.44"/>
<text text-anchor="middle" x="138.5" y="-398" font-family="Helvetica,sans-Serif" font-size="10.00"> local</text>
</g>
<!-- Node3 -->
<g id="node3" class="node">
<title>Node3</title>
<g id="a_node3"><a xlink:href="structlista_idoso.html" target="_top" xlink:title=" ">
<polygon fill="none" stroke="black" points="61,-0.5 61,-19.5 125,-19.5 125,-0.5 61,-0.5"/>
<text text-anchor="middle" x="93" y="-7.5" font-family="Helvetica,sans-Serif" font-size="10.00">listaIdoso</text>
</a>
</g>
</g>
<!-- Node3&#45;&gt;Node1 -->
<g id="edge2" class="edge">
<title>Node3&#45;&gt;Node1</title>
<path fill="none" stroke="#9a32cd" stroke-dasharray="5,2" d="M105.8,-28.5C116.94,-45.86 130.36,-73.37 124,-98 119.28,-116.29 107.16,-134.98 99.55,-145.48"/>
<polygon fill="#9a32cd" stroke="#9a32cd" points="108.52,-26.27 100,-19.98 102.74,-30.21 108.52,-26.27"/>
<text text-anchor="middle" x="145" y="-85.5" font-family="Helvetica,sans-Serif" font-size="10.00"> amigos</text>
</g>
<!-- Node4&#45;&gt;Node3 -->
<g id="edge3" class="edge">
<title>Node4&#45;&gt;Node3</title>
<path fill="none" stroke="#9a32cd" stroke-dasharray="5,2" d="M48.75,-70.01C60.47,-54.37 77.39,-31.81 86.54,-19.62"/>
<polygon fill="#9a32cd" stroke="#9a32cd" points="45.74,-68.18 42.54,-78.28 51.34,-72.38 45.74,-68.18"/>
<text text-anchor="middle" x="85" y="-52" font-family="Helvetica,sans-Serif" font-size="10.00"> prim</text>
<text text-anchor="middle" x="85" y="-41" font-family="Helvetica,sans-Serif" font-size="10.00">ult</text>
</g>
<!-- Node4&#45;&gt;Node4 -->
<g id="edge5" class="edge">
<title>Node4&#45;&gt;Node4</title>
<path fill="none" stroke="#9a32cd" stroke-dasharray="5,2" d="M82.21,-92.95C86.96,-91.97 90,-90.32 90,-88 90,-84.28 82.22,-82.29 72.09,-82.03"/>
<polygon fill="#9a32cd" stroke="#9a32cd" points="81.68,-89.48 72.09,-93.97 82.39,-96.45 81.68,-89.48"/>
<text text-anchor="middle" x="102.5" y="-85.5" font-family="Helvetica,sans-Serif" font-size="10.00"> prox</text>
</g>
<!-- Node5 -->
<g id="node5" class="node">
<title>Node5</title>
<g id="a_node5"><a xlink:href="structlista_cui.html" target="_top" xlink:title=" ">
<polygon fill="none" stroke="black" points="122.5,-212.5 122.5,-231.5 175.5,-231.5 175.5,-212.5 122.5,-212.5"/>
<text text-anchor="middle" x="149" y="-219.5" font-family="Helvetica,sans-Serif" font-size="10.00">listaCui</text>
</a>
</g>
</g>
<!-- Node5&#45;&gt;Node1 -->
<g id="edge6" class="edge">
<title>Node5&#45;&gt;Node1</title>
<path fill="none" stroke="#9a32cd" stroke-dasharray="5,2" d="M134.9,-204.63C123.95,-191.92 109.2,-174.8 100.43,-164.63"/>
<polygon fill="#9a32cd" stroke="#9a32cd" points="132.27,-206.94 141.45,-212.23 137.57,-202.37 132.27,-206.94"/>
<text text-anchor="middle" x="153.5" y="-186" font-family="Helvetica,sans-Serif" font-size="10.00"> cuidadores</text>
</g>
<!-- Node6 -->
<g id="node6" class="node">
<title>Node6</title>
<g id="a_node6"><a xlink:href="structcelula_cuidador.html" target="_top" xlink:title=" ">
<polygon fill="none" stroke="black" points="122.5,-290.5 122.5,-309.5 211.5,-309.5 211.5,-290.5 122.5,-290.5"/>
<text text-anchor="middle" x="167" y="-297.5" font-family="Helvetica,sans-Serif" font-size="10.00">celulaCuidador</text>
</a>
</g>
</g>
<!-- Node6&#45;&gt;Node5 -->
<g id="edge7" class="edge">
<title>Node6&#45;&gt;Node5</title>
<path fill="none" stroke="#9a32cd" stroke-dasharray="5,2" d="M162.55,-280.22C158.88,-264.7 153.82,-243.36 151.04,-231.62"/>
<polygon fill="#9a32cd" stroke="#9a32cd" points="159.22,-281.36 164.94,-290.28 166.04,-279.74 159.22,-281.36"/>
<text text-anchor="middle" x="173" y="-264" font-family="Helvetica,sans-Serif" font-size="10.00"> prim</text>
<text text-anchor="middle" x="173" y="-253" font-family="Helvetica,sans-Serif" font-size="10.00">ult</text>
</g>
<!-- Node6&#45;&gt;Node6 -->
<g id="edge10" class="edge">
<title>Node6&#45;&gt;Node6</title>
<path fill="none" stroke="#9a32cd" stroke-dasharray="5,2" d="M221.83,-304.69C226.55,-303.69 229.5,-302.13 229.5,-300 229.5,-296.59 221.95,-294.64 211.66,-294.13"/>
<polygon fill="#9a32cd" stroke="#9a32cd" points="221.19,-301.24 211.66,-305.87 222,-308.19 221.19,-301.24"/>
<text text-anchor="middle" x="242" y="-297.5" font-family="Helvetica,sans-Serif" font-size="10.00"> prox</text>
</g>
<!-- Node7&#45;&gt;Node6 -->
<g id="edge8" class="edge">
<title>Node7&#45;&gt;Node6</title>
<path fill="none" stroke="#9a32cd" stroke-dasharray="5,2" d="M155.57,-347.41C158.63,-334.99 162.52,-319.22 164.88,-309.63"/>
<polygon fill="#9a32cd" stroke="#9a32cd" points="152.15,-346.69 153.16,-357.23 158.95,-348.36 152.15,-346.69"/>
<text text-anchor="middle" x="174" y="-331" font-family="Helvetica,sans-Serif" font-size="10.00"> cuida</text>
</g>
</g>
</svg>
