<?xml version="1.0" encoding="UTF-8" standalone="no"?>
<!DOCTYPE svg PUBLIC "-//W3C//DTD SVG 1.1//EN"
 "http://www.w3.org/Graphics/SVG/1.1/DTD/svg11.dtd">
<!-- Generated by graphviz version 2.50.0 (0)
 -->
<!-- Title: listaCui Pages: 1 -->
<svg width="140pt" height="240pt"
 viewBox="0.00 0.00 140.00 240.00" xmlns="http://www.w3.org/2000/svg" xmlns:xlink="http://www.w3.org/1999/xlink">
<g id="graph0" class="graph" transform="scale(1 1) rotate(0) translate(4 236)">
<title>listaCui</title>
<!-- Node1 -->
<g id="node1" class="node">
<title>Node1</title>
<g id="a_node1"><a xlink:title=" ">
<polygon fill="#bfbfbf" stroke="black" points="18,-0.5 18,-19.5 71,-19.5 71,-0.5 18,-0.5"/>
<text text-anchor="middle" x="44.5" y="-7.5" font-family="Helvetica,sans-Serif" font-size="10.00">listaCui</text>
</a>
</g>
</g>
<!-- Node2 -->
<g id="node2" class="node">
<title>Node2</title>
<g id="a_node2"><a xlink:href="structcelula_cuidador.html" target="_top" xlink:title=" ">
<polygon fill="none" stroke="black" points="0,-78.5 0,-97.5 89,-97.5 89,-78.5 0,-78.5"/>
<text text-anchor="middle" x="44.5" y="-85.5" font-family="Helvetica,sans-Serif" font-size="10.00">celulaCuidador</text>
</a>
</g>
</g>
<!-- Node2&#45;&gt;Node1 -->
<g id="edge1" class="edge">
<title>Node2&#45;&gt;Node1</title>
<path fill="none" stroke="#9a32cd" stroke-dasharray="5,2" d="M44.5,-68.22C44.5,-52.7 44.5,-31.36 44.5,-19.62"/>
<polygon fill="#9a32cd" stroke="#9a32cd" points="41,-68.28 44.5,-78.28 48,-68.28 41,-68.28"/>
<text text-anchor="middle" x="57.5" y="-52" font-family="Helvetica,sans-Serif" font-size="10.00"> prim</text>
<text text-anchor="middle" x="57.5" y="-41" font-family="Helvetica,sans-Serif" font-size="10.00">ult</text>
</g>
<!-- Node2&#45;&gt;Node2 -->
<g id="edge4" class="edge">
<title>Node2&#45;&gt;Node2</title>
<path fill="none" stroke="#9a32cd" stroke-dasharray="5,2" d="M99.33,-92.69C104.05,-91.69 107,-90.13 107,-88 107,-84.59 99.45,-82.64 89.16,-82.13"/>
<polygon fill="#9a32cd" stroke="#9a32cd" points="98.69,-89.24 89.16,-93.87 99.5,-96.19 98.69,-89.24"/>
<text text-anchor="middle" x="119.5" y="-85.5" font-family="Helvetica,sans-Serif" font-size="10.00"> prox</text>
</g>
<!-- Node3 -->
<g id="node3" class="node">
<title>Node3</title>
<g id="a_node3"><a xlink:href="structcuidador.html" target="_top" xlink:title=" ">
<polygon fill="none" stroke="black" points="15,-145.5 15,-164.5 74,-164.5 74,-145.5 15,-145.5"/>
<text text-anchor="middle" x="44.5" y="-152.5" font-family="Helvetica,sans-Serif" font-size="10.00">cuidador</text>
</a>
</g>
</g>
<!-- Node3&#45;&gt;Node2 -->
<g id="edge2" class="edge">
<title>Node3&#45;&gt;Node2</title>
<path fill="none" stroke="#9a32cd" stroke-dasharray="5,2" d="M44.5,-135.04C44.5,-122.67 44.5,-107.12 44.5,-97.63"/>
<polygon fill="#9a32cd" stroke="#9a32cd" points="41,-135.23 44.5,-145.23 48,-135.23 41,-135.23"/>
<text text-anchor="middle" x="59.5" y="-119" font-family="Helvetica,sans-Serif" font-size="10.00"> cuida</text>
</g>
<!-- Node4 -->
<g id="node4" class="node">
<title>Node4</title>
<g id="a_node4"><a xlink:href="structgeoloc.html" target="_top" xlink:title=" ">
<polygon fill="none" stroke="black" points="20,-212.5 20,-231.5 69,-231.5 69,-212.5 20,-212.5"/>
<text text-anchor="middle" x="44.5" y="-219.5" font-family="Helvetica,sans-Serif" font-size="10.00">geoloc</text>
</a>
</g>
</g>
<!-- Node4&#45;&gt;Node3 -->
<g id="edge3" class="edge">
<title>Node4&#45;&gt;Node3</title>
<path fill="none" stroke="#9a32cd" stroke-dasharray="5,2" d="M44.5,-202.04C44.5,-189.67 44.5,-174.12 44.5,-164.63"/>
<polygon fill="#9a32cd" stroke="#9a32cd" points="41,-202.23 44.5,-212.23 48,-202.23 41,-202.23"/>
<text text-anchor="middle" x="58" y="-186" font-family="Helvetica,sans-Serif" font-size="10.00"> local</text>
</g>
</g>
</svg>
