<?xml version="1.0" encoding="UTF-8" standalone="no"?>
<!DOCTYPE svg PUBLIC "-//W3C//DTD SVG 1.1//EN"
 "http://www.w3.org/Graphics/SVG/1.1/DTD/svg11.dtd">
<!-- Generated by graphviz version 2.50.0 (0)
 -->
<!-- Title: listaIdoso Pages: 1 -->
<svg width="294pt" height="376pt"
 viewBox="0.00 0.00 293.50 376.00" xmlns="http://www.w3.org/2000/svg" xmlns:xlink="http://www.w3.org/1999/xlink">
<g id="graph0" class="graph" transform="scale(1 1) rotate(0) translate(4 372)">
<title>listaIdoso</title>
<!-- Node1 -->
<g id="node1" class="node">
<title>Node1</title>
<g id="a_node1"><a xlink:title=" ">
<polygon fill="#bfbfbf" stroke="black" points="2,-136.5 2,-155.5 66,-155.5 66,-136.5 2,-136.5"/>
<text text-anchor="middle" x="34" y="-143.5" font-family="Helvetica,sans-Serif" font-size="10.00">listaIdoso</text>
</a>
</g>
</g>
<!-- Node3 -->
<g id="node3" class="node">
<title>Node3</title>
<g id="a_node3"><a xlink:href="structidoso.html" target="_top" xlink:title=" ">
<polygon fill="none" stroke="black" points="75.5,-68.5 75.5,-87.5 118.5,-87.5 118.5,-68.5 75.5,-68.5"/>
<text text-anchor="middle" x="97" y="-75.5" font-family="Helvetica,sans-Serif" font-size="10.00">idoso</text>
</a>
</g>
</g>
<!-- Node1&#45;&gt;Node3 -->
<g id="edge4" class="edge">
<title>Node1&#45;&gt;Node3</title>
<path fill="none" stroke="#9a32cd" stroke-dasharray="5,2" d="M41.06,-127.2C44.32,-120.38 48.67,-112.85 54,-107 61.2,-99.1 71.1,-92.45 79.58,-87.62"/>
<polygon fill="#9a32cd" stroke="#9a32cd" points="37.84,-125.82 37.06,-136.38 44.26,-128.61 37.84,-125.82"/>
<text text-anchor="middle" x="74" y="-110" font-family="Helvetica,sans-Serif" font-size="10.00"> amigos</text>
</g>
<!-- Node2 -->
<g id="node2" class="node">
<title>Node2</title>
<g id="a_node2"><a xlink:href="structcelula_idoso.html" target="_top" xlink:title=" ">
<polygon fill="none" stroke="black" points="0,-0.5 0,-19.5 72,-19.5 72,-0.5 0,-0.5"/>
<text text-anchor="middle" x="36" y="-7.5" font-family="Helvetica,sans-Serif" font-size="10.00">celulaIdoso</text>
</a>
</g>
</g>
<!-- Node2&#45;&gt;Node1 -->
<g id="edge1" class="edge">
<title>Node2&#45;&gt;Node1</title>
<path fill="none" stroke="#9a32cd" stroke-dasharray="5,2" d="M35.72,-29.81C35.28,-59.17 34.45,-114.72 34.13,-136.21"/>
<polygon fill="#9a32cd" stroke="#9a32cd" points="39.22,-29.7 35.87,-19.65 32.22,-29.6 39.22,-29.7"/>
<text text-anchor="middle" x="49" y="-81" font-family="Helvetica,sans-Serif" font-size="10.00"> prim</text>
<text text-anchor="middle" x="49" y="-70" font-family="Helvetica,sans-Serif" font-size="10.00">ult</text>
</g>
<!-- Node2&#45;&gt;Node2 -->
<g id="edge10" class="edge">
<title>Node2&#45;&gt;Node2</title>
<path fill="none" stroke="#9a32cd" stroke-dasharray="5,2" d="M82.21,-14.95C86.96,-13.97 90,-12.32 90,-10 90,-6.28 82.22,-4.29 72.09,-4.03"/>
<polygon fill="#9a32cd" stroke="#9a32cd" points="81.68,-11.48 72.09,-15.97 82.39,-18.45 81.68,-11.48"/>
<text text-anchor="middle" x="102.5" y="-7.5" font-family="Helvetica,sans-Serif" font-size="10.00"> prox</text>
</g>
<!-- Node3&#45;&gt;Node2 -->
<g id="edge2" class="edge">
<title>Node3&#45;&gt;Node2</title>
<path fill="none" stroke="#9a32cd" stroke-dasharray="5,2" d="M81.92,-60.68C69.99,-47.78 53.8,-30.26 44.17,-19.84"/>
<polygon fill="#9a32cd" stroke="#9a32cd" points="79.67,-63.4 89.03,-68.37 84.81,-58.65 79.67,-63.4"/>
<text text-anchor="middle" x="86" y="-41" font-family="Helvetica,sans-Serif" font-size="10.00"> idoso</text>
</g>
<!-- Node4 -->
<g id="node4" class="node">
<title>Node4</title>
<g id="a_node4"><a xlink:href="structgeoloc.html" target="_top" xlink:title=" ">
<polygon fill="none" stroke="black" points="99.5,-348.5 99.5,-367.5 148.5,-367.5 148.5,-348.5 99.5,-348.5"/>
<text text-anchor="middle" x="124" y="-355.5" font-family="Helvetica,sans-Serif" font-size="10.00">geoloc</text>
</a>
</g>
</g>
<!-- Node4&#45;&gt;Node3 -->
<g id="edge3" class="edge">
<title>Node4&#45;&gt;Node3</title>
<path fill="none" stroke="#9a32cd" stroke-dasharray="5,2" d="M117.03,-338.82C112.72,-325.94 108,-308.16 108,-292 108,-292 108,-292 108,-145 108,-124.32 102.68,-100.49 99.44,-87.89"/>
<polygon fill="#9a32cd" stroke="#9a32cd" points="113.78,-340.11 120.45,-348.34 120.37,-337.74 113.78,-340.11"/>
<text text-anchor="middle" x="121.5" y="-221.5" font-family="Helvetica,sans-Serif" font-size="10.00"> local</text>
</g>
<!-- Node7 -->
<g id="node7" class="node">
<title>Node7</title>
<g id="a_node7"><a xlink:href="structcuidador.html" target="_top" xlink:title=" ">
<polygon fill="none" stroke="black" points="152.5,-281.5 152.5,-300.5 211.5,-300.5 211.5,-281.5 152.5,-281.5"/>
<text text-anchor="middle" x="182" y="-288.5" font-family="Helvetica,sans-Serif" font-size="10.00">cuidador</text>
</a>
</g>
</g>
<!-- Node4&#45;&gt;Node7 -->
<g id="edge8" class="edge">
<title>Node4&#45;&gt;Node7</title>
<path fill="none" stroke="#9a32cd" stroke-dasharray="5,2" d="M138.6,-340.63C149.95,-327.92 165.23,-310.8 174.3,-300.63"/>
<polygon fill="#9a32cd" stroke="#9a32cd" points="135.87,-338.44 131.82,-348.23 141.09,-343.1 135.87,-338.44"/>
<text text-anchor="middle" x="169.5" y="-322" font-family="Helvetica,sans-Serif" font-size="10.00"> local</text>
</g>
<!-- Node5 -->
<g id="node5" class="node">
<title>Node5</title>
<g id="a_node5"><a xlink:href="structlista_cui.html" target="_top" xlink:title=" ">
<polygon fill="none" stroke="black" points="153.5,-136.5 153.5,-155.5 206.5,-155.5 206.5,-136.5 153.5,-136.5"/>
<text text-anchor="middle" x="180" y="-143.5" font-family="Helvetica,sans-Serif" font-size="10.00">listaCui</text>
</a>
</g>
</g>
<!-- Node5&#45;&gt;Node3 -->
<g id="edge5" class="edge">
<title>Node5&#45;&gt;Node3</title>
<path fill="none" stroke="#9a32cd" stroke-dasharray="5,2" d="M161.26,-130.1C144.79,-117 121.4,-98.4 107.85,-87.63"/>
<polygon fill="#9a32cd" stroke="#9a32cd" points="159.14,-132.89 169.15,-136.37 163.5,-127.41 159.14,-132.89"/>
<text text-anchor="middle" x="173.5" y="-110" font-family="Helvetica,sans-Serif" font-size="10.00"> cuidadores</text>
</g>
<!-- Node6 -->
<g id="node6" class="node">
<title>Node6</title>
<g id="a_node6"><a xlink:href="structcelula_cuidador.html" target="_top" xlink:title=" ">
<polygon fill="none" stroke="black" points="153.5,-214.5 153.5,-233.5 242.5,-233.5 242.5,-214.5 153.5,-214.5"/>
<text text-anchor="middle" x="198" y="-221.5" font-family="Helvetica,sans-Serif" font-size="10.00">celulaCuidador</text>
</a>
</g>
</g>
<!-- Node6&#45;&gt;Node5 -->
<g id="edge6" class="edge">
<title>Node6&#45;&gt;Node5</title>
<path fill="none" stroke="#9a32cd" stroke-dasharray="5,2" d="M193.55,-204.22C189.88,-188.7 184.82,-167.36 182.04,-155.62"/>
<polygon fill="#9a32cd" stroke="#9a32cd" points="190.22,-205.36 195.94,-214.28 197.04,-203.74 190.22,-205.36"/>
<text text-anchor="middle" x="204" y="-188" font-family="Helvetica,sans-Serif" font-size="10.00"> prim</text>
<text text-anchor="middle" x="204" y="-177" font-family="Helvetica,sans-Serif" font-size="10.00">ult</text>
</g>
<!-- Node6&#45;&gt;Node6 -->
<g id="edge9" class="edge">
<title>Node6&#45;&gt;Node6</title>
<path fill="none" stroke="#9a32cd" stroke-dasharray="5,2" d="M252.83,-228.69C257.55,-227.69 260.5,-226.13 260.5,-224 260.5,-220.59 252.95,-218.64 242.66,-218.13"/>
<polygon fill="#9a32cd" stroke="#9a32cd" points="252.19,-225.24 242.66,-229.87 253,-232.19 252.19,-225.24"/>
<text text-anchor="middle" x="273" y="-221.5" font-family="Helvetica,sans-Serif" font-size="10.00"> prox</text>
</g>
<!-- Node7&#45;&gt;Node6 -->
<g id="edge7" class="edge">
<title>Node7&#45;&gt;Node6</title>
<path fill="none" stroke="#9a32cd" stroke-dasharray="5,2" d="M186.57,-271.41C189.63,-258.99 193.52,-243.22 195.88,-233.63"/>
<polygon fill="#9a32cd" stroke="#9a32cd" points="183.15,-270.69 184.16,-281.23 189.95,-272.36 183.15,-270.69"/>
<text text-anchor="middle" x="205" y="-255" font-family="Helvetica,sans-Serif" font-size="10.00"> cuida</text>
</g>
</g>
</svg>
